<?xml version="1.0" encoding="UTF-8"?>
<svg id="Capa_2" data-name="Capa 2" xmlns="http://www.w3.org/2000/svg" xmlns:xlink="http://www.w3.org/1999/xlink" viewBox="0 0 473.71 657.44">
  <defs>
    <style>
      .cls-1 {
        fill: #fff;
      }

      .cls-2 {
        fill: none;
        stroke: #fff;
        stroke-miterlimit: 10;
        stroke-width: .5px;
      }

      .cls-3 {
        fill: url(#Degradado_sin_nombre_62);
      }

      .cls-4 {
        fill: #c30215;
      }
    </style>
    <linearGradient id="Degradado_sin_nombre_62" data-name="Degradado sin nombre 62" x1="511.41" y1="603.28" x2="-37.71" y2="54.16" gradientUnits="userSpaceOnUse">
      <stop offset="0" stop-color="#000"/>
      <stop offset=".32" stop-color="#030303"/>
      <stop offset=".57" stop-color="#0d0d0d"/>
      <stop offset=".8" stop-color="#1d1d1d"/>
      <stop offset="1" stop-color="#333"/>
    </linearGradient>
  </defs>
  <g id="Capa_1-2" data-name="Capa 1">
    <g>
      <rect class="cls-3" width="473.71" height="657.44" rx="28.09" ry="28.09"/>
      <g>
        <path class="cls-1" d="M100.9,89.24h-32.25l-1,5.61h30.39l-1.38,7.71h-30.34l-2.05,11.46h-11.03l5.9-33.29h43.28l-1.52,8.51Z"/>
        <path class="cls-1" d="M143.52,80.73c6.04,0,8.56,3.04,7.51,9.13l-.76,4.52c-.52,3.04-1.52,5.18-2.95,6.37-1.43,1.19-3.66,1.81-6.71,1.81l-.71.19,7.8,11.27h-12.51l-7.18-10.7h-15.65l-1.95,10.7h-11.03l5.9-33.29h38.24ZM139.85,90.91c.33-1.95-.29-2.62-2.24-2.62h-22.64l-1.33,7.71h22.83c1.95,0,2.57-.57,2.9-2.52l.48-2.57Z"/>
        <path class="cls-1" d="M199.07,88.82h-32.72l-.86,4.8h30.82l-1.19,6.85h-30.87l-.95,5.47h33.2l-1.43,8.09h-44.23l5.9-33.29h43.76l-1.43,8.09Z"/>
        <path class="cls-1" d="M246.73,88.82h-32.72l-.86,4.8h30.82l-1.19,6.85h-30.87l-.95,5.47h33.2l-1.43,8.09h-44.23l5.9-33.29h43.76l-1.43,8.09Z"/>
      </g>
      <g>
        <path class="cls-1" d="M53.39,131.31h.87v12.24h-.87v-12.24Z"/>
        <path class="cls-1" d="M63.31,143.55v-1.84c-.6,1.24-1.7,2.04-3.23,2.04-2.6,0-3.98-2.04-3.98-4.62s1.38-4.62,3.98-4.62c1.51,0,2.58.76,3.2,1.97v-5.17h.83v12.24h-.8ZM63.31,139.13c0-2.14-1.07-3.86-3.18-3.86s-3.16,1.72-3.16,3.86,1.05,3.86,3.16,3.86,3.18-1.72,3.18-3.86Z"/>
        <path class="cls-1" d="M65.86,139.13c0-2.58,1.43-4.62,3.96-4.62s3.96,2.04,3.96,4.62v.27h-7.07c.08,2.01,1.16,3.59,3.11,3.59,1.5,0,2.55-.94,2.96-2.29h.85c-.49,1.82-1.82,3.06-3.81,3.06-2.53,0-3.96-2.04-3.96-4.62ZM72.9,138.64c-.15-1.9-1.21-3.37-3.08-3.37s-2.94,1.46-3.09,3.37h6.17Z"/>
        <path class="cls-1" d="M81.22,141.92c-.73,1.29-1.94,1.84-3.3,1.84-1.92,0-2.96-1.02-2.96-2.52s1.02-2.24,3.2-2.7l3.04-.65v-.77c0-1.31-.82-1.85-2.36-1.85-1.36,0-2.65.53-2.69,2.16h-.83c.02-2.02,1.65-2.92,3.52-2.92,2.12,0,3.18.97,3.18,2.53v6.51h-.8v-1.63ZM81.2,139.79v-1.21l-2.92.66c-1.63.37-2.45.78-2.45,1.96,0,1.04.66,1.79,2.12,1.79,1.75,0,3.25-1,3.25-3.2Z"/>
        <path class="cls-1" d="M84.67,131.31v10.13c0,.83.19,1.38,1.12,1.38h1.09v.73h-1.17c-1.58,0-1.87-.87-1.87-2.06v-10.18h.83Z"/>
        <path class="cls-1" d="M92.98,134.71v1.84c.59-1.24,1.7-2.04,3.23-2.04,2.6,0,3.98,2.04,3.98,4.62s-1.38,4.62-3.98,4.62c-1.51,0-2.58-.76-3.2-1.97v5.17h-.83v-12.24h.8ZM92.98,139.13c0,2.14,1.07,3.86,3.18,3.86s3.16-1.72,3.16-3.86-1.05-3.86-3.16-3.86-3.18,1.72-3.18,3.86Z"/>
        <path class="cls-1" d="M107.63,141.92c-.73,1.29-1.94,1.84-3.3,1.84-1.92,0-2.96-1.02-2.96-2.52s1.02-2.24,3.2-2.7l3.04-.65v-.77c0-1.31-.82-1.85-2.36-1.85-1.36,0-2.65.53-2.69,2.16h-.83c.02-2.02,1.65-2.92,3.52-2.92,2.12,0,3.18.97,3.18,2.53v6.51h-.8v-1.63ZM107.62,139.79v-1.21l-2.92.66c-1.63.37-2.45.78-2.45,1.96,0,1.04.66,1.79,2.12,1.79,1.75,0,3.25-1,3.25-3.2Z"/>
        <path class="cls-1" d="M110.25,134.71h.8v1.9c.68-1.56,1.94-2.01,3.09-2.01h.7v.82h-.77c-1.53,0-2.97.99-2.99,3.31v4.81h-.83v-8.84Z"/>
        <path class="cls-1" d="M122,141.92c-.73,1.29-1.94,1.84-3.3,1.84-1.92,0-2.96-1.02-2.96-2.52s1.02-2.24,3.2-2.7l3.04-.65v-.77c0-1.31-.82-1.85-2.36-1.85-1.36,0-2.65.53-2.69,2.16h-.83c.02-2.02,1.65-2.92,3.52-2.92,2.12,0,3.18.97,3.18,2.53v6.51h-.8v-1.63ZM121.98,139.79v-1.21l-2.92.66c-1.63.37-2.45.78-2.45,1.96,0,1.04.66,1.79,2.12,1.79,1.75,0,3.25-1,3.25-3.2Z"/>
        <path class="cls-1" d="M129.24,134.71v1.84c.59-1.24,1.7-2.04,3.23-2.04,2.6,0,3.98,2.04,3.98,4.62s-1.38,4.62-3.98,4.62c-1.51,0-2.58-.76-3.2-1.97v5.17h-.83v-12.24h.8ZM129.24,139.13c0,2.14,1.07,3.86,3.18,3.86s3.16-1.72,3.16-3.86-1.05-3.86-3.16-3.86-3.18,1.72-3.18,3.86Z"/>
        <path class="cls-1" d="M138.2,134.71h.8v1.9c.68-1.56,1.94-2.01,3.09-2.01h.7v.82h-.77c-1.53,0-2.97.99-2.99,3.31v4.81h-.83v-8.84Z"/>
        <path class="cls-1" d="M143.89,139.13c0-2.58,1.43-4.62,4.05-4.62s4.05,2.04,4.05,4.62-1.44,4.62-4.05,4.62-4.05-2.04-4.05-4.62ZM151.12,139.13c0-2.14-1.07-3.86-3.18-3.86s-3.2,1.72-3.2,3.86,1.07,3.86,3.2,3.86,3.18-1.72,3.18-3.86Z"/>
        <path class="cls-1" d="M153.72,131.31h.83v5.17c.61-1.21,1.68-1.97,3.2-1.97,2.6,0,3.98,2.04,3.98,4.62s-1.38,4.62-3.98,4.62c-1.53,0-2.63-.8-3.23-2.04v1.84h-.8v-12.24ZM160.86,139.13c0-2.14-1.05-3.86-3.16-3.86s-3.18,1.72-3.18,3.86,1.07,3.86,3.18,3.86,3.16-1.72,3.16-3.86Z"/>
        <path class="cls-1" d="M169.17,141.92c-.73,1.29-1.94,1.84-3.3,1.84-1.92,0-2.96-1.02-2.96-2.52s1.02-2.24,3.2-2.7l3.04-.65v-.77c0-1.31-.82-1.85-2.36-1.85-1.36,0-2.65.53-2.69,2.16h-.83c.02-2.02,1.65-2.92,3.52-2.92,2.12,0,3.18.97,3.18,2.53v6.51h-.8v-1.63ZM169.15,139.79v-1.21l-2.92.66c-1.63.37-2.45.78-2.45,1.96,0,1.04.66,1.79,2.12,1.79,1.75,0,3.25-1,3.25-3.2Z"/>
        <path class="cls-1" d="M171.79,134.71h.8v1.9c.68-1.56,1.94-2.01,3.09-2.01h.7v.82h-.77c-1.53,0-2.97.99-2.99,3.31v4.81h-.83v-8.84Z"/>
        <path class="cls-1" d="M181.31,139.13c0-2.58,1.43-4.62,3.96-4.62s3.96,2.04,3.96,4.62v.27h-7.07c.08,2.01,1.16,3.59,3.11,3.59,1.5,0,2.55-.94,2.96-2.29h.85c-.49,1.82-1.82,3.06-3.81,3.06-2.53,0-3.96-2.04-3.96-4.62ZM188.35,138.64c-.15-1.9-1.21-3.37-3.08-3.37s-2.94,1.46-3.09,3.37h6.17Z"/>
        <path class="cls-1" d="M191.8,131.31v10.13c0,.83.19,1.38,1.12,1.38h1.09v.73h-1.17c-1.58,0-1.87-.87-1.87-2.06v-10.18h.83Z"/>
        <path class="cls-1" d="M198.96,139.13c0-2.58,1.43-4.62,3.96-4.62s3.96,2.04,3.96,4.62v.27h-7.07c.08,2.01,1.16,3.59,3.11,3.59,1.5,0,2.55-.94,2.96-2.29h.85c-.49,1.82-1.82,3.06-3.81,3.06-2.53,0-3.96-2.04-3.96-4.62ZM205.99,138.64c-.15-1.9-1.21-3.37-3.08-3.37s-2.94,1.46-3.09,3.37h6.17Z"/>
        <path class="cls-1" d="M208.08,140.66h.83c.1,1.55,1.09,2.36,2.8,2.36,1.48,0,2.6-.54,2.6-1.78,0-.95-.41-1.45-2.63-1.79-2.6-.41-3.33-1.16-3.33-2.57,0-1.48,1.33-2.38,3.18-2.38,2.23,0,3.37,1.1,3.43,2.92h-.83c-.08-1.48-.95-2.19-2.6-2.19-1.33,0-2.35.56-2.35,1.63s.56,1.48,2.74,1.82c2.55.42,3.23,1.17,3.23,2.52,0,1.77-1.61,2.55-3.43,2.55-2.21,0-3.55-1.16-3.64-3.09Z"/>
        <path class="cls-1" d="M218.45,131.99v2.72h2.57v.73h-2.57v6c0,.83.19,1.38,1.12,1.38h1.44v.73h-1.53c-1.58,0-1.87-.87-1.87-2.06v-6.05h-1.68v-.73h1.68v-2.72h.83Z"/>
        <path class="cls-1" d="M228.19,141.92c-.73,1.29-1.94,1.84-3.3,1.84-1.92,0-2.96-1.02-2.96-2.52s1.02-2.24,3.2-2.7l3.04-.65v-.77c0-1.31-.82-1.85-2.36-1.85-1.36,0-2.65.53-2.69,2.16h-.83c.02-2.02,1.65-2.92,3.52-2.92,2.12,0,3.18.97,3.18,2.53v6.51h-.8v-1.63ZM228.18,139.79v-1.21l-2.92.66c-1.63.37-2.45.78-2.45,1.96,0,1.04.66,1.79,2.12,1.79,1.75,0,3.25-1,3.25-3.2ZM227.12,131.11h1.09l-2.18,2.48h-.76l1.85-2.48Z"/>
        <path class="cls-1" d="M234.5,135.27c-1.46,0-2.86,1.19-2.86,3.33v4.95h-.83v-8.84h.8v1.67c.53-1.07,1.53-1.87,3.03-1.87,2.09,0,3.16,1.34,3.16,3.33v5.71h-.83v-5.63c0-1.73-.87-2.65-2.46-2.65Z"/>
        <path class="cls-1" d="M246.76,143.55v-1.84c-.6,1.24-1.7,2.04-3.23,2.04-2.6,0-3.98-2.04-3.98-4.62s1.38-4.62,3.98-4.62c1.51,0,2.58.76,3.2,1.97v-5.17h.83v12.24h-.8ZM246.76,139.13c0-2.14-1.07-3.86-3.18-3.86s-3.16,1.72-3.16,3.86,1.05,3.86,3.16,3.86,3.18-1.72,3.18-3.86Z"/>
        <path class="cls-1" d="M255.36,141.92c-.73,1.29-1.94,1.84-3.3,1.84-1.92,0-2.96-1.02-2.96-2.52s1.02-2.24,3.2-2.7l3.04-.65v-.77c0-1.31-.82-1.85-2.36-1.85-1.36,0-2.65.53-2.69,2.16h-.83c.02-2.02,1.65-2.92,3.52-2.92,2.12,0,3.18.97,3.18,2.53v6.51h-.8v-1.63ZM255.34,139.79v-1.21l-2.92.66c-1.63.37-2.45.78-2.45,1.96,0,1.04.66,1.79,2.12,1.79,1.75,0,3.25-1,3.25-3.2Z"/>
        <path class="cls-1" d="M257.98,134.71h.8v1.9c.68-1.56,1.94-2.01,3.09-2.01h.7v.82h-.77c-1.53,0-2.97.99-2.99,3.31v4.81h-.83v-8.84Z"/>
        <path class="cls-1" d="M271.59,132.11h-4.39v-.8h9.67v.8h-4.39v11.44h-.9v-11.44Z"/>
        <path class="cls-1" d="M278.33,131.31h.83v1.65h-.83v-1.65ZM278.33,134.71h.85v8.84h-.85v-8.84Z"/>
        <path class="cls-1" d="M282.07,134.71v1.84c.59-1.24,1.7-2.04,3.23-2.04,2.6,0,3.98,2.04,3.98,4.62s-1.38,4.62-3.98,4.62c-1.51,0-2.58-.76-3.2-1.97v5.17h-.83v-12.24h.8ZM282.07,139.13c0,2.14,1.07,3.86,3.18,3.86s3.16-1.72,3.16-3.86-1.05-3.86-3.16-3.86-3.18,1.72-3.18,3.86Z"/>
        <path class="cls-1" d="M290.5,140.66h.83c.1,1.55,1.09,2.36,2.8,2.36,1.48,0,2.6-.54,2.6-1.78,0-.95-.41-1.45-2.63-1.79-2.6-.41-3.33-1.16-3.33-2.57,0-1.48,1.33-2.38,3.18-2.38,2.23,0,3.37,1.1,3.43,2.92h-.83c-.08-1.48-.95-2.19-2.6-2.19-1.33,0-2.35.56-2.35,1.63s.56,1.48,2.74,1.82c2.55.42,3.23,1.17,3.23,2.52,0,1.77-1.61,2.55-3.43,2.55-2.21,0-3.55-1.16-3.64-3.09Z"/>
        <path class="cls-1" d="M300.87,131.99v2.72h2.57v.73h-2.57v6c0,.83.19,1.38,1.12,1.38h1.44v.73h-1.53c-1.58,0-1.87-.87-1.87-2.06v-6.05h-1.68v-.73h1.68v-2.72h.83Z"/>
        <path class="cls-1" d="M304.56,139.13c0-2.58,1.43-4.62,3.96-4.62s3.96,2.04,3.96,4.62v.27h-7.07c.08,2.01,1.16,3.59,3.11,3.59,1.5,0,2.55-.94,2.96-2.29h.85c-.49,1.82-1.82,3.06-3.81,3.06-2.53,0-3.96-2.04-3.96-4.62ZM311.59,138.64c-.15-1.9-1.21-3.37-3.08-3.37s-2.94,1.46-3.09,3.37h6.17Z"/>
        <path class="cls-1" d="M314.21,134.71h.8v1.9c.68-1.56,1.94-2.01,3.09-2.01h.7v.82h-.77c-1.53,0-2.97.99-2.99,3.31v4.81h-.83v-8.84Z"/>
        <path class="cls-1" d="M324.6,137.91l-4.15,5.64h-.99l4.64-6.31-4.35-5.93h1.02l3.84,5.24,3.86-5.24h.97l-4.33,5.9,4.66,6.34h-1.02l-4.15-5.64Z"/>
        <path class="cls-1" d="M330.84,141.76h.97v1.79h-.97v-1.79Z"/>
      </g>
      <g>
        <path class="cls-1" d="M83.64,356.93l-2.65,1.89v-2.23l2.79-1.99h1.95v12.24h-2.09v-9.91Z"/>
        <path class="cls-1" d="M87.45,361.08h7.89v1.72h-7.89v-1.72Z"/>
        <path class="cls-1" d="M96.71,365.12l4.86-4.52c.78-.76,1.41-1.62,1.41-2.65,0-1.09-.78-1.75-2.04-1.75s-2.23.76-2.21,2.35h-2.02c0-2.62,1.58-4.15,4.23-4.15,2.48,0,4.08,1.53,4.08,3.47,0,1.6-1.02,2.92-2.11,3.93l-3.48,3.25h5.73v1.8h-8.45v-1.72Z"/>
        <path class="cls-1" d="M112.21,358v1.24c.61-.9,1.55-1.44,2.84-1.44,2.6,0,4.01,1.99,4.01,4.62s-1.41,4.62-4.01,4.62c-1.24,0-2.16-.51-2.77-1.34v4.54h-1.95v-12.24h1.89ZM112.25,362.42c0,1.75.77,2.96,2.4,2.96s2.41-1.21,2.41-2.96-.76-2.96-2.41-2.96-2.4,1.21-2.4,2.96Z"/>
        <path class="cls-1" d="M120.58,358h1.89v1.56c.63-1.24,1.6-1.67,2.72-1.67h.68v1.82h-.76c-1.5,0-2.57.63-2.57,2.74v4.39h-1.95v-8.84Z"/>
        <path class="cls-1" d="M126.87,362.42c0-2.63,1.63-4.62,4.44-4.62s4.42,1.99,4.42,4.62-1.63,4.62-4.42,4.62-4.44-1.99-4.44-4.62ZM133.72,362.42c0-1.75-.76-2.96-2.41-2.96s-2.43,1.21-2.43,2.96.76,2.96,2.43,2.96,2.41-1.21,2.41-2.96Z"/>
        <path class="cls-1" d="M141.35,359.51c-.73,0-2.16.44-2.16,2.45v4.88h-1.96v-8.84h1.89v1.24c.61-.83,1.53-1.44,2.8-1.44,2.09,0,3.14,1.46,3.14,3.42v5.63h-1.94v-5.41c0-1.11-.53-1.92-1.78-1.92Z"/>
        <path class="cls-1" d="M146.59,362.42c0-2.63,1.63-4.62,4.44-4.62s4.42,1.99,4.42,4.62-1.63,4.62-4.42,4.62-4.44-1.99-4.44-4.62ZM153.44,362.42c0-1.75-.76-2.96-2.41-2.96s-2.43,1.21-2.43,2.96.76,2.96,2.43,2.96,2.41-1.21,2.41-2.96ZM151.86,354.4h2.33l-2.35,2.48h-1.63l1.65-2.48Z"/>
        <path class="cls-1" d="M156.35,363.93h1.92c.14,1.24.87,1.65,2.11,1.65,1.1,0,1.82-.41,1.82-1.12,0-.66-.25-.97-2.12-1.27-2.74-.46-3.5-1.34-3.5-2.77,0-1.63,1.44-2.62,3.55-2.62,2.46,0,3.79,1.14,3.82,2.99h-1.85c-.05-1.22-.94-1.53-1.97-1.53-.92,0-1.62.39-1.62,1.09s.41.95,2.19,1.24c2.69.46,3.45,1.28,3.45,2.75,0,1.75-1.6,2.7-3.82,2.7s-3.84-.9-3.98-3.11Z"/>
        <path class="cls-1" d="M168.3,355.28v2.72h2.28v1.55h-2.28v4.88c0,.6.22.87.87.87h1.41v1.55h-1.89c-1.5,0-2.35-.53-2.35-2.19v-5.1h-1.58v-1.55h1.58v-2.72h1.95Z"/>
        <path class="cls-1" d="M171.95,354.6h1.95v1.92h-1.95v-1.92ZM171.95,358h1.95v8.84h-1.95v-8.84Z"/>
        <path class="cls-1" d="M175.44,362.42c0-2.63,1.63-4.62,4.28-4.62,2.36,0,3.74,1.36,4.01,3.31h-1.97c-.2-1.02-.95-1.65-2.04-1.65-1.51,0-2.28,1.21-2.28,2.96s.77,2.96,2.28,2.96c1.12,0,1.85-.66,2.04-1.75h1.97c-.25,2.02-1.73,3.42-4.01,3.42-2.65,0-4.28-1.99-4.28-4.62Z"/>
        <path class="cls-1" d="M184.74,362.42c0-2.63,1.63-4.62,4.44-4.62s4.42,1.99,4.42,4.62-1.63,4.62-4.42,4.62-4.44-1.99-4.44-4.62ZM191.59,362.42c0-1.75-.76-2.96-2.41-2.96s-2.43,1.21-2.43,2.96.76,2.96,2.43,2.96,2.41-1.21,2.41-2.96Z"/>
        <path class="cls-1" d="M194.49,363.93h1.92c.14,1.24.87,1.65,2.11,1.65,1.1,0,1.82-.41,1.82-1.12,0-.66-.25-.97-2.12-1.27-2.74-.46-3.5-1.34-3.5-2.77,0-1.63,1.44-2.62,3.55-2.62,2.46,0,3.79,1.14,3.82,2.99h-1.85c-.05-1.22-.94-1.53-1.97-1.53-.92,0-1.62.39-1.62,1.09s.41.95,2.19,1.24c2.69.46,3.45,1.28,3.45,2.75,0,1.75-1.6,2.7-3.82,2.7s-3.84-.9-3.98-3.11Z"/>
        <path class="cls-1" d="M213.65,366.84v-1.24c-.61.9-1.55,1.45-2.84,1.45-2.6,0-4.01-1.99-4.01-4.62s1.41-4.62,4.01-4.62c1.24,0,2.16.51,2.77,1.34v-4.54h1.95v12.24h-1.89ZM213.62,362.42c0-1.75-.77-2.96-2.4-2.96s-2.41,1.21-2.41,2.96.76,2.96,2.41,2.96,2.4-1.21,2.4-2.96Z"/>
        <path class="cls-1" d="M217.43,354.6h1.95v1.92h-1.95v-1.92ZM217.43,358h1.95v8.84h-1.95v-8.84Z"/>
        <path class="cls-1" d="M226.79,365.8c-.76.94-1.72,1.24-2.8,1.24-1.94,0-3.21-.95-3.21-2.65,0-1.56,1.12-2.35,3.33-2.74l2.62-.48v-.56c0-.85-.53-1.27-1.68-1.27-1,0-1.9.39-1.96,1.44h-1.94c.05-2.11,1.82-2.99,3.88-2.99,2.45,0,3.62,1,3.62,2.62v6.43h-1.85v-1.04ZM226.72,363.39v-.83l-2.26.46c-1.05.22-1.68.46-1.68,1.31,0,.73.49,1.22,1.58,1.22,1.17,0,2.36-.63,2.36-2.16Z"/>
        <path class="cls-1" d="M230.31,358h1.89v1.56c.63-1.24,1.6-1.67,2.72-1.67h.68v1.82h-.76c-1.5,0-2.57.63-2.57,2.74v4.39h-1.95v-8.84Z"/>
        <path class="cls-1" d="M236.98,354.6h1.95v1.92h-1.95v-1.92ZM236.98,358h1.95v8.84h-1.95v-8.84Z"/>
        <path class="cls-1" d="M240.41,362.42c0-2.63,1.63-4.62,4.44-4.62s4.42,1.99,4.42,4.62-1.63,4.62-4.42,4.62-4.44-1.99-4.44-4.62ZM247.26,362.42c0-1.75-.76-2.96-2.41-2.96s-2.43,1.21-2.43,2.96.76,2.96,2.43,2.96,2.41-1.21,2.41-2.96Z"/>
        <path class="cls-1" d="M250.17,363.93h1.92c.14,1.24.87,1.65,2.11,1.65,1.1,0,1.82-.41,1.82-1.12,0-.66-.25-.97-2.12-1.27-2.74-.46-3.5-1.34-3.5-2.77,0-1.63,1.44-2.62,3.55-2.62,2.46,0,3.79,1.14,3.82,2.99h-1.85c-.05-1.22-.94-1.53-1.97-1.53-.92,0-1.62.39-1.62,1.09s.41.95,2.19,1.24c2.69.46,3.45,1.28,3.45,2.75,0,1.75-1.6,2.7-3.82,2.7s-3.84-.9-3.98-3.11Z"/>
        <path class="cls-1" d="M259.04,364.34h2.26v2.5h-2.26v-2.5Z"/>
      </g>
      <g>
        <path class="cls-1" d="M87.05,398.25h7.99v1.07h-6.82v4.25h6.48v1.07h-6.48v5.85h-1.17v-12.24Z"/>
        <path class="cls-1" d="M99.84,409.66c1.04,0,2.67-.73,2.67-3.06v-4.95h1.14v8.84h-1.09v-1.45c-.58.94-1.53,1.65-2.92,1.65-2.18,0-3.15-1.51-3.15-3.28v-5.76h1.1v5.64c0,1.48.77,2.36,2.24,2.36ZM101.32,398.05h1.5l-2.24,2.48h-1l1.75-2.48Z"/>
        <path class="cls-1" d="M107.78,398.93v2.72h2.46v1h-2.46v5.69c0,.73.22,1.14,1.02,1.14h1.44v1h-1.63c-1.55,0-1.97-.76-1.97-2.02v-5.81h-1.65v-1h1.65v-2.72h1.14Z"/>
        <path class="cls-1" d="M111.75,398.25h1.14v4.89c.63-1.05,1.65-1.7,3.06-1.7,2.62,0,4.05,2.01,4.05,4.62s-1.43,4.62-4.05,4.62c-1.44,0-2.5-.68-3.11-1.79v1.58h-1.09v-12.24ZM118.83,406.07c0-2.04-1-3.59-2.99-3.59s-2.97,1.55-2.97,3.59.99,3.59,2.97,3.59,2.99-1.55,2.99-3.59Z"/>
        <path class="cls-1" d="M121.33,406.07c0-2.62,1.55-4.62,4.16-4.62s4.16,2.01,4.16,4.62-1.53,4.62-4.16,4.62-4.16-2.01-4.16-4.62ZM128.48,406.07c0-2.04-.99-3.59-2.99-3.59s-2.97,1.55-2.97,3.59.99,3.59,2.97,3.59,2.99-1.55,2.99-3.59Z"/>
        <path class="cls-1" d="M132.53,398.25v10.1c0,.73.22,1.14,1.02,1.14h1.12v1h-1.31c-1.55,0-1.97-.76-1.97-2.02v-10.22h1.14Z"/>
        <path class="cls-1" d="M140.88,398.25v10.1c0,.73.22,1.14,1.02,1.14h1.12v1h-1.31c-1.55,0-1.97-.76-1.97-2.02v-10.22h1.14Z"/>
        <path class="cls-1" d="M150.14,409.11c-.75,1.16-1.87,1.58-3.08,1.58-1.94,0-3.06-.99-3.06-2.57s1.1-2.29,3.18-2.72l2.91-.58v-.73c0-1.17-.76-1.65-2.14-1.65-1.22,0-2.45.44-2.48,1.92h-1.14c.05-2.09,1.75-2.92,3.62-2.92,2.19,0,3.25.97,3.25,2.53v6.51h-1.05v-1.38ZM150.09,406.87v-1.09l-2.75.6c-1.38.31-2.18.65-2.18,1.73,0,.92.61,1.58,1.96,1.58,1.53,0,2.97-.88,2.97-2.82Z"/>
        <path class="cls-1" d="M155.07,398.93v2.72h2.46v1h-2.46v5.69c0,.73.22,1.14,1.02,1.14h1.44v1h-1.63c-1.55,0-1.97-.76-1.97-2.02v-5.81h-1.65v-1h1.65v-2.72h1.14Z"/>
        <path class="cls-1" d="M159.03,398.25h1.14v1.68h-1.14v-1.68ZM159.03,401.65h1.12v8.84h-1.12v-8.84Z"/>
        <path class="cls-1" d="M166.05,402.48c-1.04,0-2.67.73-2.67,3.06v4.95h-1.14v-8.84h1.09v1.44c.58-.93,1.53-1.65,2.92-1.65,2.18,0,3.14,1.51,3.14,3.28v5.76h-1.1v-5.64c0-1.48-.77-2.36-2.24-2.36Z"/>
        <path class="cls-1" d="M171.12,406.07c0-2.62,1.55-4.62,4.16-4.62s4.16,2.01,4.16,4.62-1.53,4.62-4.16,4.62-4.16-2.01-4.16-4.62ZM178.27,406.07c0-2.04-.99-3.59-2.99-3.59s-2.97,1.55-2.97,3.59.99,3.59,2.97,3.59,2.99-1.55,2.99-3.59Z"/>
        <path class="cls-1" d="M186.79,409.11c-.75,1.16-1.87,1.58-3.08,1.58-1.94,0-3.06-.99-3.06-2.57s1.1-2.29,3.18-2.72l2.91-.58v-.73c0-1.17-.76-1.65-2.14-1.65-1.22,0-2.45.44-2.48,1.92h-1.14c.05-2.09,1.75-2.92,3.62-2.92,2.19,0,3.25.97,3.25,2.53v6.51h-1.05v-1.38ZM186.74,406.87v-1.09l-2.75.6c-1.38.31-2.18.65-2.18,1.73,0,.92.61,1.58,1.96,1.58,1.53,0,2.97-.88,2.97-2.82Z"/>
        <path class="cls-1" d="M198.98,402.48c-1.04,0-2.48.73-2.48,3.06v4.95h-1.14v-5.64c0-1.48-.82-2.36-2.04-2.36-1.04,0-2.48.73-2.48,3.06v4.95h-1.14v-8.84h1.09v1.41c.49-.92,1.34-1.61,2.74-1.61s2.31.78,2.72,1.87c.51-1.05,1.43-1.87,2.94-1.87,1.92,0,2.97,1.51,2.97,3.28v5.76h-1.14v-5.64c0-1.48-.82-2.36-2.04-2.36Z"/>
        <path class="cls-1" d="M203.88,406.07c0-2.62,1.55-4.62,4.05-4.62s4.05,2.01,4.05,4.62v.39h-6.88c.12,1.84,1.09,3.2,2.84,3.2,1.34,0,2.31-.75,2.72-1.94h1.16c-.51,1.78-1.92,2.97-3.88,2.97-2.5,0-4.05-2.01-4.05-4.62ZM210.76,405.43c-.19-1.72-1.16-2.94-2.84-2.94s-2.63,1.22-2.82,2.94h5.66Z"/>
        <path class="cls-1" d="M213.7,401.65h1.09v1.67c.71-1.38,1.85-1.77,2.96-1.77h.66v1.09h-.71c-1.53,0-2.86.82-2.86,3.08v4.78h-1.14v-8.84Z"/>
        <path class="cls-1" d="M219.89,398.25h1.14v1.68h-1.14v-1.68ZM219.89,401.65h1.12v8.84h-1.12v-8.84Z"/>
        <path class="cls-1" d="M222.76,406.07c0-2.62,1.53-4.62,4.05-4.62,2.07,0,3.4,1.29,3.71,3.14h-1.17c-.27-1.27-1.19-2.11-2.53-2.11-1.87,0-2.87,1.55-2.87,3.59s1,3.59,2.87,3.59c1.38,0,2.31-.88,2.55-2.19h1.17c-.27,1.9-1.72,3.23-3.72,3.23-2.52,0-4.05-2.01-4.05-4.62Z"/>
        <path class="cls-1" d="M237.74,409.11c-.75,1.16-1.87,1.58-3.08,1.58-1.94,0-3.06-.99-3.06-2.57s1.1-2.29,3.18-2.72l2.91-.58v-.73c0-1.17-.76-1.65-2.14-1.65-1.22,0-2.45.44-2.48,1.92h-1.14c.05-2.09,1.75-2.92,3.62-2.92,2.19,0,3.25.97,3.25,2.53v6.51h-1.05v-1.38ZM237.69,406.87v-1.09l-2.75.6c-1.38.31-2.18.65-2.18,1.73,0,.92.61,1.58,1.96,1.58,1.53,0,2.97-.88,2.97-2.82Z"/>
        <path class="cls-1" d="M244.45,402.48c-1.04,0-2.67.73-2.67,3.06v4.95h-1.14v-8.84h1.09v1.44c.58-.93,1.53-1.65,2.92-1.65,2.18,0,3.14,1.51,3.14,3.28v5.76h-1.1v-5.64c0-1.48-.77-2.36-2.24-2.36Z"/>
        <path class="cls-1" d="M249.52,406.07c0-2.62,1.55-4.62,4.16-4.62s4.16,2.01,4.16,4.62-1.53,4.62-4.16,4.62-4.16-2.01-4.16-4.62ZM256.68,406.07c0-2.04-.99-3.59-2.99-3.59s-2.97,1.55-2.97,3.59.99,3.59,2.97,3.59,2.99-1.55,2.99-3.59Z"/>
        <path class="cls-1" d="M262.75,406.07c0-2.62,1.55-4.62,4.05-4.62s4.05,2.01,4.05,4.62v.39h-6.88c.12,1.84,1.09,3.2,2.84,3.2,1.34,0,2.31-.75,2.72-1.94h1.16c-.51,1.78-1.92,2.97-3.88,2.97-2.5,0-4.05-2.01-4.05-4.62ZM269.63,405.43c-.19-1.72-1.16-2.94-2.84-2.94s-2.63,1.22-2.82,2.94h5.66Z"/>
        <path class="cls-1" d="M276.11,398.25h1.14v1.68h-1.14v-1.68ZM276.11,401.65h1.12v8.84h-1.12v-8.84Z"/>
        <path class="cls-1" d="M283.13,402.48c-1.04,0-2.67.73-2.67,3.06v4.95h-1.14v-8.84h1.09v1.44c.58-.93,1.53-1.65,2.92-1.65,2.18,0,3.14,1.51,3.14,3.28v5.76h-1.1v-5.64c0-1.48-.77-2.36-2.24-2.36Z"/>
        <path class="cls-1" d="M290.61,398.93v2.72h2.46v1h-2.46v5.69c0,.73.22,1.14,1.02,1.14h1.44v1h-1.63c-1.55,0-1.97-.76-1.97-2.02v-5.81h-1.65v-1h1.65v-2.72h1.14Z"/>
        <path class="cls-1" d="M294.2,406.07c0-2.62,1.55-4.62,4.05-4.62s4.05,2.01,4.05,4.62v.39h-6.88c.12,1.84,1.09,3.2,2.84,3.2,1.34,0,2.31-.75,2.72-1.94h1.16c-.51,1.78-1.92,2.97-3.88,2.97-2.5,0-4.05-2.01-4.05-4.62ZM301.08,405.43c-.19-1.72-1.16-2.94-2.84-2.94s-2.63,1.22-2.82,2.94h5.66Z"/>
        <path class="cls-1" d="M304.02,401.65h1.09v1.67c.71-1.38,1.85-1.77,2.96-1.77h.66v1.09h-.71c-1.53,0-2.86.82-2.86,3.08v4.78h-1.14v-8.84Z"/>
        <path class="cls-1" d="M314.03,402.48c-1.04,0-2.67.73-2.67,3.06v4.95h-1.14v-8.84h1.09v1.44c.58-.93,1.53-1.65,2.92-1.65,2.18,0,3.14,1.51,3.14,3.28v5.76h-1.1v-5.64c0-1.48-.77-2.36-2.24-2.36Z"/>
        <path class="cls-1" d="M325.1,409.11c-.75,1.16-1.87,1.58-3.08,1.58-1.94,0-3.06-.99-3.06-2.57s1.1-2.29,3.18-2.72l2.91-.58v-.73c0-1.17-.77-1.65-2.14-1.65-1.22,0-2.45.44-2.48,1.92h-1.14c.05-2.09,1.75-2.92,3.62-2.92,2.19,0,3.25.97,3.25,2.53v6.51h-1.05v-1.38ZM325.05,406.87v-1.09l-2.75.6c-1.38.31-2.18.65-2.18,1.73,0,.92.61,1.58,1.96,1.58,1.53,0,2.97-.88,2.97-2.82Z"/>
        <path class="cls-1" d="M327.67,406.07c0-2.62,1.53-4.62,4.05-4.62,2.07,0,3.4,1.29,3.71,3.14h-1.17c-.27-1.27-1.19-2.11-2.53-2.11-1.87,0-2.87,1.55-2.87,3.59s1,3.59,2.87,3.59c1.38,0,2.31-.88,2.55-2.19h1.17c-.27,1.9-1.72,3.23-3.72,3.23-2.52,0-4.05-2.01-4.05-4.62Z"/>
        <path class="cls-1" d="M337.02,398.25h1.14v1.68h-1.14v-1.68ZM337.02,401.65h1.12v8.84h-1.12v-8.84Z"/>
        <path class="cls-1" d="M339.84,406.07c0-2.62,1.55-4.62,4.16-4.62s4.16,2.01,4.16,4.62-1.53,4.62-4.16,4.62-4.16-2.01-4.16-4.62ZM347,406.07c0-2.04-.99-3.59-2.99-3.59s-2.97,1.55-2.97,3.59.99,3.59,2.97,3.59,2.99-1.55,2.99-3.59Z"/>
        <path class="cls-1" d="M353.71,402.48c-1.04,0-2.67.73-2.67,3.06v4.95h-1.14v-8.84h1.09v1.44c.58-.93,1.53-1.65,2.92-1.65,2.18,0,3.14,1.51,3.14,3.28v5.76h-1.1v-5.64c0-1.48-.77-2.36-2.24-2.36Z"/>
        <path class="cls-1" d="M364.78,409.11c-.75,1.16-1.87,1.58-3.08,1.58-1.94,0-3.06-.99-3.06-2.57s1.1-2.29,3.18-2.72l2.91-.58v-.73c0-1.17-.76-1.65-2.14-1.65-1.22,0-2.45.44-2.48,1.92h-1.14c.05-2.09,1.75-2.92,3.62-2.92,2.19,0,3.25.97,3.25,2.53v6.51h-1.05v-1.38ZM364.73,406.87v-1.09l-2.75.6c-1.38.31-2.18.65-2.18,1.73,0,.92.61,1.58,1.96,1.58,1.53,0,2.97-.88,2.97-2.82Z"/>
        <path class="cls-1" d="M368.83,398.25v10.1c0,.73.22,1.14,1.02,1.14h1.12v1h-1.31c-1.55,0-1.97-.76-1.97-2.02v-10.22h1.14Z"/>
        <path class="cls-1" d="M372.24,408.54h1.34v1.96h-1.34v-1.96Z"/>
      </g>
      <g>
        <path class="cls-1" d="M162.71,216.1h1.04l-2.95,8.11h-1.04l2.95-8.11Z"/>
        <path class="cls-1" d="M170.31,219.17c-.43,0-1.44.23-1.44,1.78v3.27h-1.07v-3.71c0-.78-.39-1.34-1.15-1.34-.43,0-1.45.23-1.45,1.78v3.27h-1.06v-5.86h1.01v.83c.34-.55.89-.97,1.75-.97s1.46.47,1.76,1.12c.36-.62.97-1.12,1.9-1.12,1.33,0,1.97,1.06,1.97,2.18v3.81h-1.07v-3.71c0-.78-.39-1.34-1.15-1.34Z"/>
        <path class="cls-1" d="M173.16,221.28c0-1.76,1.08-3.06,2.87-3.06s2.87,1.31,2.87,3.06-1.08,3.06-2.87,3.06-2.87-1.31-2.87-3.06ZM177.8,221.28c0-1.24-.57-2.13-1.77-2.13s-1.77.89-1.77,2.13.57,2.13,1.77,2.13,1.77-.89,1.77-2.13Z"/>
        <path class="cls-1" d="M182.18,219.17c-.44,0-1.59.23-1.59,1.78v3.27h-1.06v-5.86h1.01v.84c.39-.55,1.01-.98,1.88-.98,1.45,0,2.08,1.06,2.08,2.18v3.81h-1.06v-3.71c0-.78-.39-1.34-1.27-1.34Z"/>
        <path class="cls-1" d="M187.07,216.55v1.8h1.55v.9h-1.55v3.46c0,.42.17.6.6.6h.96v.9h-1.18c-1.01,0-1.44-.41-1.44-1.37v-3.58h-1.07v-.9h1.07v-1.8h1.07Z"/>
        <path class="cls-1" d="M189.16,216.1h1.06v3.04c.39-.53,1-.92,1.84-.92,1.45,0,2.08,1.06,2.08,2.18v3.81h-1.06v-3.71c0-.78-.39-1.34-1.27-1.34-.44,0-1.59.23-1.59,1.78v3.27h-1.06v-8.11Z"/>
      </g>
      <g>
        <path class="cls-1" d="M71.87,232.25c-9.5-.98-16.32-6.23-16.58-16.52h7.34c.2,6.62,4.19,9.37,9.24,10.16v-15.66c-10.09-2.16-15.14-5.77-15.14-13.89,0-7.28,6.23-12.12,15.14-12.65v-6.75h4.92v6.81c10.68,1.12,15.27,7.41,15.53,15.47h-7.21c-.33-5.18-2.82-8.32-8.32-9.11v14.22c13.24,2.75,16.58,7.08,16.58,14.03,0,8.26-6.75,13.44-16.58,13.96v6.75h-4.92v-6.81ZM71.87,203.29v-13.37c-4.59.46-7.6,2.75-7.6,6.29,0,3.34,1.05,5.31,7.6,7.08ZM85.83,218.55c0-3.41-1.64-5.31-9.04-7.21v14.75c5.37-.39,9.04-2.88,9.04-7.54Z"/>
        <path class="cls-1" d="M98.08,208c0-14.16,4.59-24.38,17.3-24.38s17.24,10.22,17.24,24.38-4.59,24.38-17.24,24.38-17.3-10.22-17.3-24.38ZM125.02,208c0-10.88-2.29-18.02-9.63-18.02s-9.7,7.14-9.7,18.02,2.29,18.02,9.7,18.02,9.63-7.14,9.63-18.02Z"/>
      </g>
      <rect class="cls-2" x="141.15" y="210.3" width="72.12" height="20.71" rx="10.35" ry="10.35"/>
      <g>
        <path class="cls-1" d="M68.58,366.87v-6.73c0-.65.52-1.12,1.12-1.12s1.13.47,1.13,1.12v6.74c0,1.83-1.48,3.37-3.32,3.36h-13.63c-1.75,0-3.25-1.51-3.25-3.26v-13.69c0-1.79,1.54-3.26,3.31-3.26h11.32c.62,0,1.07.52,1.09,1.08s-.42,1.15-1.05,1.15h-11.3c-.64,0-1.13.5-1.13,1.14v13.47c0,.64.49,1.13,1.13,1.13h13.41c.66,0,1.18-.45,1.18-1.13Z"/>
        <path class="cls-1" d="M56.55,359.8c-.47-.47-.42-1.19.03-1.61s1.12-.41,1.57.03l2.57,2.56,9.35-9.35c.44-.44,1.16-.35,1.54.03.44.45.45,1.15,0,1.6l-10.1,10.1c-.46.46-1.16.42-1.6-.02l-3.35-3.35Z"/>
      </g>
      <g>
        <path class="cls-1" d="M68.58,411.89v-6.73c0-.65.52-1.12,1.12-1.12s1.13.47,1.13,1.12v6.74c0,1.83-1.48,3.37-3.32,3.36h-13.63c-1.75,0-3.25-1.51-3.25-3.26v-13.69c0-1.79,1.54-3.26,3.31-3.26h11.32c.62,0,1.07.52,1.09,1.08s-.42,1.15-1.05,1.15h-11.3c-.64,0-1.13.5-1.13,1.14v13.47c0,.64.49,1.13,1.13,1.13h13.41c.66,0,1.18-.45,1.18-1.13Z"/>
        <path class="cls-1" d="M56.55,404.82c-.47-.47-.42-1.19.03-1.61s1.12-.41,1.57.03l2.57,2.56,9.35-9.35c.44-.44,1.16-.35,1.54.03.44.45.45,1.15,0,1.6l-10.1,10.1c-.46.46-1.16.42-1.6-.02l-3.35-3.35Z"/>
      </g>
      <g>
        <path class="cls-1" d="M94.82,451.92h-5.95l-1.43,3.59h-1.26l5.01-12.24h1.29l5.01,12.24h-1.26l-1.43-3.59ZM94.38,450.83l-2.53-6.34-2.53,6.34h5.07Z"/>
        <path class="cls-1" d="M98.51,451.09c0-2.62,1.53-4.62,4.05-4.62,2.07,0,3.4,1.29,3.71,3.14h-1.17c-.27-1.27-1.19-2.11-2.53-2.11-1.87,0-2.87,1.55-2.87,3.59s1,3.59,2.87,3.59c1.38,0,2.31-.88,2.55-2.19h1.17c-.27,1.9-1.72,3.23-3.72,3.23-2.52,0-4.05-2.01-4.05-4.62Z"/>
        <path class="cls-1" d="M109.9,443.95v2.72h2.46v1h-2.46v5.69c0,.73.22,1.14,1.02,1.14h1.44v1h-1.63c-1.55,0-1.97-.76-1.97-2.02v-5.81h-1.65v-1h1.65v-2.72h1.14Z"/>
        <path class="cls-1" d="M117.23,454.68c1.04,0,2.67-.73,2.67-3.06v-4.95h1.14v8.84h-1.09v-1.45c-.58.94-1.53,1.65-2.92,1.65-2.18,0-3.15-1.51-3.15-3.28v-5.76h1.1v5.64c0,1.48.77,2.36,2.24,2.36Z"/>
        <path class="cls-1" d="M128.75,454.13c-.75,1.16-1.87,1.58-3.08,1.58-1.94,0-3.06-.99-3.06-2.57s1.1-2.29,3.18-2.72l2.91-.58v-.73c0-1.17-.77-1.65-2.14-1.65-1.22,0-2.45.44-2.48,1.92h-1.14c.05-2.09,1.75-2.92,3.62-2.92,2.19,0,3.25.97,3.25,2.53v6.51h-1.05v-1.38ZM128.7,451.89v-1.09l-2.75.6c-1.38.31-2.18.65-2.18,1.73,0,.92.61,1.58,1.96,1.58,1.53,0,2.97-.88,2.97-2.82Z"/>
        <path class="cls-1" d="M132.8,443.27v10.1c0,.73.22,1.14,1.02,1.14h1.12v1h-1.31c-1.55,0-1.97-.76-1.97-2.02v-10.22h1.14Z"/>
        <path class="cls-1" d="M136.44,443.27h1.14v1.68h-1.14v-1.68ZM136.44,446.67h1.12v8.84h-1.12v-8.84Z"/>
        <path class="cls-1" d="M139.23,454.63l5.52-6.95h-5.35v-1h6.73v.88l-5.52,6.95h5.69v1h-7.07v-.88Z"/>
        <path class="cls-1" d="M153.59,454.13c-.75,1.16-1.87,1.58-3.08,1.58-1.94,0-3.06-.99-3.06-2.57s1.1-2.29,3.18-2.72l2.91-.58v-.73c0-1.17-.76-1.65-2.14-1.65-1.22,0-2.45.44-2.48,1.92h-1.14c.05-2.09,1.75-2.92,3.62-2.92,2.19,0,3.25.97,3.25,2.53v6.51h-1.05v-1.38ZM153.54,451.89v-1.09l-2.75.6c-1.38.31-2.18.65-2.18,1.73,0,.92.61,1.58,1.96,1.58,1.53,0,2.97-.88,2.97-2.82Z"/>
        <path class="cls-1" d="M156.16,451.09c0-2.62,1.53-4.62,4.05-4.62,2.07,0,3.4,1.29,3.71,3.14h-1.17c-.27-1.27-1.19-2.11-2.53-2.11-1.87,0-2.87,1.55-2.87,3.59s1,3.59,2.87,3.59c1.38,0,2.31-.88,2.55-2.19h1.17c-.27,1.9-1.72,3.23-3.72,3.23-2.52,0-4.05-2.01-4.05-4.62Z"/>
        <path class="cls-1" d="M165.51,443.27h1.14v1.68h-1.14v-1.68ZM165.51,446.67h1.12v8.84h-1.12v-8.84Z"/>
        <path class="cls-1" d="M168.33,451.09c0-2.62,1.55-4.62,4.16-4.62s4.16,2.01,4.16,4.62-1.53,4.62-4.16,4.62-4.16-2.01-4.16-4.62ZM175.49,451.09c0-2.04-.99-3.59-2.99-3.59s-2.97,1.55-2.97,3.59.99,3.59,2.97,3.59,2.99-1.55,2.99-3.59ZM173.75,443.07h1.5l-2.24,2.48h-1l1.75-2.48Z"/>
        <path class="cls-1" d="M182.2,447.5c-1.04,0-2.67.73-2.67,3.06v4.95h-1.14v-8.84h1.09v1.44c.58-.93,1.53-1.65,2.92-1.65,2.18,0,3.14,1.51,3.14,3.28v5.76h-1.1v-5.64c0-1.48-.77-2.36-2.24-2.36Z"/>
        <path class="cls-1" d="M197.98,455.51v-1.58c-.61,1.11-1.67,1.79-3.11,1.79-2.62,0-4.05-2.01-4.05-4.62s1.43-4.62,4.05-4.62c1.41,0,2.43.65,3.06,1.7v-4.89h1.14v12.24h-1.09ZM197.96,451.09c0-2.04-.99-3.59-2.97-3.59s-2.99,1.55-2.99,3.59,1,3.59,2.99,3.59,2.97-1.55,2.97-3.59Z"/>
        <path class="cls-1" d="M201.16,443.27h1.14v1.68h-1.14v-1.68ZM201.16,446.67h1.12v8.84h-1.12v-8.84Z"/>
        <path class="cls-1" d="M209.98,454.13c-.75,1.16-1.87,1.58-3.08,1.58-1.94,0-3.06-.99-3.06-2.57s1.1-2.29,3.18-2.72l2.91-.58v-.73c0-1.17-.76-1.65-2.14-1.65-1.22,0-2.45.44-2.48,1.92h-1.14c.05-2.09,1.75-2.92,3.62-2.92,2.19,0,3.25.97,3.25,2.53v6.51h-1.05v-1.38ZM209.93,451.89v-1.09l-2.75.6c-1.38.31-2.18.65-2.18,1.73,0,.92.61,1.58,1.96,1.58,1.53,0,2.97-.88,2.97-2.82Z"/>
        <path class="cls-1" d="M212.89,446.67h1.09v1.67c.71-1.38,1.85-1.77,2.96-1.77h.66v1.09h-.71c-1.53,0-2.86.82-2.86,3.08v4.78h-1.14v-8.84Z"/>
        <path class="cls-1" d="M219.07,443.27h1.14v1.68h-1.14v-1.68ZM219.07,446.67h1.12v8.84h-1.12v-8.84Z"/>
        <path class="cls-1" d="M227.9,454.13c-.75,1.16-1.87,1.58-3.08,1.58-1.94,0-3.06-.99-3.06-2.57s1.1-2.29,3.18-2.72l2.91-.58v-.73c0-1.17-.77-1.65-2.14-1.65-1.22,0-2.45.44-2.48,1.92h-1.14c.05-2.09,1.75-2.92,3.62-2.92,2.19,0,3.25.97,3.25,2.53v6.51h-1.05v-1.38ZM227.85,451.89v-1.09l-2.75.6c-1.38.31-2.18.65-2.18,1.73,0,.92.61,1.58,1.96,1.58,1.53,0,2.97-.88,2.97-2.82Z"/>
        <path class="cls-1" d="M230.57,453.55h1.34v1.96h-1.34v-1.96Z"/>
      </g>
      <g>
        <path class="cls-1" d="M95.4,539.26h-7.17v5.78h-1.17v-12.24h1.17v5.35h7.17v-5.35h1.19v12.24h-1.19v-5.78Z"/>
        <path class="cls-1" d="M98.78,532.8h1.14v1.68h-1.14v-1.68ZM98.78,536.2h1.12v8.84h-1.12v-8.84Z"/>
        <path class="cls-1" d="M101.4,542.15h1.16c.12,1.44.99,2.11,2.57,2.11,1.38,0,2.33-.51,2.33-1.55,0-.88-.34-1.29-2.43-1.63-2.63-.42-3.35-1.22-3.35-2.63,0-1.51,1.36-2.45,3.21-2.45,2.23,0,3.5,1.07,3.54,2.92h-1.14c-.05-1.41-.95-1.94-2.4-1.94-1.16,0-2.07.51-2.07,1.45s.51,1.29,2.52,1.63c2.58.43,3.28,1.17,3.28,2.58,0,1.73-1.56,2.6-3.48,2.6-2.18,0-3.62-1.05-3.72-3.09Z"/>
        <path class="cls-1" d="M112.15,533.48v2.72h2.46v1h-2.46v5.7c0,.73.22,1.14,1.02,1.14h1.44v1h-1.63c-1.55,0-1.97-.76-1.97-2.02v-5.81h-1.65v-1h1.65v-2.72h1.14Z"/>
        <path class="cls-1" d="M115.73,540.62c0-2.62,1.55-4.62,4.16-4.62s4.16,2.01,4.16,4.62-1.53,4.62-4.16,4.62-4.16-2.01-4.16-4.62ZM122.89,540.62c0-2.04-.99-3.59-2.99-3.59s-2.97,1.55-2.97,3.59.99,3.59,2.97,3.59,2.99-1.55,2.99-3.59Z"/>
        <path class="cls-1" d="M125.8,536.2h1.09v1.67c.71-1.38,1.85-1.77,2.96-1.77h.66v1.09h-.71c-1.53,0-2.86.82-2.86,3.08v4.78h-1.14v-8.84Z"/>
        <path class="cls-1" d="M131.98,532.8h1.14v1.68h-1.14v-1.68ZM131.98,536.2h1.12v8.84h-1.12v-8.84Z"/>
        <path class="cls-1" d="M140.81,543.66c-.75,1.16-1.87,1.58-3.08,1.58-1.94,0-3.06-.99-3.06-2.57s1.1-2.29,3.18-2.72l2.91-.58v-.73c0-1.17-.76-1.65-2.14-1.65-1.22,0-2.45.44-2.48,1.92h-1.14c.05-2.09,1.75-2.92,3.62-2.92,2.19,0,3.25.97,3.25,2.53v6.51h-1.05v-1.38ZM140.76,541.41v-1.09l-2.75.6c-1.38.31-2.18.65-2.18,1.73,0,.92.61,1.58,1.96,1.58,1.53,0,2.97-.88,2.97-2.82Z"/>
        <path class="cls-1" d="M144.85,532.8v10.1c0,.73.22,1.14,1.02,1.14h1.12v1h-1.31c-1.55,0-1.97-.76-1.97-2.02v-10.22h1.14Z"/>
        <path class="cls-1" d="M153.2,532.8v10.1c0,.73.22,1.14,1.02,1.14h1.12v1h-1.31c-1.55,0-1.97-.76-1.97-2.02v-10.22h1.14Z"/>
        <path class="cls-1" d="M156.84,532.8h1.14v1.68h-1.14v-1.68ZM156.84,536.2h1.12v8.84h-1.12v-8.84Z"/>
        <path class="cls-1" d="M169.33,537.03c-1.04,0-2.48.73-2.48,3.06v4.95h-1.14v-5.64c0-1.48-.82-2.36-2.04-2.36-1.04,0-2.48.73-2.48,3.06v4.95h-1.14v-8.84h1.09v1.41c.49-.92,1.34-1.62,2.74-1.62s2.31.78,2.72,1.87c.51-1.05,1.43-1.87,2.94-1.87,1.92,0,2.97,1.51,2.97,3.28v5.76h-1.14v-5.64c0-1.48-.82-2.36-2.04-2.36Z"/>
        <path class="cls-1" d="M174.6,532.8h1.14v1.68h-1.14v-1.68ZM174.6,536.2h1.12v8.84h-1.12v-8.84Z"/>
        <path class="cls-1" d="M179.84,533.48v2.72h2.46v1h-2.46v5.7c0,.73.22,1.14,1.02,1.14h1.44v1h-1.63c-1.55,0-1.97-.76-1.97-2.02v-5.81h-1.65v-1h1.65v-2.72h1.14Z"/>
        <path class="cls-1" d="M189.43,543.66c-.75,1.16-1.87,1.58-3.08,1.58-1.94,0-3.06-.99-3.06-2.57s1.1-2.29,3.18-2.72l2.91-.58v-.73c0-1.17-.76-1.65-2.14-1.65-1.22,0-2.45.44-2.48,1.92h-1.14c.05-2.09,1.75-2.92,3.62-2.92,2.19,0,3.25.97,3.25,2.53v6.51h-1.05v-1.38ZM189.38,541.41v-1.09l-2.75.6c-1.38.31-2.18.65-2.18,1.73,0,.92.61,1.58,1.96,1.58,1.53,0,2.97-.88,2.97-2.82Z"/>
        <path class="cls-1" d="M199.1,545.04v-1.58c-.61,1.11-1.67,1.79-3.11,1.79-2.62,0-4.05-2.01-4.05-4.62s1.43-4.62,4.05-4.62c1.41,0,2.43.65,3.06,1.7v-4.89h1.14v12.24h-1.09ZM199.08,540.62c0-2.04-.99-3.59-2.97-3.59s-2.99,1.55-2.99,3.59,1,3.59,2.99,3.59,2.97-1.55,2.97-3.59Z"/>
        <path class="cls-1" d="M201.9,540.62c0-2.62,1.55-4.62,4.16-4.62s4.16,2.01,4.16,4.62-1.53,4.62-4.16,4.62-4.16-2.01-4.16-4.62ZM209.06,540.62c0-2.04-.99-3.59-2.99-3.59s-2.97,1.55-2.97,3.59.99,3.59,2.97,3.59,2.99-1.55,2.99-3.59Z"/>
        <path class="cls-1" d="M211.73,543.08h1.34v1.96h-1.34v-1.96Z"/>
      </g>
      <g>
        <path class="cls-1" d="M68.58,456.91v-6.73c0-.65.52-1.12,1.12-1.12s1.13.47,1.13,1.12v6.74c0,1.83-1.48,3.37-3.32,3.36h-13.63c-1.75,0-3.25-1.51-3.25-3.26v-13.69c0-1.79,1.54-3.26,3.31-3.26h11.32c.62,0,1.07.52,1.09,1.08s-.42,1.15-1.05,1.15h-11.3c-.64,0-1.13.5-1.13,1.14v13.47c0,.64.49,1.13,1.13,1.13h13.41c.66,0,1.18-.45,1.18-1.13Z"/>
        <path class="cls-1" d="M56.55,449.84c-.47-.47-.42-1.19.03-1.61s1.12-.41,1.57.03l2.57,2.56,9.35-9.35c.44-.44,1.16-.35,1.54.03.44.45.45,1.15,0,1.6l-10.1,10.1c-.46.46-1.16.42-1.6-.02l-3.35-3.35Z"/>
      </g>
      <g>
        <path class="cls-1" d="M87.05,488.3h4.81c2.75,0,4.11,1.65,4.11,3.67s-1.36,3.67-4.11,3.67h-3.64v4.9h-1.17v-12.24ZM91.86,494.57c1.96,0,2.89-1.12,2.89-2.6s-.93-2.6-2.89-2.6h-3.64v5.2h3.64Z"/>
        <path class="cls-1" d="M97.75,488.3h1.14v1.68h-1.14v-1.68ZM97.75,491.7h1.12v8.84h-1.12v-8.84Z"/>
        <path class="cls-1" d="M100.62,496.12c0-2.62,1.53-4.62,4.05-4.62,2.07,0,3.4,1.29,3.71,3.14h-1.17c-.27-1.27-1.19-2.11-2.53-2.11-1.87,0-2.87,1.55-2.87,3.59s1,3.59,2.87,3.59c1.38,0,2.31-.88,2.55-2.19h1.17c-.27,1.9-1.72,3.23-3.72,3.23-2.52,0-4.05-2.01-4.05-4.62Z"/>
        <path class="cls-1" d="M109.99,488.3h1.17v7.85l4.47-4.45h1.5l-3.5,3.45,3.77,5.39h-1.38l-3.21-4.59-1.65,1.63v2.96h-1.17v-12.24Z"/>
        <path class="cls-1" d="M118.01,497.65h1.16c.12,1.44.99,2.11,2.57,2.11,1.38,0,2.33-.51,2.33-1.55,0-.88-.34-1.29-2.43-1.63-2.63-.42-3.35-1.22-3.35-2.63,0-1.51,1.36-2.45,3.21-2.45,2.23,0,3.5,1.07,3.54,2.92h-1.14c-.05-1.41-.95-1.94-2.4-1.94-1.16,0-2.07.51-2.07,1.45s.51,1.29,2.52,1.63c2.58.42,3.28,1.17,3.28,2.58,0,1.73-1.56,2.6-3.48,2.6-2.18,0-3.62-1.05-3.72-3.09Z"/>
        <path class="cls-1" d="M137.05,500.54v-1.58c-.61,1.11-1.67,1.79-3.11,1.79-2.62,0-4.05-2.01-4.05-4.62s1.43-4.62,4.05-4.62c1.41,0,2.43.65,3.06,1.7v-4.89h1.14v12.24h-1.09ZM137.03,496.12c0-2.04-.99-3.59-2.97-3.59s-2.99,1.55-2.99,3.59,1,3.59,2.99,3.59,2.97-1.55,2.97-3.59Z"/>
        <path class="cls-1" d="M139.86,496.12c0-2.62,1.55-4.62,4.05-4.62s4.05,2.01,4.05,4.62v.39h-6.88c.12,1.84,1.09,3.2,2.84,3.2,1.34,0,2.31-.75,2.72-1.94h1.16c-.51,1.78-1.92,2.97-3.88,2.97-2.5,0-4.05-2.01-4.05-4.62ZM146.74,495.47c-.19-1.72-1.16-2.94-2.84-2.94s-2.63,1.22-2.82,2.94h5.66Z"/>
        <path class="cls-1" d="M153.23,488.3h1.14v4.89c.63-1.05,1.65-1.7,3.06-1.7,2.62,0,4.05,2.01,4.05,4.62s-1.43,4.62-4.05,4.62c-1.44,0-2.5-.68-3.11-1.79v1.58h-1.09v-12.24ZM160.31,496.12c0-2.04-1-3.59-2.99-3.59s-2.97,1.55-2.97,3.59.99,3.59,2.97,3.59,2.99-1.55,2.99-3.59Z"/>
        <path class="cls-1" d="M168.81,499.16c-.75,1.16-1.87,1.58-3.08,1.58-1.94,0-3.06-.99-3.06-2.57s1.1-2.29,3.18-2.72l2.91-.58v-.73c0-1.17-.76-1.65-2.14-1.65-1.22,0-2.45.44-2.48,1.92h-1.14c.05-2.09,1.75-2.92,3.62-2.92,2.19,0,3.25.97,3.25,2.53v6.51h-1.05v-1.38ZM168.75,496.91v-1.09l-2.75.6c-1.38.31-2.18.65-2.18,1.73,0,.92.61,1.58,1.96,1.58,1.53,0,2.97-.88,2.97-2.82Z"/>
        <path class="cls-1" d="M170.95,503.93h-1.31v-1h1.12c.8,0,1.02-.41,1.02-1.14v-10.1h1.14v10.22c0,1.26-.42,2.02-1.97,2.02ZM171.8,488.3h1.14v1.68h-1.14v-1.68Z"/>
        <path class="cls-1" d="M174.62,496.12c0-2.62,1.55-4.62,4.16-4.62s4.16,2.01,4.16,4.62-1.53,4.62-4.16,4.62-4.16-2.01-4.16-4.62ZM181.78,496.12c0-2.04-.99-3.59-2.99-3.59s-2.97,1.55-2.97,3.59.99,3.59,2.97,3.59,2.99-1.55,2.99-3.59Z"/>
        <path class="cls-1" d="M188.24,491.7h1.09v1.67c.71-1.38,1.85-1.77,2.96-1.77h.66v1.09h-.71c-1.53,0-2.86.82-2.86,3.08v4.78h-1.14v-8.84Z"/>
        <path class="cls-1" d="M194.42,488.3h1.14v1.68h-1.14v-1.68ZM194.42,491.7h1.12v8.84h-1.12v-8.84Z"/>
        <path class="cls-1" d="M197.25,496.12c0-2.62,1.55-4.62,4.05-4.62s4.05,2.01,4.05,4.62v.39h-6.88c.12,1.84,1.09,3.2,2.84,3.2,1.34,0,2.31-.75,2.72-1.94h1.16c-.51,1.78-1.92,2.97-3.88,2.97-2.5,0-4.05-2.01-4.05-4.62ZM204.13,495.47c-.19-1.72-1.16-2.94-2.84-2.94s-2.63,1.22-2.82,2.94h5.66Z"/>
        <path class="cls-1" d="M206.48,497.65h1.16c.12,1.44.99,2.11,2.57,2.11,1.38,0,2.33-.51,2.33-1.55,0-.88-.34-1.29-2.43-1.63-2.63-.42-3.35-1.22-3.35-2.63,0-1.51,1.36-2.45,3.21-2.45,2.23,0,3.5,1.07,3.54,2.92h-1.14c-.05-1.41-.95-1.94-2.4-1.94-1.16,0-2.07.51-2.07,1.45s.51,1.29,2.52,1.63c2.58.42,3.28,1.17,3.28,2.58,0,1.73-1.56,2.6-3.48,2.6-2.18,0-3.62-1.05-3.72-3.09Z"/>
        <path class="cls-1" d="M215.3,501.32h1.12c.2,1.29,1.1,1.84,2.63,1.84s2.87-.73,2.87-2.84v-1.31c-.63,1.07-1.67,1.73-3.08,1.73-2.62,0-4.05-2.01-4.05-4.62s1.43-4.62,4.05-4.62c1.46,0,2.52.7,3.13,1.82v-1.61h1.07v8.62c0,2.52-1.6,3.82-3.99,3.82s-3.55-1.07-3.76-2.82ZM221.95,496.12c0-2.04-.99-3.59-2.97-3.59s-2.99,1.55-2.99,3.59,1,3.59,2.99,3.59,2.97-1.55,2.97-3.59Z"/>
        <path class="cls-1" d="M224.77,496.12c0-2.62,1.55-4.62,4.16-4.62s4.16,2.01,4.16,4.62-1.53,4.62-4.16,4.62-4.16-2.01-4.16-4.62ZM231.93,496.12c0-2.04-.99-3.59-2.99-3.59s-2.97,1.55-2.97,3.59.99,3.59,2.97,3.59,2.99-1.55,2.99-3.59Z"/>
        <path class="cls-1" d="M234.59,498.58h1.34v1.96h-1.34v-1.96Z"/>
      </g>
      <g>
        <path class="cls-1" d="M68.58,501.93v-6.73c0-.65.52-1.12,1.12-1.12s1.13.47,1.13,1.12v6.74c0,1.83-1.48,3.37-3.32,3.36h-13.63c-1.75,0-3.25-1.51-3.25-3.26v-13.69c0-1.79,1.54-3.26,3.31-3.26h11.32c.62,0,1.07.52,1.09,1.08s-.42,1.15-1.05,1.15h-11.3c-.64,0-1.13.5-1.13,1.14v13.47c0,.64.49,1.13,1.13,1.13h13.41c.66,0,1.18-.45,1.18-1.13Z"/>
        <path class="cls-1" d="M56.55,494.87c-.47-.47-.42-1.19.03-1.61s1.12-.41,1.57.03l2.57,2.56,9.35-9.35c.44-.44,1.16-.35,1.54.03.44.45.45,1.15,0,1.6l-10.1,10.1c-.46.46-1.16.42-1.6-.02l-3.35-3.35Z"/>
      </g>
      <g>
        <g>
          <line class="cls-4" x1="69.56" y1="531.36" x2="51.88" y2="549.05"/>
          <path class="cls-4" d="M51.88,550.31c-.32,0-.65-.12-.89-.37-.49-.49-.49-1.29,0-1.78l17.68-17.68c.49-.49,1.29-.49,1.78,0,.49.49.49,1.29,0,1.78l-17.68,17.68c-.25.25-.57.37-.89.37Z"/>
        </g>
        <g>
          <line class="cls-4" x1="51.88" y1="531.36" x2="69.56" y2="549.05"/>
          <path class="cls-4" d="M69.56,550.31c-.32,0-.65-.12-.89-.37l-17.68-17.68c-.49-.49-.49-1.29,0-1.78.49-.49,1.29-.49,1.78,0l17.68,17.68c.49.49.49,1.29,0,1.78-.25.25-.57.37-.89.37Z"/>
        </g>
      </g>
      <g>
        <path class="cls-1" d="M86.46,585.99h1.22c.1,2.38,1.75,3.2,3.76,3.2s3.26-.88,3.26-2.43c0-1.21-.6-1.87-3.62-2.48-2.92-.58-4.2-1.46-4.2-3.54,0-1.89,1.72-3.13,4.11-3.13,3.2,0,4.61,1.73,4.66,3.96h-1.21c-.1-1.9-1.22-2.89-3.45-2.89-1.77,0-2.89.83-2.89,2.06s.46,1.89,3.45,2.48c3.59.73,4.37,1.82,4.37,3.54,0,2.09-1.75,3.5-4.49,3.5s-4.84-1.24-4.98-4.27Z"/>
        <path class="cls-1" d="M97.46,577.81h1.14v1.68h-1.14v-1.68ZM97.46,581.21h1.12v8.84h-1.12v-8.84Z"/>
        <path class="cls-1" d="M104.48,582.05c-1.04,0-2.67.73-2.67,3.06v4.95h-1.14v-8.84h1.09v1.44c.58-.93,1.53-1.65,2.92-1.65,2.18,0,3.14,1.51,3.14,3.28v5.76h-1.1v-5.64c0-1.48-.77-2.36-2.24-2.36Z"/>
        <path class="cls-1" d="M112.89,587.16h1.16c.12,1.44.99,2.11,2.57,2.11,1.38,0,2.33-.51,2.33-1.55,0-.88-.34-1.29-2.43-1.63-2.63-.42-3.35-1.22-3.35-2.63,0-1.51,1.36-2.45,3.21-2.45,2.23,0,3.5,1.07,3.54,2.92h-1.14c-.05-1.41-.95-1.94-2.4-1.94-1.16,0-2.07.51-2.07,1.45s.51,1.29,2.52,1.63c2.58.42,3.28,1.17,3.28,2.58,0,1.73-1.56,2.6-3.48,2.6-2.18,0-3.62-1.05-3.72-3.09Z"/>
        <path class="cls-1" d="M121.22,585.63c0-2.62,1.55-4.62,4.16-4.62s4.16,2.01,4.16,4.62-1.53,4.62-4.16,4.62-4.16-2.01-4.16-4.62ZM128.38,585.63c0-2.04-.99-3.59-2.99-3.59s-2.97,1.55-2.97,3.59.99,3.59,2.97,3.59,2.99-1.55,2.99-3.59Z"/>
        <path class="cls-1" d="M132.38,581.21v1.58c.61-1.11,1.67-1.79,3.11-1.79,2.62,0,4.05,2.01,4.05,4.62s-1.43,4.62-4.05,4.62c-1.41,0-2.43-.65-3.06-1.7v4.9h-1.14v-12.24h1.09ZM132.39,585.63c0,2.04.99,3.59,2.97,3.59s2.99-1.55,2.99-3.59-1-3.59-2.99-3.59-2.97,1.55-2.97,3.59Z"/>
        <path class="cls-1" d="M140.86,585.63c0-2.62,1.55-4.62,4.16-4.62s4.16,2.01,4.16,4.62-1.53,4.62-4.16,4.62-4.16-2.01-4.16-4.62ZM148.02,585.63c0-2.04-.99-3.59-2.99-3.59s-2.97,1.55-2.97,3.59.99,3.59,2.97,3.59,2.99-1.55,2.99-3.59Z"/>
        <path class="cls-1" d="M150.92,581.21h1.09v1.67c.71-1.38,1.85-1.77,2.96-1.77h.66v1.09h-.71c-1.53,0-2.86.82-2.86,3.08v4.78h-1.14v-8.84Z"/>
        <path class="cls-1" d="M159.15,578.49v2.72h2.46v1h-2.46v5.69c0,.73.22,1.14,1.02,1.14h1.44v1h-1.63c-1.55,0-1.97-.76-1.97-2.02v-5.81h-1.65v-1h1.65v-2.72h1.14Z"/>
        <path class="cls-1" d="M162.74,585.63c0-2.62,1.55-4.62,4.05-4.62s4.05,2.01,4.05,4.62v.39h-6.88c.12,1.84,1.09,3.2,2.84,3.2,1.34,0,2.31-.75,2.72-1.94h1.16c-.51,1.78-1.92,2.97-3.88,2.97-2.5,0-4.05-2.01-4.05-4.62ZM169.62,584.99c-.19-1.72-1.16-2.94-2.84-2.94s-2.63,1.22-2.82,2.94h5.66Z"/>
        <path class="cls-1" d="M177.2,581.21v1.58c.61-1.11,1.67-1.79,3.11-1.79,2.62,0,4.05,2.01,4.05,4.62s-1.43,4.62-4.05,4.62c-1.41,0-2.43-.65-3.06-1.7v4.9h-1.14v-12.24h1.09ZM177.22,585.63c0,2.04.99,3.59,2.97,3.59s2.99-1.55,2.99-3.59-1-3.59-2.99-3.59-2.97,1.55-2.97,3.59Z"/>
        <path class="cls-1" d="M185.69,585.63c0-2.62,1.55-4.62,4.05-4.62s4.05,2.01,4.05,4.62v.39h-6.88c.12,1.84,1.09,3.2,2.84,3.2,1.34,0,2.31-.75,2.72-1.94h1.16c-.51,1.78-1.92,2.97-3.88,2.97-2.5,0-4.05-2.01-4.05-4.62ZM192.57,584.99c-.19-1.72-1.16-2.94-2.84-2.94s-2.63,1.22-2.82,2.94h5.66Z"/>
        <path class="cls-1" d="M195.51,581.21h1.09v1.67c.71-1.38,1.85-1.77,2.96-1.77h.66v1.09h-.71c-1.53,0-2.86.82-2.86,3.08v4.78h-1.14v-8.84Z"/>
        <path class="cls-1" d="M201.12,587.16h1.16c.12,1.44.99,2.11,2.57,2.11,1.38,0,2.33-.51,2.33-1.55,0-.88-.34-1.29-2.43-1.63-2.63-.42-3.35-1.22-3.35-2.63,0-1.51,1.36-2.45,3.21-2.45,2.23,0,3.5,1.07,3.54,2.92h-1.14c-.05-1.41-.95-1.94-2.4-1.94-1.16,0-2.07.51-2.07,1.45s.51,1.29,2.52,1.63c2.58.42,3.28,1.17,3.28,2.58,0,1.73-1.56,2.6-3.48,2.6-2.18,0-3.62-1.05-3.72-3.09Z"/>
        <path class="cls-1" d="M209.45,585.63c0-2.62,1.55-4.62,4.16-4.62s4.16,2.01,4.16,4.62-1.53,4.62-4.16,4.62-4.16-2.01-4.16-4.62ZM216.61,585.63c0-2.04-.99-3.59-2.99-3.59s-2.97,1.55-2.97,3.59.99,3.59,2.97,3.59,2.99-1.55,2.99-3.59Z"/>
        <path class="cls-1" d="M223.32,582.05c-1.04,0-2.67.73-2.67,3.06v4.95h-1.14v-8.84h1.09v1.44c.58-.93,1.53-1.65,2.92-1.65,2.18,0,3.14,1.51,3.14,3.28v5.76h-1.1v-5.64c0-1.48-.77-2.36-2.24-2.36Z"/>
        <path class="cls-1" d="M234.39,588.68c-.75,1.16-1.87,1.58-3.08,1.58-1.94,0-3.06-.99-3.06-2.57s1.1-2.29,3.18-2.72l2.91-.58v-.73c0-1.17-.76-1.65-2.14-1.65-1.22,0-2.45.44-2.48,1.92h-1.14c.05-2.09,1.75-2.92,3.62-2.92,2.19,0,3.25.97,3.25,2.53v6.51h-1.05v-1.38ZM234.34,586.43v-1.09l-2.75.6c-1.38.31-2.18.65-2.18,1.73,0,.92.61,1.58,1.96,1.58,1.53,0,2.97-.88,2.97-2.82Z"/>
        <path class="cls-1" d="M238.44,577.81v10.1c0,.73.22,1.14,1.02,1.14h1.12v1h-1.31c-1.55,0-1.97-.76-1.97-2.02v-10.22h1.14Z"/>
        <path class="cls-1" d="M242.08,577.81h1.14v1.68h-1.14v-1.68ZM242.08,581.21h1.12v8.84h-1.12v-8.84Z"/>
        <path class="cls-1" d="M244.86,589.17l5.52-6.95h-5.35v-1h6.73v.88l-5.52,6.95h5.69v1h-7.07v-.88Z"/>
        <path class="cls-1" d="M259.23,588.68c-.75,1.16-1.87,1.58-3.08,1.58-1.94,0-3.06-.99-3.06-2.57s1.1-2.29,3.18-2.72l2.91-.58v-.73c0-1.17-.77-1.65-2.14-1.65-1.22,0-2.45.44-2.48,1.92h-1.14c.05-2.09,1.75-2.92,3.62-2.92,2.19,0,3.25.97,3.25,2.53v6.51h-1.05v-1.38ZM259.18,586.43v-1.09l-2.75.6c-1.38.31-2.18.65-2.18,1.73,0,.92.61,1.58,1.96,1.58,1.53,0,2.97-.88,2.97-2.82Z"/>
        <path class="cls-1" d="M268.9,590.05v-1.58c-.61,1.11-1.67,1.79-3.11,1.79-2.62,0-4.05-2.01-4.05-4.62s1.43-4.62,4.05-4.62c1.41,0,2.43.65,3.06,1.7v-4.89h1.14v12.24h-1.09ZM268.88,585.63c0-2.04-.99-3.59-2.97-3.59s-2.99,1.55-2.99,3.59,1,3.59,2.99,3.59,2.97-1.55,2.97-3.59Z"/>
        <path class="cls-1" d="M271.71,585.63c0-2.62,1.55-4.62,4.16-4.62s4.16,2.01,4.16,4.62-1.53,4.62-4.16,4.62-4.16-2.01-4.16-4.62ZM278.86,585.63c0-2.04-.99-3.59-2.99-3.59s-2.97,1.55-2.97,3.59.99,3.59,2.97,3.59,2.99-1.55,2.99-3.59Z"/>
        <path class="cls-1" d="M281.53,588.1h1.34v1.96h-1.34v-1.96Z"/>
      </g>
      <g>
        <g>
          <line class="cls-4" x1="69.56" y1="576.38" x2="51.88" y2="594.07"/>
          <path class="cls-4" d="M51.88,595.33c-.32,0-.65-.12-.89-.37-.49-.49-.49-1.29,0-1.78l17.68-17.68c.49-.49,1.29-.49,1.78,0,.49.49.49,1.29,0,1.78l-17.68,17.68c-.25.25-.57.37-.89.37Z"/>
        </g>
        <g>
          <line class="cls-4" x1="51.88" y1="576.38" x2="69.56" y2="594.07"/>
          <path class="cls-4" d="M69.56,595.33c-.32,0-.65-.12-.89-.37l-17.68-17.68c-.49-.49-.49-1.29,0-1.78.49-.49,1.29-.49,1.78,0l17.68,17.68c.49.49.49,1.29,0,1.78-.25.25-.57.37-.89.37Z"/>
        </g>
      </g>
    </g>
  </g>
</svg>