<?xml version="1.0" encoding="UTF-8"?>
<svg id="Capa_2" data-name="Capa 2" xmlns="http://www.w3.org/2000/svg" xmlns:xlink="http://www.w3.org/1999/xlink" viewBox="0 0 473.71 739.09">
  <defs>
    <style>
      .cls-1 {
        fill: none;
        stroke: #c30215;
        stroke-miterlimit: 10;
        stroke-width: .5px;
      }

      .cls-2 {
        fill: #fff;
      }

      .cls-3 {
        fill: url(#Degradado_sin_nombre_66);
      }
    </style>
    <linearGradient id="Degradado_sin_nombre_66" data-name="Degradado sin nombre 66" x1="531.82" y1="664.52" x2="-58.12" y2="74.57" gradientUnits="userSpaceOnUse">
      <stop offset="0" stop-color="#000"/>
      <stop offset=".17" stop-color="#030000"/>
      <stop offset=".3" stop-color="#0d0000"/>
      <stop offset=".42" stop-color="#1d0000"/>
      <stop offset=".53" stop-color="#350000"/>
      <stop offset=".63" stop-color="#530000"/>
      <stop offset=".74" stop-color="#790000"/>
      <stop offset=".84" stop-color="#a50000"/>
      <stop offset=".93" stop-color="#d70000"/>
      <stop offset="1" stop-color="red"/>
    </linearGradient>
  </defs>
  <g id="Capa_1-2" data-name="Capa 1">
    <g>
      <rect class="cls-3" width="473.71" height="739.09" rx="28.09" ry="28.09"/>
      <g>
        <path class="cls-2" d="M53.24,114.02l5.9-33.29h38.24c6.04,0,8.56,3.04,7.51,9.13l-1.14,6.47c-.52,3.04-1.47,5.19-2.9,6.38-1.43,1.19-3.66,1.81-6.71,1.81h-28.16l-1.71,9.51h-11.03ZM67.32,96.95h22.88c1.9,0,2.52-.57,2.85-2.52l.57-3.14c.33-1.95-.29-2.62-2.24-2.62h-22.64l-1.43,8.28Z"/>
        <path class="cls-2" d="M148.18,80.73c6.04,0,8.56,3.04,7.51,9.13l-.76,4.52c-.52,3.04-1.52,5.18-2.95,6.37-1.43,1.19-3.66,1.81-6.71,1.81l-.71.19,7.8,11.27h-12.51l-7.18-10.7h-15.65l-1.95,10.7h-11.03l5.9-33.29h38.24ZM144.51,90.91c.33-1.95-.29-2.62-2.24-2.62h-22.64l-1.33,7.71h22.83c1.95,0,2.57-.57,2.9-2.52l.48-2.57Z"/>
        <path class="cls-2" d="M165.21,114.02c-6.52,0-9.46-3.47-8.28-10.08l2.47-14.08c1.19-6.61,4.23-9.13,10.75-9.13h30.53c6.52,0,9.46,3.47,8.28,10.08l-2.47,14.08c-1.19,6.61-4.23,9.13-10.75,9.13h-30.53ZM192.41,105.32c2.28,0,3.09-.71,3.47-3l1.76-9.7c.38-2.28-.33-3.19-2.62-3.19h-21.55c-2.28,0-3.09.71-3.47,3l-1.76,9.7c-.38,2.28.33,3.19,2.62,3.19h21.55Z"/>
      </g>
      <g>
        <path class="cls-2" d="M62.2,140.05h-5.68l-1.38,3.5h-1.6l5-12.24h1.63l5,12.24h-1.6l-1.38-3.5ZM61.66,138.69l-2.29-5.83-2.29,5.83h4.59Z"/>
        <path class="cls-2" d="M70.46,135.8c-.61,0-2.5.29-2.5,2.8v4.95h-1.43v-8.84h1.36v1.27c.6-.83,1.53-1.48,2.84-1.48,2.24,0,3.14,1.67,3.14,3.23v5.81h-1.41v-5.68c0-1.22-.65-2.07-2.01-2.07Z"/>
        <path class="cls-2" d="M81.49,142.44c-.77.99-1.79,1.31-2.82,1.31-1.99,0-3.2-.93-3.2-2.6,0-1.56,1.21-2.38,3.18-2.75l2.77-.53v-.68c0-1.05-.71-1.43-1.94-1.43-1.05,0-2.21.32-2.28,1.67h-1.43c.07-2.14,1.84-2.92,3.71-2.92,2.28,0,3.33.99,3.33,2.55v6.49h-1.33v-1.1ZM81.43,140.05v-.97l-2.57.53c-1.14.24-1.9.51-1.9,1.51,0,.82.53,1.38,1.79,1.38s2.69-.73,2.69-2.45ZM80.3,131.11h1.9l-2.28,2.48h-1.26l1.63-2.48Z"/>
        <path class="cls-2" d="M86.12,131.31v10.06c0,.65.27.92.92.92h1.19v1.26h-1.46c-1.53,0-2.07-.65-2.07-2.01v-10.23h1.43Z"/>
        <path class="cls-2" d="M89.72,131.31h1.43v1.73h-1.43v-1.73ZM89.72,134.71h1.43v8.84h-1.43v-8.84Z"/>
        <path class="cls-2" d="M92.58,140.66h1.45c.14,1.36.92,1.85,2.33,1.85,1.31,0,2.09-.48,2.09-1.33,0-.78-.27-1.12-2.23-1.45-2.7-.44-3.37-1.33-3.37-2.72,0-1.53,1.36-2.52,3.25-2.52,2.23,0,3.6,1.05,3.62,2.92h-1.43c-.05-1.33-.99-1.68-2.19-1.68-1,0-1.82.44-1.82,1.26s.44,1.1,2.29,1.43c2.6.46,3.31,1.21,3.31,2.67,0,1.7-1.51,2.65-3.54,2.65-2.12,0-3.66-.95-3.77-3.09Z"/>
        <path class="cls-2" d="M101.32,131.31h1.43v1.73h-1.43v-1.73ZM101.32,134.71h1.43v8.84h-1.43v-8.84Z"/>
        <path class="cls-2" d="M104.17,140.66h1.45c.14,1.36.92,1.85,2.33,1.85,1.31,0,2.09-.48,2.09-1.33,0-.78-.27-1.12-2.23-1.45-2.7-.44-3.37-1.33-3.37-2.72,0-1.53,1.36-2.52,3.25-2.52,2.23,0,3.6,1.05,3.62,2.92h-1.43c-.05-1.33-.99-1.68-2.19-1.68-1,0-1.82.44-1.82,1.26s.44,1.1,2.29,1.43c2.6.46,3.32,1.21,3.32,2.67,0,1.7-1.51,2.65-3.54,2.65-2.12,0-3.65-.95-3.77-3.09Z"/>
        <path class="cls-2" d="M117.6,134.71v1.36c.63-.97,1.63-1.56,2.99-1.56,2.65,0,4.11,1.97,4.11,4.62s-1.46,4.62-4.11,4.62c-1.31,0-2.29-.54-2.92-1.46v4.66h-1.43v-12.24h1.36ZM117.64,139.13c0,1.94.92,3.33,2.79,3.33s2.79-1.39,2.79-3.33-.92-3.33-2.79-3.33-2.79,1.39-2.79,3.33Z"/>
        <path class="cls-2" d="M126.41,134.71h1.36v1.48c.71-1.26,1.75-1.58,2.82-1.58h.66v1.38h-.7c-1.5,0-2.72.63-2.72,2.84v4.73h-1.43v-8.84Z"/>
        <path class="cls-2" d="M132.37,139.13c0-2.65,1.63-4.62,4.28-4.62s4.28,1.97,4.28,4.62-1.63,4.62-4.28,4.62-4.28-1.97-4.28-4.62ZM139.45,139.13c0-1.94-.92-3.33-2.79-3.33s-2.79,1.39-2.79,3.33.92,3.33,2.79,3.33,2.79-1.39,2.79-3.33Z"/>
        <path class="cls-2" d="M145.6,131.31h1.73v1.26h-1.46c-.65,0-.92.27-.92.92v1.22h2.38v1.26h-2.38v7.58h-1.43v-7.58h-1.63v-1.26h1.63v-1.39c0-1.36.54-2,2.07-2Z"/>
        <path class="cls-2" d="M148.46,139.13c0-2.65,1.63-4.62,4.13-4.62s4.13,1.97,4.13,4.62v.51h-6.75c.15,1.67,1.05,2.82,2.62,2.82,1.16,0,2.06-.59,2.46-1.6h1.48c-.56,1.75-2.02,2.89-3.94,2.89-2.5,0-4.13-1.97-4.13-4.62ZM155.17,138.35c-.22-1.51-1.1-2.55-2.58-2.55s-2.36,1.04-2.58,2.55h5.17Z"/>
        <path class="cls-2" d="M157.77,140.66h1.45c.14,1.36.92,1.85,2.33,1.85,1.31,0,2.09-.48,2.09-1.33,0-.78-.27-1.12-2.23-1.45-2.7-.44-3.37-1.33-3.37-2.72,0-1.53,1.36-2.52,3.25-2.52,2.23,0,3.6,1.05,3.62,2.92h-1.43c-.05-1.33-.99-1.68-2.19-1.68-1,0-1.82.44-1.82,1.26s.44,1.1,2.29,1.43c2.6.46,3.31,1.21,3.31,2.67,0,1.7-1.51,2.65-3.54,2.65-2.12,0-3.66-.95-3.77-3.09Z"/>
        <path class="cls-2" d="M166.51,131.31h1.43v1.73h-1.43v-1.73ZM166.51,134.71h1.43v8.84h-1.43v-8.84Z"/>
        <path class="cls-2" d="M169.6,139.13c0-2.65,1.63-4.62,4.28-4.62s4.28,1.97,4.28,4.62-1.63,4.62-4.28,4.62-4.28-1.97-4.28-4.62ZM176.68,139.13c0-1.94-.92-3.33-2.79-3.33s-2.79,1.39-2.79,3.33.92,3.33,2.79,3.33,2.79-1.39,2.79-3.33Z"/>
        <path class="cls-2" d="M183.8,135.8c-.61,0-2.5.29-2.5,2.8v4.95h-1.43v-8.84h1.36v1.27c.59-.83,1.53-1.48,2.84-1.48,2.24,0,3.14,1.67,3.14,3.23v5.81h-1.41v-5.68c0-1.22-.65-2.07-2.01-2.07Z"/>
        <path class="cls-2" d="M194.83,142.44c-.76.99-1.79,1.31-2.82,1.31-1.99,0-3.2-.93-3.2-2.6,0-1.56,1.21-2.38,3.18-2.75l2.77-.53v-.68c0-1.05-.71-1.43-1.94-1.43-1.05,0-2.21.32-2.28,1.67h-1.43c.07-2.14,1.83-2.92,3.71-2.92,2.28,0,3.33.99,3.33,2.55v6.49h-1.33v-1.1ZM194.76,140.05v-.97l-2.57.53c-1.14.24-1.9.51-1.9,1.51,0,.82.53,1.38,1.78,1.38s2.69-.73,2.69-2.45Z"/>
        <path class="cls-2" d="M199.46,131.31v10.06c0,.65.27.92.92.92h1.19v1.26h-1.46c-1.53,0-2.07-.65-2.07-2.01v-10.23h1.43Z"/>
        <path class="cls-2" d="M205.75,140.66h1.45c.14,1.36.92,1.85,2.33,1.85,1.31,0,2.09-.48,2.09-1.33,0-.78-.27-1.12-2.23-1.45-2.7-.44-3.37-1.33-3.37-2.72,0-1.53,1.36-2.52,3.25-2.52,2.23,0,3.6,1.05,3.62,2.92h-1.43c-.05-1.33-.99-1.68-2.19-1.68-1,0-1.82.44-1.82,1.26s.44,1.1,2.29,1.43c2.6.46,3.32,1.21,3.32,2.67,0,1.7-1.51,2.65-3.54,2.65-2.12,0-3.65-.95-3.77-3.09Z"/>
        <path class="cls-2" d="M214.48,131.31h1.43v1.73h-1.43v-1.73ZM214.48,134.71h1.43v8.84h-1.43v-8.84Z"/>
        <path class="cls-2" d="M221.91,135.8c-.61,0-2.5.29-2.5,2.8v4.95h-1.43v-8.84h1.36v1.27c.59-.83,1.53-1.48,2.84-1.48,2.24,0,3.14,1.67,3.14,3.23v5.81h-1.41v-5.68c0-1.22-.65-2.07-2.01-2.07Z"/>
        <path class="cls-2" d="M232.16,131.31v10.06c0,.65.27.92.92.92h1.19v1.26h-1.46c-1.53,0-2.07-.65-2.07-2.01v-10.23h1.43Z"/>
        <path class="cls-2" d="M235.77,134.71h1.43v8.84h-1.43v-8.84ZM237.48,131.11h1.9l-2.28,2.48h-1.26l1.63-2.48Z"/>
        <path class="cls-2" d="M248.52,135.8c-.61,0-2.29.29-2.29,2.8v4.95h-1.43v-5.68c0-1.22-.65-2.07-1.8-2.07-.61,0-2.29.29-2.29,2.8v4.95h-1.43v-8.84h1.36v1.26c.49-.83,1.33-1.46,2.63-1.46,1.38,0,2.23.75,2.65,1.72.53-.95,1.45-1.72,2.87-1.72,2.04,0,2.96,1.67,2.96,3.23v5.81h-1.43v-5.68c0-1.22-.65-2.07-1.8-2.07Z"/>
        <path class="cls-2" d="M253.82,131.31h1.43v1.73h-1.43v-1.73ZM253.82,134.71h1.43v8.84h-1.43v-8.84Z"/>
        <path class="cls-2" d="M259.63,131.99v2.72h2.38v1.26h-2.38v5.41c0,.65.27.92.92.92h1.46v1.26h-1.73c-1.53,0-2.07-.65-2.07-2.01v-5.58h-1.63v-1.26h1.63v-2.72h1.43Z"/>
        <path class="cls-2" d="M263.14,139.13c0-2.65,1.63-4.62,4.13-4.62s4.13,1.97,4.13,4.62v.51h-6.75c.15,1.67,1.05,2.82,2.62,2.82,1.16,0,2.06-.59,2.46-1.6h1.48c-.56,1.75-2.02,2.89-3.94,2.89-2.5,0-4.13-1.97-4.13-4.62ZM269.85,138.35c-.22-1.51-1.11-2.55-2.58-2.55s-2.36,1.04-2.58,2.55h5.17Z"/>
        <path class="cls-2" d="M272.45,140.66h1.45c.14,1.36.92,1.85,2.33,1.85,1.31,0,2.09-.48,2.09-1.33,0-.78-.27-1.12-2.23-1.45-2.7-.44-3.37-1.33-3.37-2.72,0-1.53,1.36-2.52,3.25-2.52,2.23,0,3.6,1.05,3.62,2.92h-1.43c-.05-1.33-.99-1.68-2.19-1.68-1,0-1.82.44-1.82,1.26s.44,1.1,2.29,1.43c2.6.46,3.31,1.21,3.31,2.67,0,1.7-1.51,2.65-3.54,2.65-2.12,0-3.66-.95-3.77-3.09Z"/>
        <path class="cls-2" d="M280.99,141.44h1.7v2.11h-1.7v-2.11Z"/>
      </g>
      <g>
        <path class="cls-2" d="M86.83,359.87h3.08v-3.09h1.72v3.09h3.09v1.72h-3.09v3.08h-1.72v-3.08h-3.08v-1.72Z"/>
        <path class="cls-2" d="M98.7,356.93l-2.65,1.89v-2.23l2.79-1.99h1.95v12.24h-2.09v-9.91Z"/>
        <path class="cls-2" d="M102.63,360.72c0-3.67,1.22-6.32,4.57-6.32s4.59,2.65,4.59,6.32-1.22,6.32-4.59,6.32-4.57-2.65-4.57-6.32ZM109.61,360.72c0-2.75-.56-4.52-2.41-4.52s-2.4,1.77-2.4,4.52.56,4.52,2.4,4.52,2.41-1.77,2.41-4.52Z"/>
        <path class="cls-2" d="M118.98,358v1.24c.61-.9,1.55-1.44,2.84-1.44,2.6,0,4.01,1.99,4.01,4.62s-1.41,4.62-4.01,4.62c-1.24,0-2.16-.51-2.77-1.34v4.54h-1.95v-12.24h1.89ZM119.01,362.42c0,1.75.77,2.96,2.4,2.96s2.41-1.21,2.41-2.96-.76-2.96-2.41-2.96-2.4,1.21-2.4,2.96Z"/>
        <path class="cls-2" d="M127.34,358h1.89v1.56c.63-1.24,1.6-1.67,2.72-1.67h.68v1.82h-.76c-1.5,0-2.57.63-2.57,2.74v4.39h-1.95v-8.84Z"/>
        <path class="cls-2" d="M133.63,362.42c0-2.63,1.63-4.62,4.44-4.62s4.42,1.99,4.42,4.62-1.63,4.62-4.42,4.62-4.44-1.99-4.44-4.62ZM140.48,362.42c0-1.75-.76-2.96-2.41-2.96s-2.43,1.21-2.43,2.96.76,2.96,2.43,2.96,2.41-1.21,2.41-2.96Z"/>
        <path class="cls-2" d="M148.12,359.51c-.73,0-2.16.44-2.16,2.45v4.88h-1.96v-8.84h1.89v1.24c.61-.83,1.53-1.44,2.8-1.44,2.09,0,3.14,1.46,3.14,3.42v5.63h-1.94v-5.41c0-1.11-.53-1.92-1.79-1.92Z"/>
        <path class="cls-2" d="M153.35,362.42c0-2.63,1.63-4.62,4.44-4.62s4.42,1.99,4.42,4.62-1.63,4.62-4.42,4.62-4.44-1.99-4.44-4.62ZM160.2,362.42c0-1.75-.76-2.96-2.41-2.96s-2.43,1.21-2.43,2.96.76,2.96,2.43,2.96,2.41-1.21,2.41-2.96ZM158.62,354.4h2.33l-2.35,2.48h-1.63l1.65-2.48Z"/>
        <path class="cls-2" d="M163.11,363.93h1.92c.14,1.24.87,1.65,2.11,1.65,1.11,0,1.82-.41,1.82-1.12,0-.66-.25-.97-2.12-1.27-2.74-.46-3.5-1.34-3.5-2.77,0-1.63,1.45-2.62,3.55-2.62,2.46,0,3.79,1.14,3.82,2.99h-1.85c-.05-1.22-.93-1.53-1.97-1.53-.92,0-1.62.39-1.62,1.09s.41.95,2.19,1.24c2.69.46,3.45,1.28,3.45,2.75,0,1.75-1.6,2.7-3.82,2.7s-3.84-.9-3.98-3.11Z"/>
        <path class="cls-2" d="M175.06,355.28v2.72h2.28v1.55h-2.28v4.88c0,.6.22.87.87.87h1.41v1.55h-1.89c-1.5,0-2.35-.53-2.35-2.19v-5.1h-1.58v-1.55h1.58v-2.72h1.95Z"/>
        <path class="cls-2" d="M178.72,354.6h1.95v1.92h-1.95v-1.92ZM178.72,358h1.95v8.84h-1.95v-8.84Z"/>
        <path class="cls-2" d="M182.2,362.42c0-2.63,1.63-4.62,4.28-4.62,2.36,0,3.74,1.36,4.01,3.31h-1.97c-.2-1.02-.95-1.65-2.04-1.65-1.51,0-2.28,1.21-2.28,2.96s.77,2.96,2.28,2.96c1.12,0,1.85-.66,2.04-1.75h1.97c-.25,2.02-1.73,3.42-4.01,3.42-2.65,0-4.28-1.99-4.28-4.62Z"/>
        <path class="cls-2" d="M191.5,362.42c0-2.63,1.63-4.62,4.44-4.62s4.42,1.99,4.42,4.62-1.63,4.62-4.42,4.62-4.44-1.99-4.44-4.62ZM198.35,362.42c0-1.75-.76-2.96-2.41-2.96s-2.43,1.21-2.43,2.96.76,2.96,2.43,2.96,2.41-1.21,2.41-2.96Z"/>
        <path class="cls-2" d="M201.26,363.93h1.92c.14,1.24.87,1.65,2.11,1.65,1.1,0,1.82-.41,1.82-1.12,0-.66-.25-.97-2.12-1.27-2.74-.46-3.5-1.34-3.5-2.77,0-1.63,1.44-2.62,3.55-2.62,2.46,0,3.79,1.14,3.82,2.99h-1.85c-.05-1.22-.94-1.53-1.97-1.53-.92,0-1.62.39-1.62,1.09s.41.95,2.19,1.24c2.69.46,3.45,1.28,3.45,2.75,0,1.75-1.6,2.7-3.83,2.7s-3.84-.9-3.98-3.11Z"/>
        <path class="cls-2" d="M220.42,366.84v-1.24c-.61.9-1.55,1.45-2.84,1.45-2.6,0-4.01-1.99-4.01-4.62s1.41-4.62,4.01-4.62c1.24,0,2.16.51,2.77,1.34v-4.54h1.95v12.24h-1.89ZM220.38,362.42c0-1.75-.77-2.96-2.4-2.96s-2.41,1.21-2.41,2.96.76,2.96,2.41,2.96,2.4-1.21,2.4-2.96Z"/>
        <path class="cls-2" d="M224.19,354.6h1.95v1.92h-1.95v-1.92ZM224.19,358h1.95v8.84h-1.95v-8.84Z"/>
        <path class="cls-2" d="M233.56,365.8c-.76.94-1.72,1.24-2.8,1.24-1.94,0-3.21-.95-3.21-2.65,0-1.56,1.12-2.35,3.33-2.74l2.62-.48v-.56c0-.85-.53-1.27-1.68-1.27-1,0-1.9.39-1.96,1.44h-1.94c.05-2.11,1.82-2.99,3.88-2.99,2.45,0,3.62,1,3.62,2.62v6.43h-1.85v-1.04ZM233.49,363.39v-.83l-2.26.46c-1.05.22-1.68.46-1.68,1.31,0,.73.49,1.22,1.58,1.22,1.17,0,2.36-.63,2.36-2.16Z"/>
        <path class="cls-2" d="M237.08,358h1.89v1.56c.63-1.24,1.6-1.67,2.72-1.67h.68v1.82h-.76c-1.5,0-2.57.63-2.57,2.74v4.39h-1.95v-8.84Z"/>
        <path class="cls-2" d="M243.74,354.6h1.96v1.92h-1.96v-1.92ZM243.74,358h1.96v8.84h-1.96v-8.84Z"/>
        <path class="cls-2" d="M247.18,362.42c0-2.63,1.63-4.62,4.44-4.62s4.42,1.99,4.42,4.62-1.63,4.62-4.42,4.62-4.44-1.99-4.44-4.62ZM254.03,362.42c0-1.75-.76-2.96-2.41-2.96s-2.43,1.21-2.43,2.96.76,2.96,2.43,2.96,2.41-1.21,2.41-2.96Z"/>
        <path class="cls-2" d="M256.93,363.93h1.92c.14,1.24.87,1.65,2.11,1.65,1.11,0,1.82-.41,1.82-1.12,0-.66-.25-.97-2.12-1.27-2.74-.46-3.5-1.34-3.5-2.77,0-1.63,1.45-2.62,3.55-2.62,2.46,0,3.79,1.14,3.82,2.99h-1.85c-.05-1.22-.93-1.53-1.97-1.53-.92,0-1.62.39-1.62,1.09s.41.95,2.19,1.24c2.69.46,3.45,1.28,3.45,2.75,0,1.75-1.6,2.7-3.82,2.7s-3.84-.9-3.98-3.11Z"/>
        <path class="cls-2" d="M265.81,364.34h2.26v2.5h-2.26v-2.5Z"/>
      </g>
      <g>
        <path class="cls-2" d="M87.05,398.25h7.99v1.07h-6.82v4.25h6.48v1.07h-6.48v5.85h-1.17v-12.24Z"/>
        <path class="cls-2" d="M99.84,409.66c1.04,0,2.67-.73,2.67-3.06v-4.95h1.14v8.84h-1.09v-1.45c-.58.94-1.53,1.65-2.92,1.65-2.18,0-3.14-1.51-3.14-3.28v-5.76h1.1v5.64c0,1.48.77,2.36,2.24,2.36ZM101.32,398.05h1.5l-2.24,2.48h-1l1.75-2.48Z"/>
        <path class="cls-2" d="M107.78,398.93v2.72h2.46v1h-2.46v5.69c0,.73.22,1.14,1.02,1.14h1.45v1h-1.63c-1.55,0-1.97-.76-1.97-2.02v-5.81h-1.65v-1h1.65v-2.72h1.14Z"/>
        <path class="cls-2" d="M111.75,398.25h1.14v4.89c.63-1.05,1.65-1.7,3.06-1.7,2.62,0,4.04,2.01,4.04,4.62s-1.43,4.62-4.04,4.62c-1.45,0-2.5-.68-3.11-1.79v1.58h-1.09v-12.24ZM118.83,406.07c0-2.04-1-3.59-2.99-3.59s-2.97,1.55-2.97,3.59.99,3.59,2.97,3.59,2.99-1.55,2.99-3.59Z"/>
        <path class="cls-2" d="M121.33,406.07c0-2.62,1.55-4.62,4.17-4.62s4.16,2.01,4.16,4.62-1.53,4.62-4.16,4.62-4.17-2.01-4.17-4.62ZM128.48,406.07c0-2.04-.99-3.59-2.99-3.59s-2.97,1.55-2.97,3.59.99,3.59,2.97,3.59,2.99-1.55,2.99-3.59Z"/>
        <path class="cls-2" d="M132.53,398.25v10.1c0,.73.22,1.14,1.02,1.14h1.12v1h-1.31c-1.55,0-1.97-.76-1.97-2.02v-10.22h1.14Z"/>
        <path class="cls-2" d="M140.88,398.25v10.1c0,.73.22,1.14,1.02,1.14h1.12v1h-1.31c-1.55,0-1.97-.76-1.97-2.02v-10.22h1.14Z"/>
        <path class="cls-2" d="M150.14,409.11c-.75,1.16-1.87,1.58-3.08,1.58-1.94,0-3.06-.99-3.06-2.57s1.1-2.29,3.18-2.72l2.91-.58v-.73c0-1.17-.76-1.65-2.14-1.65-1.22,0-2.45.44-2.48,1.92h-1.14c.05-2.09,1.75-2.92,3.62-2.92,2.19,0,3.25.97,3.25,2.53v6.51h-1.05v-1.38ZM150.09,406.87v-1.09l-2.75.6c-1.38.31-2.18.65-2.18,1.73,0,.92.61,1.58,1.96,1.58,1.53,0,2.97-.88,2.97-2.82Z"/>
        <path class="cls-2" d="M155.07,398.93v2.72h2.46v1h-2.46v5.69c0,.73.22,1.14,1.02,1.14h1.44v1h-1.63c-1.55,0-1.97-.76-1.97-2.02v-5.81h-1.65v-1h1.65v-2.72h1.14Z"/>
        <path class="cls-2" d="M159.03,398.25h1.14v1.68h-1.14v-1.68ZM159.03,401.65h1.12v8.84h-1.12v-8.84Z"/>
        <path class="cls-2" d="M166.05,402.48c-1.04,0-2.67.73-2.67,3.06v4.95h-1.14v-8.84h1.09v1.44c.58-.93,1.53-1.65,2.92-1.65,2.18,0,3.14,1.51,3.14,3.28v5.76h-1.1v-5.64c0-1.48-.76-2.36-2.24-2.36Z"/>
        <path class="cls-2" d="M171.12,406.07c0-2.62,1.55-4.62,4.16-4.62s4.17,2.01,4.17,4.62-1.53,4.62-4.17,4.62-4.16-2.01-4.16-4.62ZM178.28,406.07c0-2.04-.99-3.59-2.99-3.59s-2.97,1.55-2.97,3.59.99,3.59,2.97,3.59,2.99-1.55,2.99-3.59Z"/>
        <path class="cls-2" d="M186.79,409.11c-.75,1.16-1.87,1.58-3.08,1.58-1.94,0-3.06-.99-3.06-2.57s1.1-2.29,3.18-2.72l2.91-.58v-.73c0-1.17-.76-1.65-2.14-1.65-1.22,0-2.45.44-2.48,1.92h-1.14c.05-2.09,1.75-2.92,3.62-2.92,2.19,0,3.25.97,3.25,2.53v6.51h-1.05v-1.38ZM186.74,406.87v-1.09l-2.75.6c-1.38.31-2.18.65-2.18,1.73,0,.92.61,1.58,1.96,1.58,1.53,0,2.97-.88,2.97-2.82Z"/>
        <path class="cls-2" d="M198.98,402.48c-1.04,0-2.48.73-2.48,3.06v4.95h-1.14v-5.64c0-1.48-.82-2.36-2.04-2.36-1.04,0-2.48.73-2.48,3.06v4.95h-1.14v-8.84h1.09v1.41c.49-.92,1.34-1.61,2.74-1.61s2.31.78,2.72,1.87c.51-1.05,1.43-1.87,2.94-1.87,1.92,0,2.97,1.51,2.97,3.28v5.76h-1.14v-5.64c0-1.48-.82-2.36-2.04-2.36Z"/>
        <path class="cls-2" d="M203.88,406.07c0-2.62,1.55-4.62,4.05-4.62s4.04,2.01,4.04,4.62v.39h-6.88c.12,1.84,1.09,3.2,2.84,3.2,1.34,0,2.31-.75,2.72-1.94h1.16c-.51,1.78-1.92,2.97-3.88,2.97-2.5,0-4.05-2.01-4.05-4.62ZM210.76,405.43c-.19-1.72-1.16-2.94-2.84-2.94s-2.63,1.22-2.82,2.94h5.66Z"/>
        <path class="cls-2" d="M213.7,401.65h1.09v1.67c.71-1.38,1.85-1.77,2.96-1.77h.66v1.09h-.71c-1.53,0-2.86.82-2.86,3.08v4.78h-1.14v-8.84Z"/>
        <path class="cls-2" d="M219.89,398.25h1.14v1.68h-1.14v-1.68ZM219.89,401.65h1.12v8.84h-1.12v-8.84Z"/>
        <path class="cls-2" d="M222.76,406.07c0-2.62,1.53-4.62,4.04-4.62,2.07,0,3.4,1.29,3.71,3.14h-1.17c-.27-1.27-1.19-2.11-2.53-2.11-1.87,0-2.87,1.55-2.87,3.59s1,3.59,2.87,3.59c1.38,0,2.31-.88,2.55-2.19h1.17c-.27,1.9-1.72,3.23-3.72,3.23-2.52,0-4.04-2.01-4.04-4.62Z"/>
        <path class="cls-2" d="M237.74,409.11c-.75,1.16-1.87,1.58-3.08,1.58-1.94,0-3.06-.99-3.06-2.57s1.1-2.29,3.18-2.72l2.91-.58v-.73c0-1.17-.76-1.65-2.14-1.65-1.22,0-2.45.44-2.48,1.92h-1.14c.05-2.09,1.75-2.92,3.62-2.92,2.19,0,3.25.97,3.25,2.53v6.51h-1.05v-1.38ZM237.69,406.87v-1.09l-2.75.6c-1.38.31-2.18.65-2.18,1.73,0,.92.61,1.58,1.96,1.58,1.53,0,2.97-.88,2.97-2.82Z"/>
        <path class="cls-2" d="M244.45,402.48c-1.04,0-2.67.73-2.67,3.06v4.95h-1.14v-8.84h1.09v1.44c.58-.93,1.53-1.65,2.92-1.65,2.18,0,3.14,1.51,3.14,3.28v5.76h-1.1v-5.64c0-1.48-.77-2.36-2.24-2.36Z"/>
        <path class="cls-2" d="M249.52,406.07c0-2.62,1.55-4.62,4.16-4.62s4.17,2.01,4.17,4.62-1.53,4.62-4.17,4.62-4.16-2.01-4.16-4.62ZM256.68,406.07c0-2.04-.99-3.59-2.99-3.59s-2.97,1.55-2.97,3.59.99,3.59,2.97,3.59,2.99-1.55,2.99-3.59Z"/>
        <path class="cls-2" d="M262.75,406.07c0-2.62,1.55-4.62,4.05-4.62s4.04,2.01,4.04,4.62v.39h-6.88c.12,1.84,1.09,3.2,2.84,3.2,1.34,0,2.31-.75,2.72-1.94h1.16c-.51,1.78-1.92,2.97-3.88,2.97-2.5,0-4.05-2.01-4.05-4.62ZM269.63,405.43c-.19-1.72-1.16-2.94-2.84-2.94s-2.63,1.22-2.82,2.94h5.66Z"/>
        <path class="cls-2" d="M276.11,398.25h1.14v1.68h-1.14v-1.68ZM276.11,401.65h1.12v8.84h-1.12v-8.84Z"/>
        <path class="cls-2" d="M283.13,402.48c-1.04,0-2.67.73-2.67,3.06v4.95h-1.14v-8.84h1.09v1.44c.58-.93,1.53-1.65,2.92-1.65,2.18,0,3.14,1.51,3.14,3.28v5.76h-1.1v-5.64c0-1.48-.76-2.36-2.24-2.36Z"/>
        <path class="cls-2" d="M290.61,398.93v2.72h2.46v1h-2.46v5.69c0,.73.22,1.14,1.02,1.14h1.45v1h-1.63c-1.55,0-1.97-.76-1.97-2.02v-5.81h-1.65v-1h1.65v-2.72h1.14Z"/>
        <path class="cls-2" d="M294.2,406.07c0-2.62,1.55-4.62,4.05-4.62s4.04,2.01,4.04,4.62v.39h-6.88c.12,1.84,1.09,3.2,2.84,3.2,1.34,0,2.31-.75,2.72-1.94h1.16c-.51,1.78-1.92,2.97-3.88,2.97-2.5,0-4.05-2.01-4.05-4.62ZM301.08,405.43c-.19-1.72-1.16-2.94-2.84-2.94s-2.63,1.22-2.82,2.94h5.66Z"/>
        <path class="cls-2" d="M304.02,401.65h1.09v1.67c.71-1.38,1.85-1.77,2.96-1.77h.66v1.09h-.71c-1.53,0-2.86.82-2.86,3.08v4.78h-1.14v-8.84Z"/>
        <path class="cls-2" d="M314.03,402.48c-1.04,0-2.67.73-2.67,3.06v4.95h-1.14v-8.84h1.09v1.44c.58-.93,1.53-1.65,2.92-1.65,2.18,0,3.14,1.51,3.14,3.28v5.76h-1.1v-5.64c0-1.48-.77-2.36-2.24-2.36Z"/>
        <path class="cls-2" d="M325.1,409.11c-.75,1.16-1.87,1.58-3.08,1.58-1.94,0-3.06-.99-3.06-2.57s1.11-2.29,3.18-2.72l2.91-.58v-.73c0-1.17-.77-1.65-2.14-1.65-1.22,0-2.45.44-2.48,1.92h-1.14c.05-2.09,1.75-2.92,3.62-2.92,2.19,0,3.25.97,3.25,2.53v6.51h-1.05v-1.38ZM325.05,406.87v-1.09l-2.75.6c-1.38.31-2.18.65-2.18,1.73,0,.92.61,1.58,1.96,1.58,1.53,0,2.97-.88,2.97-2.82Z"/>
        <path class="cls-2" d="M327.67,406.07c0-2.62,1.53-4.62,4.05-4.62,2.07,0,3.4,1.29,3.71,3.14h-1.17c-.27-1.27-1.19-2.11-2.53-2.11-1.87,0-2.87,1.55-2.87,3.59s1,3.59,2.87,3.59c1.38,0,2.31-.88,2.55-2.19h1.17c-.27,1.9-1.72,3.23-3.72,3.23-2.52,0-4.05-2.01-4.05-4.62Z"/>
        <path class="cls-2" d="M337.02,398.25h1.14v1.68h-1.14v-1.68ZM337.02,401.65h1.12v8.84h-1.12v-8.84Z"/>
        <path class="cls-2" d="M339.84,406.07c0-2.62,1.55-4.62,4.17-4.62s4.16,2.01,4.16,4.62-1.53,4.62-4.16,4.62-4.17-2.01-4.17-4.62ZM347,406.07c0-2.04-.99-3.59-2.99-3.59s-2.97,1.55-2.97,3.59.99,3.59,2.97,3.59,2.99-1.55,2.99-3.59Z"/>
        <path class="cls-2" d="M353.71,402.48c-1.04,0-2.67.73-2.67,3.06v4.95h-1.14v-8.84h1.09v1.44c.58-.93,1.53-1.65,2.92-1.65,2.18,0,3.14,1.51,3.14,3.28v5.76h-1.1v-5.64c0-1.48-.76-2.36-2.24-2.36Z"/>
        <path class="cls-2" d="M364.78,409.11c-.75,1.16-1.87,1.58-3.08,1.58-1.94,0-3.06-.99-3.06-2.57s1.1-2.29,3.18-2.72l2.91-.58v-.73c0-1.17-.76-1.65-2.14-1.65-1.22,0-2.45.44-2.48,1.92h-1.14c.05-2.09,1.75-2.92,3.62-2.92,2.19,0,3.25.97,3.25,2.53v6.51h-1.05v-1.38ZM364.73,406.87v-1.09l-2.75.6c-1.38.31-2.18.65-2.18,1.73,0,.92.61,1.58,1.96,1.58,1.53,0,2.97-.88,2.97-2.82Z"/>
        <path class="cls-2" d="M368.83,398.25v10.1c0,.73.22,1.14,1.02,1.14h1.12v1h-1.31c-1.55,0-1.97-.76-1.97-2.02v-10.22h1.14Z"/>
        <path class="cls-2" d="M372.24,408.54h1.34v1.96h-1.34v-1.96Z"/>
      </g>
      <g>
        <path class="cls-2" d="M198.58,216.1h1.04l-2.95,8.11h-1.04l2.95-8.11Z"/>
        <path class="cls-2" d="M206.17,219.17c-.43,0-1.44.23-1.44,1.78v3.27h-1.07v-3.71c0-.78-.39-1.34-1.15-1.34-.43,0-1.45.23-1.45,1.78v3.27h-1.06v-5.86h1.01v.83c.34-.55.89-.97,1.75-.97s1.46.47,1.76,1.12c.36-.62.97-1.12,1.9-1.12,1.33,0,1.97,1.06,1.97,2.18v3.81h-1.07v-3.71c0-.78-.39-1.34-1.15-1.34Z"/>
        <path class="cls-2" d="M209.02,221.28c0-1.76,1.08-3.06,2.87-3.06s2.87,1.31,2.87,3.06-1.08,3.06-2.87,3.06-2.87-1.31-2.87-3.06ZM213.66,221.28c0-1.24-.57-2.13-1.77-2.13s-1.77.89-1.77,2.13.57,2.13,1.77,2.13,1.77-.89,1.77-2.13Z"/>
        <path class="cls-2" d="M218.05,219.17c-.44,0-1.59.23-1.59,1.78v3.27h-1.06v-5.86h1.01v.84c.39-.55,1.01-.98,1.88-.98,1.45,0,2.08,1.06,2.08,2.18v3.81h-1.06v-3.71c0-.78-.39-1.34-1.27-1.34Z"/>
        <path class="cls-2" d="M222.94,216.55v1.8h1.55v.9h-1.55v3.46c0,.42.17.6.6.6h.96v.9h-1.18c-1.01,0-1.44-.41-1.44-1.37v-3.58h-1.07v-.9h1.07v-1.8h1.07Z"/>
        <path class="cls-2" d="M225.02,216.1h1.06v3.04c.39-.53,1-.92,1.83-.92,1.45,0,2.08,1.06,2.08,2.18v3.81h-1.06v-3.71c0-.78-.39-1.34-1.27-1.34-.44,0-1.59.23-1.59,1.78v3.27h-1.06v-8.11Z"/>
      </g>
      <g>
        <path class="cls-2" d="M69.1,232.25c-9.5-.98-16.32-6.23-16.58-16.52h7.34c.2,6.62,4.19,9.37,9.24,10.16v-15.66c-10.09-2.16-15.14-5.77-15.14-13.89,0-7.28,6.23-12.12,15.14-12.65v-6.75h4.92v6.81c10.68,1.12,15.27,7.41,15.53,15.47h-7.21c-.33-5.18-2.82-8.32-8.32-9.11v14.22c13.24,2.75,16.58,7.08,16.58,14.03,0,8.26-6.75,13.44-16.58,13.96v6.75h-4.92v-6.81ZM69.1,203.29v-13.37c-4.59.46-7.6,2.75-7.6,6.29,0,3.34,1.05,5.31,7.6,7.08ZM83.05,218.55c0-3.41-1.64-5.31-9.04-7.21v14.75c5.37-.39,9.04-2.88,9.04-7.54Z"/>
        <path class="cls-2" d="M95.18,225.44l18.68-17.63c3.21-3.15,5.7-6.49,5.7-10.68s-3.21-7.14-8.26-7.14-8.98,3.08-8.91,9.5h-7.21c.07-10.03,6.23-15.86,16.12-15.86s15.34,5.96,15.34,13.3c0,5.96-3.87,11.14-8,15.07l-13.96,13.24h22.61v6.36h-32.11v-6.16Z"/>
        <path class="cls-2" d="M132.54,208c0-14.16,4.59-24.38,17.3-24.38s17.24,10.22,17.24,24.38-4.59,24.38-17.24,24.38-17.3-10.22-17.3-24.38ZM159.47,208c0-10.88-2.29-18.02-9.63-18.02s-9.7,7.14-9.7,18.02,2.29,18.02,9.7,18.02,9.63-7.14,9.63-18.02Z"/>
      </g>
      <rect class="cls-1" x="177.01" y="210.3" width="72.12" height="20.71" rx="10.35" ry="10.35"/>
      <g>
        <path class="cls-2" d="M68.58,366.87v-6.73c0-.65.52-1.12,1.12-1.12s1.13.47,1.13,1.12v6.74c0,1.83-1.48,3.37-3.32,3.36h-13.63c-1.75,0-3.25-1.51-3.25-3.26v-13.69c0-1.79,1.54-3.26,3.31-3.26h11.32c.62,0,1.07.52,1.09,1.08s-.42,1.15-1.05,1.15h-11.3c-.64,0-1.13.5-1.13,1.14v13.47c0,.64.49,1.13,1.13,1.13h13.41c.66,0,1.18-.45,1.18-1.13Z"/>
        <path class="cls-2" d="M56.55,359.8c-.47-.47-.42-1.19.03-1.61s1.12-.41,1.57.03l2.57,2.56,9.35-9.35c.44-.44,1.16-.35,1.54.03.44.45.45,1.15,0,1.6l-10.1,10.1c-.46.46-1.16.42-1.6-.02l-3.35-3.35Z"/>
      </g>
      <g>
        <path class="cls-2" d="M68.58,411.89v-6.73c0-.65.52-1.12,1.12-1.12s1.13.47,1.13,1.12v6.74c0,1.83-1.48,3.37-3.32,3.36h-13.63c-1.75,0-3.25-1.51-3.25-3.26v-13.69c0-1.79,1.54-3.26,3.31-3.26h11.32c.62,0,1.07.52,1.09,1.08s-.42,1.15-1.05,1.15h-11.3c-.64,0-1.13.5-1.13,1.14v13.47c0,.64.49,1.13,1.13,1.13h13.41c.66,0,1.18-.45,1.18-1.13Z"/>
        <path class="cls-2" d="M56.55,404.82c-.47-.47-.42-1.19.03-1.61s1.12-.41,1.57.03l2.57,2.56,9.35-9.35c.44-.44,1.16-.35,1.54.03.44.45.45,1.15,0,1.6l-10.1,10.1c-.46.46-1.16.42-1.6-.02l-3.35-3.35Z"/>
      </g>
      <g>
        <path class="cls-2" d="M86.88,451v-7.73h1.17v7.73c0,2.55,1.34,3.64,3.5,3.64s3.5-1.09,3.5-3.64v-7.73h1.19v7.73c0,3.09-1.77,4.71-4.69,4.71s-4.67-1.62-4.67-4.71Z"/>
        <path class="cls-2" d="M98.39,443.27h7.99v1.07h-6.82v4.25h6.48v1.07h-6.48v5.85h-1.17v-12.24Z"/>
        <path class="cls-2" d="M107.44,449.39c0-3.38,1.9-6.32,5.73-6.32,2.79,0,4.59,1.87,4.98,4.33h-1.21c-.31-1.87-1.72-3.23-3.77-3.23-3.08,0-4.49,2.41-4.49,5.22s1.41,5.22,4.49,5.22c2.19,0,3.6-1.53,3.86-3.57h1.19c-.31,2.63-2.14,4.67-5.05,4.67-3.82,0-5.73-2.94-5.73-6.32Z"/>
        <path class="cls-2" d="M119.69,447.01h1.34v1.96h-1.34v-1.96ZM119.69,453.55h1.34v1.96h-1.34v-1.96Z"/>
        <path class="cls-2" d="M126.12,451.09c0-2.62,1.53-4.62,4.04-4.62,2.07,0,3.4,1.29,3.71,3.14h-1.17c-.27-1.27-1.19-2.11-2.53-2.11-1.87,0-2.87,1.55-2.87,3.59s1,3.59,2.87,3.59c1.38,0,2.31-.88,2.55-2.19h1.17c-.27,1.9-1.72,3.23-3.72,3.23-2.52,0-4.04-2.01-4.04-4.62Z"/>
        <path class="cls-2" d="M141.1,454.13c-.75,1.16-1.87,1.58-3.08,1.58-1.94,0-3.06-.99-3.06-2.57s1.1-2.29,3.18-2.72l2.91-.58v-.73c0-1.17-.76-1.65-2.14-1.65-1.22,0-2.45.44-2.48,1.92h-1.14c.05-2.09,1.75-2.92,3.62-2.92,2.19,0,3.25.97,3.25,2.53v6.51h-1.05v-1.38ZM141.04,451.89v-1.09l-2.75.6c-1.38.31-2.18.65-2.18,1.73,0,.92.61,1.58,1.96,1.58,1.53,0,2.97-.88,2.97-2.82Z"/>
        <path class="cls-2" d="M144,446.67h1.09v1.67c.71-1.38,1.85-1.77,2.96-1.77h.66v1.09h-.71c-1.53,0-2.86.82-2.86,3.08v4.78h-1.14v-8.84Z"/>
        <path class="cls-2" d="M152.23,443.95v2.72h2.46v1h-2.46v5.69c0,.73.22,1.14,1.02,1.14h1.45v1h-1.63c-1.55,0-1.97-.76-1.97-2.02v-5.81h-1.65v-1h1.65v-2.72h1.14Z"/>
        <path class="cls-2" d="M155.82,451.09c0-2.62,1.55-4.62,4.05-4.62s4.04,2.01,4.04,4.62v.39h-6.88c.12,1.84,1.09,3.2,2.84,3.2,1.34,0,2.31-.75,2.72-1.94h1.16c-.51,1.78-1.92,2.97-3.88,2.97-2.5,0-4.05-2.01-4.05-4.62ZM162.7,450.44c-.19-1.72-1.16-2.94-2.84-2.94s-2.63,1.22-2.82,2.94h5.66Z"/>
        <path class="cls-2" d="M166.78,443.27v10.1c0,.73.22,1.14,1.02,1.14h1.12v1h-1.31c-1.55,0-1.97-.76-1.97-2.02v-10.22h1.14Z"/>
        <path class="cls-2" d="M170.05,451.09c0-2.62,1.55-4.62,4.04-4.62s4.05,2.01,4.05,4.62v.39h-6.88c.12,1.84,1.09,3.2,2.84,3.2,1.34,0,2.31-.75,2.72-1.94h1.16c-.51,1.78-1.92,2.97-3.88,2.97-2.5,0-4.04-2.01-4.04-4.62ZM176.93,450.44c-.19-1.72-1.16-2.94-2.84-2.94s-2.63,1.22-2.82,2.94h5.66Z"/>
        <path class="cls-2" d="M179.87,446.67h1.09v1.67c.71-1.38,1.85-1.77,2.96-1.77h.66v1.09h-.71c-1.53,0-2.86.82-2.86,3.08v4.78h-1.14v-8.84Z"/>
        <path class="cls-2" d="M191.69,454.13c-.75,1.16-1.87,1.58-3.08,1.58-1.94,0-3.06-.99-3.06-2.57s1.11-2.29,3.18-2.72l2.91-.58v-.73c0-1.17-.77-1.65-2.14-1.65-1.22,0-2.45.44-2.48,1.92h-1.14c.05-2.09,1.75-2.92,3.62-2.92,2.19,0,3.25.97,3.25,2.53v6.51h-1.05v-1.38ZM191.64,451.89v-1.09l-2.75.6c-1.38.31-2.18.65-2.18,1.73,0,.92.61,1.58,1.96,1.58,1.53,0,2.97-.88,2.97-2.82Z"/>
        <path class="cls-2" d="M194,452.62h1.16c.12,1.44.99,2.11,2.57,2.11,1.38,0,2.33-.51,2.33-1.55,0-.88-.34-1.29-2.43-1.63-2.63-.42-3.35-1.22-3.35-2.63,0-1.51,1.36-2.45,3.21-2.45,2.23,0,3.5,1.07,3.54,2.92h-1.14c-.05-1.41-.95-1.94-2.4-1.94-1.16,0-2.07.51-2.07,1.45s.51,1.29,2.52,1.63c2.58.42,3.28,1.17,3.28,2.58,0,1.73-1.56,2.6-3.48,2.6-2.18,0-3.62-1.05-3.72-3.09Z"/>
        <path class="cls-2" d="M207.36,446.67v1.58c.61-1.11,1.67-1.79,3.11-1.79,2.62,0,4.04,2.01,4.04,4.62s-1.43,4.62-4.04,4.62c-1.41,0-2.43-.65-3.06-1.7v4.9h-1.14v-12.24h1.09ZM207.38,451.09c0,2.04.99,3.59,2.97,3.59s2.99-1.55,2.99-3.59-1-3.59-2.99-3.59-2.97,1.55-2.97,3.59Z"/>
        <path class="cls-2" d="M216.24,446.67h1.09v1.67c.71-1.38,1.85-1.77,2.96-1.77h.66v1.09h-.71c-1.53,0-2.86.82-2.86,3.08v4.78h-1.14v-8.84Z"/>
        <path class="cls-2" d="M222.42,443.27h1.14v1.68h-1.14v-1.68ZM222.42,446.67h1.12v8.84h-1.12v-8.84Z"/>
        <path class="cls-2" d="M229.44,447.5c-1.04,0-2.67.73-2.67,3.06v4.95h-1.14v-8.84h1.09v1.44c.58-.93,1.53-1.65,2.92-1.65,2.18,0,3.14,1.51,3.14,3.28v5.76h-1.1v-5.64c0-1.48-.76-2.36-2.24-2.36Z"/>
        <path class="cls-2" d="M234.56,451.09c0-2.62,1.53-4.62,4.04-4.62,2.07,0,3.4,1.29,3.71,3.14h-1.17c-.27-1.27-1.19-2.11-2.53-2.11-1.87,0-2.87,1.55-2.87,3.59s1,3.59,2.87,3.59c1.38,0,2.31-.88,2.55-2.19h1.17c-.27,1.9-1.72,3.23-3.72,3.23-2.52,0-4.04-2.01-4.04-4.62Z"/>
        <path class="cls-2" d="M243.91,443.27h1.14v1.68h-1.14v-1.68ZM243.91,446.67h1.12v8.84h-1.12v-8.84Z"/>
        <path class="cls-2" d="M248.21,446.67v1.58c.61-1.11,1.67-1.79,3.11-1.79,2.62,0,4.05,2.01,4.05,4.62s-1.43,4.62-4.05,4.62c-1.41,0-2.43-.65-3.06-1.7v4.9h-1.14v-12.24h1.09ZM248.23,451.09c0,2.04.99,3.59,2.97,3.59s2.99-1.55,2.99-3.59-1-3.59-2.99-3.59-2.97,1.55-2.97,3.59Z"/>
        <path class="cls-2" d="M262.7,454.13c-.75,1.16-1.87,1.58-3.08,1.58-1.94,0-3.06-.99-3.06-2.57s1.11-2.29,3.18-2.72l2.91-.58v-.73c0-1.17-.77-1.65-2.14-1.65-1.22,0-2.45.44-2.48,1.92h-1.14c.05-2.09,1.75-2.92,3.62-2.92,2.19,0,3.25.97,3.25,2.53v6.51h-1.05v-1.38ZM262.64,451.89v-1.09l-2.75.6c-1.38.31-2.18.65-2.18,1.73,0,.92.61,1.58,1.96,1.58,1.53,0,2.97-.88,2.97-2.82Z"/>
        <path class="cls-2" d="M266.74,443.27v10.1c0,.73.22,1.14,1.02,1.14h1.12v1h-1.31c-1.55,0-1.97-.76-1.97-2.02v-10.22h1.14Z"/>
        <path class="cls-2" d="M270.01,451.09c0-2.62,1.55-4.62,4.05-4.62s4.04,2.01,4.04,4.62v.39h-6.88c.12,1.84,1.09,3.2,2.84,3.2,1.34,0,2.31-.75,2.72-1.94h1.16c-.51,1.78-1.92,2.97-3.88,2.97-2.5,0-4.05-2.01-4.05-4.62ZM276.89,450.44c-.19-1.72-1.16-2.94-2.84-2.94s-2.63,1.22-2.82,2.94h5.66Z"/>
        <path class="cls-2" d="M279.24,452.62h1.16c.12,1.44.99,2.11,2.57,2.11,1.38,0,2.33-.51,2.33-1.55,0-.88-.34-1.29-2.43-1.63-2.63-.42-3.35-1.22-3.35-2.63,0-1.51,1.36-2.45,3.21-2.45,2.23,0,3.5,1.07,3.54,2.92h-1.14c-.05-1.41-.95-1.94-2.4-1.94-1.16,0-2.07.51-2.07,1.45s.51,1.29,2.52,1.63c2.58.42,3.28,1.17,3.28,2.58,0,1.73-1.56,2.6-3.48,2.6-2.18,0-3.62-1.05-3.72-3.09Z"/>
        <path class="cls-2" d="M290.95,457.91h1.27c.87,0,1.07-.36,1.38-1.14l.48-1.26-3.42-8.84h1.22l2.77,7.46,2.79-7.46h1.22l-4.01,10.39c-.41,1.05-.76,1.85-2.04,1.85h-1.67v-1Z"/>
        <path class="cls-2" d="M304.57,446.67v1.58c.61-1.11,1.67-1.79,3.11-1.79,2.62,0,4.05,2.01,4.05,4.62s-1.43,4.62-4.05,4.62c-1.41,0-2.43-.65-3.06-1.7v4.9h-1.14v-12.24h1.09ZM304.58,451.09c0,2.04.99,3.59,2.97,3.59s2.99-1.55,2.99-3.59-1-3.59-2.99-3.59-2.97,1.55-2.97,3.59Z"/>
        <path class="cls-2" d="M313.44,446.67h1.09v1.67c.71-1.38,1.85-1.77,2.96-1.77h.66v1.09h-.71c-1.53,0-2.86.82-2.86,3.08v4.78h-1.14v-8.84Z"/>
        <path class="cls-2" d="M319.25,451.09c0-2.62,1.55-4.62,4.04-4.62s4.05,2.01,4.05,4.62v.39h-6.88c.12,1.84,1.09,3.2,2.84,3.2,1.34,0,2.31-.75,2.72-1.94h1.16c-.51,1.78-1.92,2.97-3.88,2.97-2.5,0-4.04-2.01-4.04-4.62ZM326.14,450.44c-.19-1.72-1.16-2.94-2.84-2.94s-2.63,1.22-2.82,2.94h5.66Z"/>
        <path class="cls-2" d="M330.22,443.27v10.1c0,.73.22,1.14,1.02,1.14h1.12v1h-1.31c-1.55,0-1.97-.76-1.97-2.02v-10.22h1.14Z"/>
        <path class="cls-2" d="M333.86,443.27h1.14v1.68h-1.14v-1.68ZM333.86,446.67h1.12v8.84h-1.12v-8.84Z"/>
        <path class="cls-2" d="M346.35,447.5c-1.04,0-2.48.73-2.48,3.06v4.95h-1.14v-5.64c0-1.48-.82-2.36-2.04-2.36-1.04,0-2.48.73-2.48,3.06v4.95h-1.14v-8.84h1.09v1.41c.49-.92,1.34-1.61,2.74-1.61s2.31.78,2.72,1.87c.51-1.05,1.43-1.87,2.94-1.87,1.92,0,2.97,1.51,2.97,3.28v5.76h-1.14v-5.64c0-1.48-.82-2.36-2.04-2.36Z"/>
        <path class="cls-2" d="M351.62,443.27h1.14v1.68h-1.14v-1.68ZM351.62,446.67h1.12v8.84h-1.12v-8.84Z"/>
        <path class="cls-2" d="M358.64,447.5c-1.04,0-2.67.73-2.67,3.06v4.95h-1.14v-8.84h1.09v1.44c.58-.93,1.53-1.65,2.92-1.65,2.18,0,3.14,1.51,3.14,3.28v5.76h-1.1v-5.64c0-1.48-.76-2.36-2.24-2.36Z"/>
        <path class="cls-2" d="M369.71,454.13c-.75,1.16-1.87,1.58-3.08,1.58-1.94,0-3.06-.99-3.06-2.57s1.11-2.29,3.18-2.72l2.91-.58v-.73c0-1.17-.77-1.65-2.14-1.65-1.22,0-2.45.44-2.48,1.92h-1.14c.05-2.09,1.75-2.92,3.62-2.92,2.19,0,3.25.97,3.25,2.53v6.51h-1.05v-1.38ZM369.66,451.89v-1.09l-2.75.6c-1.38.31-2.18.65-2.18,1.73,0,.92.61,1.58,1.96,1.58,1.53,0,2.97-.88,2.97-2.82Z"/>
        <path class="cls-2" d="M372.62,446.67h1.09v1.67c.71-1.38,1.85-1.77,2.96-1.77h.66v1.09h-.71c-1.53,0-2.86.82-2.86,3.08v4.78h-1.14v-8.84Z"/>
        <path class="cls-2" d="M378.43,451.09c0-2.62,1.55-4.62,4.04-4.62s4.05,2.01,4.05,4.62v.39h-6.88c.12,1.84,1.09,3.2,2.84,3.2,1.34,0,2.31-.75,2.72-1.94h1.16c-.51,1.78-1.92,2.97-3.88,2.97-2.5,0-4.04-2.01-4.04-4.62ZM385.31,450.44c-.19-1.72-1.16-2.94-2.84-2.94s-2.63,1.22-2.82,2.94h5.66Z"/>
        <path class="cls-2" d="M387.66,452.62h1.16c.12,1.44.99,2.11,2.57,2.11,1.38,0,2.33-.51,2.33-1.55,0-.88-.34-1.29-2.43-1.63-2.63-.42-3.35-1.22-3.35-2.63,0-1.51,1.36-2.45,3.21-2.45,2.23,0,3.5,1.07,3.54,2.92h-1.14c-.05-1.41-.95-1.94-2.4-1.94-1.16,0-2.07.51-2.07,1.45s.51,1.29,2.52,1.63c2.58.42,3.28,1.17,3.28,2.58,0,1.73-1.56,2.6-3.48,2.6-2.18,0-3.62-1.05-3.72-3.09Z"/>
        <path class="cls-2" d="M396.14,453.55h1.34v1.96h-1.34v-1.96Z"/>
      </g>
      <g>
        <path class="cls-2" d="M68.58,456.91v-6.73c0-.65.52-1.12,1.12-1.12s1.13.47,1.13,1.12v6.74c0,1.83-1.48,3.37-3.32,3.36h-13.63c-1.75,0-3.25-1.51-3.25-3.26v-13.69c0-1.79,1.54-3.26,3.31-3.26h11.32c.62,0,1.07.52,1.09,1.08s-.42,1.15-1.05,1.15h-11.3c-.64,0-1.13.5-1.13,1.14v13.47c0,.64.49,1.13,1.13,1.13h13.41c.66,0,1.18-.45,1.18-1.13Z"/>
        <path class="cls-2" d="M56.55,449.84c-.47-.47-.42-1.19.03-1.61s1.12-.41,1.57.03l2.57,2.56,9.35-9.35c.44-.44,1.16-.35,1.54.03.44.45.45,1.15,0,1.6l-10.1,10.1c-.46.46-1.16.42-1.6-.02l-3.35-3.35Z"/>
      </g>
      <g>
        <path class="cls-2" d="M94.82,496.95h-5.95l-1.43,3.59h-1.26l5.01-12.24h1.29l5.01,12.24h-1.26l-1.43-3.59ZM94.38,495.86l-2.53-6.34-2.53,6.34h5.07Z"/>
        <path class="cls-2" d="M102.66,492.53c-1.04,0-2.67.73-2.67,3.06v4.95h-1.14v-8.84h1.09v1.44c.58-.93,1.53-1.65,2.92-1.65,2.18,0,3.14,1.51,3.14,3.28v5.76h-1.1v-5.64c0-1.48-.77-2.36-2.24-2.36Z"/>
        <path class="cls-2" d="M113.73,499.16c-.75,1.16-1.87,1.58-3.08,1.58-1.94,0-3.06-.99-3.06-2.57s1.1-2.29,3.18-2.72l2.91-.58v-.73c0-1.17-.76-1.65-2.14-1.65-1.22,0-2.45.44-2.48,1.92h-1.14c.05-2.09,1.75-2.92,3.62-2.92,2.19,0,3.25.97,3.25,2.53v6.51h-1.05v-1.38ZM113.68,496.91v-1.09l-2.75.6c-1.38.31-2.18.65-2.18,1.73,0,.92.61,1.58,1.96,1.58,1.53,0,2.97-.88,2.97-2.82ZM112.59,488.09h1.5l-2.24,2.48h-1l1.75-2.48Z"/>
        <path class="cls-2" d="M117.77,488.3v10.1c0,.73.22,1.14,1.02,1.14h1.12v1h-1.31c-1.55,0-1.97-.76-1.97-2.02v-10.22h1.14Z"/>
        <path class="cls-2" d="M121.41,488.3h1.14v1.68h-1.14v-1.68ZM121.41,491.7h1.12v8.84h-1.12v-8.84Z"/>
        <path class="cls-2" d="M124.03,497.65h1.16c.12,1.44.99,2.11,2.57,2.11,1.38,0,2.33-.51,2.33-1.55,0-.88-.34-1.29-2.43-1.63-2.63-.42-3.35-1.22-3.35-2.63,0-1.51,1.36-2.45,3.21-2.45,2.23,0,3.5,1.07,3.54,2.92h-1.14c-.05-1.41-.95-1.94-2.4-1.94-1.16,0-2.07.51-2.07,1.45s.51,1.29,2.52,1.63c2.58.42,3.28,1.17,3.28,2.58,0,1.73-1.56,2.6-3.48,2.6-2.18,0-3.62-1.05-3.72-3.09Z"/>
        <path class="cls-2" d="M132.73,488.3h1.14v1.68h-1.14v-1.68ZM132.73,491.7h1.12v8.84h-1.12v-8.84Z"/>
        <path class="cls-2" d="M135.35,497.65h1.16c.12,1.44.99,2.11,2.57,2.11,1.38,0,2.33-.51,2.33-1.55,0-.88-.34-1.29-2.43-1.63-2.63-.42-3.35-1.22-3.35-2.63,0-1.51,1.36-2.45,3.21-2.45,2.23,0,3.5,1.07,3.54,2.92h-1.14c-.05-1.41-.95-1.94-2.4-1.94-1.16,0-2.07.51-2.07,1.45s.51,1.29,2.52,1.63c2.58.42,3.28,1.17,3.28,2.58,0,1.73-1.56,2.6-3.48,2.6-2.18,0-3.62-1.05-3.72-3.09Z"/>
        <path class="cls-2" d="M149.65,488.98v2.72h2.46v1h-2.46v5.69c0,.73.22,1.14,1.02,1.14h1.44v1h-1.63c-1.55,0-1.97-.76-1.97-2.02v-5.81h-1.65v-1h1.65v-2.72h1.14Z"/>
        <path class="cls-2" d="M159.24,499.16c-.75,1.16-1.87,1.58-3.08,1.58-1.94,0-3.06-.99-3.06-2.57s1.11-2.29,3.18-2.72l2.91-.58v-.73c0-1.17-.77-1.65-2.14-1.65-1.22,0-2.45.44-2.48,1.92h-1.14c.05-2.09,1.75-2.92,3.62-2.92,2.19,0,3.25.97,3.25,2.53v6.51h-1.05v-1.38ZM159.18,496.91v-1.09l-2.75.6c-1.38.31-2.18.65-2.18,1.73,0,.92.61,1.58,1.96,1.58,1.53,0,2.97-.88,2.97-2.82ZM158.1,488.09h1.5l-2.24,2.48h-1l1.75-2.48Z"/>
        <path class="cls-2" d="M161.8,496.12c0-2.62,1.53-4.62,4.04-4.62,2.07,0,3.4,1.29,3.71,3.14h-1.17c-.27-1.27-1.19-2.11-2.53-2.11-1.87,0-2.87,1.55-2.87,3.59s1,3.59,2.87,3.59c1.38,0,2.31-.88,2.55-2.19h1.17c-.27,1.9-1.72,3.23-3.72,3.23-2.52,0-4.04-2.01-4.04-4.62Z"/>
        <path class="cls-2" d="M173.19,488.98v2.72h2.46v1h-2.46v5.69c0,.73.22,1.14,1.02,1.14h1.45v1h-1.63c-1.55,0-1.97-.76-1.97-2.02v-5.81h-1.65v-1h1.65v-2.72h1.14Z"/>
        <path class="cls-2" d="M177.15,488.3h1.14v1.68h-1.14v-1.68ZM177.15,491.7h1.12v8.84h-1.12v-8.84Z"/>
        <path class="cls-2" d="M180.03,496.12c0-2.62,1.53-4.62,4.04-4.62,2.07,0,3.4,1.29,3.71,3.14h-1.17c-.27-1.27-1.19-2.11-2.53-2.11-1.87,0-2.87,1.55-2.87,3.59s1,3.59,2.87,3.59c1.38,0,2.31-.88,2.55-2.19h1.17c-.27,1.9-1.72,3.23-3.72,3.23-2.52,0-4.04-2.01-4.04-4.62Z"/>
        <path class="cls-2" d="M189,496.12c0-2.62,1.55-4.62,4.17-4.62s4.16,2.01,4.16,4.62-1.53,4.62-4.16,4.62-4.17-2.01-4.17-4.62ZM196.16,496.12c0-2.04-.99-3.59-2.99-3.59s-2.97,1.55-2.97,3.59.99,3.59,2.97,3.59,2.99-1.55,2.99-3.59Z"/>
        <path class="cls-2" d="M202.06,502.93h1.27c.87,0,1.07-.36,1.38-1.14l.48-1.26-3.42-8.84h1.22l2.77,7.46,2.79-7.46h1.22l-4.01,10.39c-.41,1.05-.77,1.85-2.04,1.85h-1.67v-1Z"/>
        <path class="cls-2" d="M214.25,496.12c0-2.62,1.53-4.62,4.04-4.62,2.07,0,3.4,1.29,3.71,3.14h-1.17c-.27-1.27-1.19-2.11-2.53-2.11-1.87,0-2.87,1.55-2.87,3.59s1,3.59,2.87,3.59c1.38,0,2.31-.88,2.55-2.19h1.17c-.27,1.9-1.72,3.23-3.72,3.23-2.52,0-4.04-2.01-4.04-4.62Z"/>
        <path class="cls-2" d="M223.22,496.12c0-2.62,1.55-4.62,4.17-4.62s4.16,2.01,4.16,4.62-1.53,4.62-4.16,4.62-4.17-2.01-4.17-4.62ZM230.38,496.12c0-2.04-.99-3.59-2.99-3.59s-2.97,1.55-2.97,3.59.99,3.59,2.97,3.59,2.99-1.55,2.99-3.59Z"/>
        <path class="cls-2" d="M237.09,492.53c-1.04,0-2.67.73-2.67,3.06v4.95h-1.14v-8.84h1.09v1.44c.58-.93,1.53-1.65,2.92-1.65,2.18,0,3.14,1.51,3.14,3.28v5.76h-1.1v-5.64c0-1.48-.77-2.36-2.24-2.36Z"/>
        <path class="cls-2" d="M244.57,488.98v2.72h2.46v1h-2.46v5.69c0,.73.22,1.14,1.02,1.14h1.45v1h-1.63c-1.55,0-1.97-.76-1.97-2.02v-5.81h-1.65v-1h1.65v-2.72h1.14Z"/>
        <path class="cls-2" d="M248.16,496.12c0-2.62,1.55-4.62,4.05-4.62s4.04,2.01,4.04,4.62v.39h-6.88c.12,1.84,1.09,3.2,2.84,3.2,1.34,0,2.31-.75,2.72-1.94h1.16c-.51,1.78-1.92,2.97-3.88,2.97-2.5,0-4.05-2.01-4.05-4.62ZM255.05,495.47c-.19-1.72-1.16-2.94-2.84-2.94s-2.63,1.22-2.82,2.94h5.66Z"/>
        <path class="cls-2" d="M261.12,496.9l-2.69,3.64h-1.33l3.35-4.52-3.2-4.32h1.33l2.53,3.42,2.53-3.42h1.31l-3.18,4.32,3.35,4.52h-1.33l-2.69-3.64Z"/>
        <path class="cls-2" d="M268.37,488.98v2.72h2.46v1h-2.46v5.69c0,.73.22,1.14,1.02,1.14h1.45v1h-1.63c-1.55,0-1.97-.76-1.97-2.02v-5.81h-1.65v-1h1.65v-2.72h1.14Z"/>
        <path class="cls-2" d="M275.7,499.7c1.04,0,2.67-.73,2.67-3.06v-4.95h1.14v8.84h-1.09v-1.45c-.58.94-1.53,1.65-2.92,1.65-2.18,0-3.15-1.51-3.15-3.28v-5.76h1.11v5.64c0,1.48.76,2.36,2.24,2.36Z"/>
        <path class="cls-2" d="M287.23,499.16c-.75,1.16-1.87,1.58-3.08,1.58-1.94,0-3.06-.99-3.06-2.57s1.1-2.29,3.18-2.72l2.91-.58v-.73c0-1.17-.76-1.65-2.14-1.65-1.22,0-2.45.44-2.48,1.92h-1.14c.05-2.09,1.75-2.92,3.62-2.92,2.19,0,3.25.97,3.25,2.53v6.51h-1.05v-1.38ZM287.17,496.91v-1.09l-2.75.6c-1.38.31-2.18.65-2.18,1.73,0,.92.61,1.58,1.96,1.58,1.53,0,2.97-.88,2.97-2.82Z"/>
        <path class="cls-2" d="M291.27,488.3v10.1c0,.73.22,1.14,1.02,1.14h1.12v1h-1.31c-1.55,0-1.97-.76-1.97-2.02v-10.22h1.14Z"/>
        <path class="cls-2" d="M298.14,496.12c0-2.62,1.53-4.62,4.04-4.62,2.07,0,3.4,1.29,3.71,3.14h-1.17c-.27-1.27-1.19-2.11-2.53-2.11-1.87,0-2.87,1.55-2.87,3.59s1,3.59,2.87,3.59c1.38,0,2.31-.88,2.55-2.19h1.17c-.27,1.9-1.72,3.23-3.72,3.23-2.52,0-4.04-2.01-4.04-4.62Z"/>
        <path class="cls-2" d="M307.12,496.12c0-2.62,1.55-4.62,4.17-4.62s4.16,2.01,4.16,4.62-1.53,4.62-4.16,4.62-4.17-2.01-4.17-4.62ZM314.27,496.12c0-2.04-.99-3.59-2.99-3.59s-2.97,1.55-2.97,3.59.99,3.59,2.97,3.59,2.99-1.55,2.99-3.59Z"/>
        <path class="cls-2" d="M326.46,492.53c-1.04,0-2.48.73-2.48,3.06v4.95h-1.14v-5.64c0-1.48-.82-2.36-2.04-2.36-1.04,0-2.48.73-2.48,3.06v4.95h-1.14v-8.84h1.09v1.41c.49-.92,1.34-1.61,2.74-1.61s2.31.78,2.72,1.87c.51-1.05,1.43-1.87,2.94-1.87,1.92,0,2.97,1.51,2.97,3.28v5.76h-1.14v-5.64c0-1.48-.82-2.36-2.04-2.36Z"/>
        <path class="cls-2" d="M332.84,491.7v1.58c.61-1.11,1.67-1.79,3.11-1.79,2.62,0,4.05,2.01,4.05,4.62s-1.43,4.62-4.05,4.62c-1.41,0-2.43-.65-3.06-1.7v4.9h-1.14v-12.24h1.09ZM332.85,496.12c0,2.04.99,3.59,2.97,3.59s2.99-1.55,2.99-3.59-1-3.59-2.99-3.59-2.97,1.55-2.97,3.59Z"/>
        <path class="cls-2" d="M342.85,488.3v10.1c0,.73.22,1.14,1.02,1.14h1.12v1h-1.31c-1.55,0-1.97-.76-1.97-2.02v-10.22h1.14Z"/>
        <path class="cls-2" d="M346.11,496.12c0-2.62,1.55-4.62,4.04-4.62s4.05,2.01,4.05,4.62v.39h-6.88c.12,1.84,1.09,3.2,2.84,3.2,1.34,0,2.31-.75,2.72-1.94h1.16c-.51,1.78-1.92,2.97-3.88,2.97-2.5,0-4.04-2.01-4.04-4.62ZM353,495.47c-.19-1.72-1.16-2.94-2.84-2.94s-2.63,1.22-2.82,2.94h5.66Z"/>
        <path class="cls-2" d="M357.96,488.98v2.72h2.46v1h-2.46v5.69c0,.73.22,1.14,1.02,1.14h1.45v1h-1.63c-1.55,0-1.97-.76-1.97-2.02v-5.81h-1.65v-1h1.65v-2.72h1.14Z"/>
        <path class="cls-2" d="M361.55,496.12c0-2.62,1.55-4.62,4.17-4.62s4.16,2.01,4.16,4.62-1.53,4.62-4.16,4.62-4.17-2.01-4.17-4.62ZM368.71,496.12c0-2.04-.99-3.59-2.99-3.59s-2.97,1.55-2.97,3.59.99,3.59,2.97,3.59,2.99-1.55,2.99-3.59Z"/>
        <path class="cls-2" d="M371.38,498.58h1.34v1.96h-1.34v-1.96Z"/>
      </g>
      <g>
        <path class="cls-2" d="M68.58,501.93v-6.73c0-.65.52-1.12,1.12-1.12s1.13.47,1.13,1.12v6.74c0,1.83-1.48,3.37-3.32,3.36h-13.63c-1.75,0-3.25-1.51-3.25-3.26v-13.69c0-1.79,1.54-3.26,3.31-3.26h11.32c.62,0,1.07.52,1.09,1.08s-.42,1.15-1.05,1.15h-11.3c-.64,0-1.13.5-1.13,1.14v13.47c0,.64.49,1.13,1.13,1.13h13.41c.66,0,1.18-.45,1.18-1.13Z"/>
        <path class="cls-2" d="M56.55,494.87c-.47-.47-.42-1.19.03-1.61s1.12-.41,1.57.03l2.57,2.56,9.35-9.35c.44-.44,1.16-.35,1.54.03.44.45.45,1.15,0,1.6l-10.1,10.1c-.46.46-1.16.42-1.6-.02l-3.35-3.35Z"/>
      </g>
      <g>
        <path class="cls-2" d="M86.56,539.44c0-3.38,1.9-6.32,5.73-6.32,3.06,0,4.93,1.87,5.34,4.33h-1.21c-.31-1.87-1.8-3.23-4.13-3.23-3.08,0-4.49,2.41-4.49,5.22s1.41,5.22,4.49,5.22c2.69,0,4.03-1.83,4.32-4.25h-4.83v-1.09h6.02v6.24h-1.05v-2.5c-.75,1.62-2.14,2.7-4.45,2.7-3.82,0-5.73-2.94-5.73-6.32Z"/>
        <path class="cls-2" d="M99.45,541.14c0-2.62,1.55-4.62,4.05-4.62s4.04,2.01,4.04,4.62v.39h-6.88c.12,1.84,1.09,3.2,2.84,3.2,1.34,0,2.31-.75,2.72-1.94h1.16c-.51,1.78-1.92,2.97-3.88,2.97-2.5,0-4.05-2.01-4.05-4.62ZM106.33,540.5c-.19-1.72-1.16-2.94-2.84-2.94s-2.63,1.22-2.82,2.94h5.66Z"/>
        <path class="cls-2" d="M108.68,542.67h1.16c.12,1.44.99,2.11,2.57,2.11,1.38,0,2.33-.51,2.33-1.55,0-.88-.34-1.29-2.43-1.63-2.63-.42-3.35-1.22-3.35-2.63,0-1.51,1.36-2.45,3.21-2.45,2.23,0,3.5,1.07,3.54,2.92h-1.14c-.05-1.41-.95-1.94-2.4-1.94-1.16,0-2.07.51-2.07,1.45s.51,1.29,2.52,1.63c2.58.42,3.28,1.17,3.28,2.58,0,1.73-1.56,2.6-3.48,2.6-2.18,0-3.62-1.05-3.72-3.09Z"/>
        <path class="cls-2" d="M119.42,534v2.72h2.46v1h-2.46v5.69c0,.73.22,1.14,1.02,1.14h1.44v1h-1.63c-1.55,0-1.97-.76-1.97-2.02v-5.81h-1.65v-1h1.65v-2.72h1.14Z"/>
        <path class="cls-2" d="M123.38,533.32h1.14v1.68h-1.14v-1.68ZM123.38,536.72h1.12v8.84h-1.12v-8.84Z"/>
        <path class="cls-2" d="M126.2,541.14c0-2.62,1.55-4.62,4.17-4.62s4.16,2.01,4.16,4.62-1.53,4.62-4.16,4.62-4.17-2.01-4.17-4.62ZM133.36,541.14c0-2.04-.99-3.59-2.99-3.59s-2.97,1.55-2.97,3.59.99,3.59,2.97,3.59,2.99-1.55,2.99-3.59ZM131.63,533.12h1.5l-2.24,2.48h-1l1.75-2.48Z"/>
        <path class="cls-2" d="M140.08,537.56c-1.04,0-2.67.73-2.67,3.06v4.95h-1.14v-8.84h1.09v1.44c.58-.93,1.53-1.65,2.92-1.65,2.18,0,3.14,1.51,3.14,3.28v5.76h-1.1v-5.64c0-1.48-.76-2.36-2.24-2.36Z"/>
        <path class="cls-2" d="M155.85,545.56v-1.58c-.61,1.11-1.67,1.79-3.11,1.79-2.62,0-4.04-2.01-4.04-4.62s1.43-4.62,4.04-4.62c1.41,0,2.43.65,3.06,1.7v-4.89h1.14v12.24h-1.09ZM155.83,541.14c0-2.04-.99-3.59-2.97-3.59s-2.99,1.55-2.99,3.59,1,3.59,2.99,3.59,2.97-1.55,2.97-3.59Z"/>
        <path class="cls-2" d="M158.66,541.14c0-2.62,1.55-4.62,4.04-4.62s4.05,2.01,4.05,4.62v.39h-6.88c.12,1.84,1.09,3.2,2.84,3.2,1.34,0,2.31-.75,2.72-1.94h1.16c-.51,1.78-1.92,2.97-3.88,2.97-2.5,0-4.04-2.01-4.04-4.62ZM165.54,540.5c-.19-1.72-1.16-2.94-2.84-2.94s-2.63,1.22-2.82,2.94h5.66Z"/>
        <path class="cls-2" d="M172.04,536.72h1.09v1.67c.71-1.38,1.85-1.77,2.96-1.77h.66v1.09h-.71c-1.53,0-2.86.82-2.86,3.08v4.78h-1.14v-8.84Z"/>
        <path class="cls-2" d="M178.22,533.32h1.14v1.68h-1.14v-1.68ZM178.22,536.72h1.12v8.84h-1.12v-8.84Z"/>
        <path class="cls-2" d="M181.05,541.14c0-2.62,1.55-4.62,4.04-4.62s4.05,2.01,4.05,4.62v.39h-6.88c.12,1.84,1.09,3.2,2.84,3.2,1.34,0,2.31-.75,2.72-1.94h1.16c-.51,1.78-1.92,2.97-3.88,2.97-2.5,0-4.04-2.01-4.04-4.62ZM187.93,540.5c-.19-1.72-1.16-2.94-2.84-2.94s-2.63,1.22-2.82,2.94h5.66Z"/>
        <path class="cls-2" d="M190.28,542.67h1.16c.12,1.44.99,2.11,2.57,2.11,1.38,0,2.33-.51,2.33-1.55,0-.88-.34-1.29-2.43-1.63-2.63-.42-3.35-1.22-3.35-2.63,0-1.51,1.36-2.45,3.21-2.45,2.23,0,3.5,1.07,3.54,2.92h-1.14c-.05-1.41-.95-1.94-2.4-1.94-1.16,0-2.07.51-2.07,1.45s.51,1.29,2.52,1.63c2.58.42,3.28,1.17,3.28,2.58,0,1.73-1.56,2.6-3.48,2.6-2.18,0-3.62-1.05-3.72-3.09Z"/>
        <path class="cls-2" d="M199.1,546.34h1.12c.2,1.29,1.11,1.84,2.63,1.84s2.87-.73,2.87-2.84v-1.31c-.63,1.07-1.67,1.73-3.08,1.73-2.62,0-4.04-2.01-4.04-4.62s1.43-4.62,4.04-4.62c1.46,0,2.52.7,3.13,1.82v-1.61h1.07v8.62c0,2.52-1.6,3.82-4,3.82s-3.55-1.07-3.76-2.82ZM205.75,541.14c0-2.04-.99-3.59-2.97-3.59s-2.99,1.55-2.99,3.59,1,3.59,2.99,3.59,2.97-1.55,2.97-3.59Z"/>
        <path class="cls-2" d="M208.57,541.14c0-2.62,1.55-4.62,4.16-4.62s4.17,2.01,4.17,4.62-1.53,4.62-4.17,4.62-4.16-2.01-4.16-4.62ZM215.73,541.14c0-2.04-.99-3.59-2.99-3.59s-2.97,1.55-2.97,3.59.99,3.59,2.97,3.59,2.99-1.55,2.99-3.59Z"/>
        <path class="cls-2" d="M223.27,536.72v1.58c.61-1.11,1.67-1.79,3.11-1.79,2.62,0,4.04,2.01,4.04,4.62s-1.43,4.62-4.04,4.62c-1.41,0-2.43-.65-3.06-1.7v4.9h-1.14v-12.24h1.09ZM223.29,541.14c0,2.04.99,3.59,2.97,3.59s2.99-1.55,2.99-3.59-1-3.59-2.99-3.59-2.97,1.55-2.97,3.59Z"/>
        <path class="cls-2" d="M231.76,541.14c0-2.62,1.55-4.62,4.17-4.62s4.16,2.01,4.16,4.62-1.53,4.62-4.16,4.62-4.17-2.01-4.17-4.62ZM238.91,541.14c0-2.04-.99-3.59-2.99-3.59s-2.97,1.55-2.97,3.59.99,3.59,2.97,3.59,2.99-1.55,2.99-3.59Z"/>
        <path class="cls-2" d="M241.82,536.72h1.09v1.67c.71-1.38,1.85-1.77,2.96-1.77h.66v1.09h-.71c-1.53,0-2.86.82-2.86,3.08v4.78h-1.14v-8.84Z"/>
        <path class="cls-2" d="M250.81,548.96h-1.31v-1h1.12c.8,0,1.02-.41,1.02-1.14v-10.1h1.14v10.22c0,1.26-.42,2.02-1.97,2.02ZM251.66,533.32h1.14v1.68h-1.14v-1.68Z"/>
        <path class="cls-2" d="M254.49,541.14c0-2.62,1.55-4.62,4.16-4.62s4.17,2.01,4.17,4.62-1.53,4.62-4.17,4.62-4.16-2.01-4.16-4.62ZM261.64,541.14c0-2.04-.99-3.59-2.99-3.59s-2.97,1.55-2.97,3.59.99,3.59,2.97,3.59,2.99-1.55,2.99-3.59Z"/>
        <path class="cls-2" d="M264.55,536.72h1.09v1.67c.71-1.38,1.85-1.77,2.96-1.77h.66v1.09h-.71c-1.53,0-2.86.82-2.86,3.08v4.78h-1.14v-8.84Z"/>
        <path class="cls-2" d="M274.56,537.56c-1.04,0-2.67.73-2.67,3.06v4.95h-1.14v-8.84h1.09v1.44c.58-.93,1.53-1.65,2.92-1.65,2.18,0,3.14,1.51,3.14,3.28v5.76h-1.1v-5.64c0-1.48-.77-2.36-2.24-2.36Z"/>
        <path class="cls-2" d="M285.63,544.18c-.75,1.16-1.87,1.58-3.08,1.58-1.94,0-3.06-.99-3.06-2.57s1.11-2.29,3.18-2.72l2.91-.58v-.73c0-1.17-.77-1.65-2.14-1.65-1.22,0-2.45.44-2.48,1.92h-1.14c.05-2.09,1.75-2.92,3.62-2.92,2.19,0,3.25.97,3.25,2.53v6.51h-1.05v-1.38ZM285.58,541.94v-1.09l-2.75.6c-1.38.31-2.18.65-2.18,1.73,0,.92.61,1.58,1.96,1.58,1.53,0,2.97-.88,2.97-2.82Z"/>
        <path class="cls-2" d="M295.3,545.56v-1.58c-.61,1.11-1.67,1.79-3.11,1.79-2.62,0-4.05-2.01-4.05-4.62s1.43-4.62,4.05-4.62c1.41,0,2.43.65,3.06,1.7v-4.89h1.14v12.24h-1.09ZM295.28,541.14c0-2.04-.99-3.59-2.97-3.59s-2.99,1.55-2.99,3.59,1,3.59,2.99,3.59,2.97-1.55,2.97-3.59Z"/>
        <path class="cls-2" d="M304.11,544.18c-.75,1.16-1.87,1.58-3.08,1.58-1.94,0-3.06-.99-3.06-2.57s1.1-2.29,3.18-2.72l2.91-.58v-.73c0-1.17-.76-1.65-2.14-1.65-1.22,0-2.45.44-2.48,1.92h-1.14c.05-2.09,1.75-2.92,3.62-2.92,2.19,0,3.25.97,3.25,2.53v6.51h-1.05v-1.38ZM304.06,541.94v-1.09l-2.75.6c-1.38.31-2.18.65-2.18,1.73,0,.92.61,1.58,1.96,1.58,1.53,0,2.97-.88,2.97-2.82Z"/>
        <path class="cls-2" d="M306.78,543.61h1.34v1.96h-1.34v-1.96Z"/>
      </g>
      <g>
        <path class="cls-2" d="M68.58,546.96v-6.73c0-.65.52-1.12,1.12-1.12s1.13.47,1.13,1.12v6.74c0,1.83-1.48,3.37-3.32,3.36h-13.63c-1.75,0-3.25-1.51-3.25-3.26v-13.69c0-1.79,1.54-3.26,3.31-3.26h11.32c.62,0,1.07.52,1.09,1.08s-.42,1.15-1.05,1.15h-11.3c-.64,0-1.13.5-1.13,1.14v13.47c0,.64.49,1.13,1.13,1.13h13.41c.66,0,1.18-.45,1.18-1.13Z"/>
        <path class="cls-2" d="M56.55,539.89c-.47-.47-.42-1.19.03-1.61s1.12-.41,1.57.03l2.57,2.56,9.35-9.35c.44-.44,1.16-.35,1.54.03.44.45.45,1.15,0,1.6l-10.1,10.1c-.46.46-1.16.42-1.6-.02l-3.35-3.35Z"/>
      </g>
      <g>
        <path class="cls-2" d="M87.05,578.35h4.95c2.77,0,4.11,1.34,4.11,3.43,0,1.22-.63,2.33-2.06,2.94.99.31,1.46,1.07,1.62,2.02l.61,3.84h-1.22l-.48-3.23c-.22-1.45-.83-2.16-2.52-2.16h-3.84v5.39h-1.17v-12.24ZM92,584.13c1.97,0,2.91-.94,2.91-2.35s-.94-2.36-2.91-2.36h-3.77v4.71h3.77Z"/>
        <path class="cls-2" d="M97.44,586.17c0-2.62,1.55-4.62,4.05-4.62s4.04,2.01,4.04,4.62v.39h-6.88c.12,1.84,1.09,3.2,2.84,3.2,1.34,0,2.31-.75,2.72-1.94h1.16c-.51,1.78-1.92,2.97-3.88,2.97-2.5,0-4.05-2.01-4.05-4.62ZM104.33,585.52c-.19-1.72-1.16-2.94-2.84-2.94s-2.63,1.22-2.82,2.94h5.66Z"/>
        <path class="cls-2" d="M108.36,581.75v1.58c.61-1.11,1.67-1.79,3.11-1.79,2.62,0,4.05,2.01,4.05,4.62s-1.43,4.62-4.05,4.62c-1.41,0-2.43-.65-3.06-1.7v4.9h-1.14v-12.24h1.09ZM108.37,586.17c0,2.04.99,3.59,2.97,3.59s2.99-1.55,2.99-3.59-1-3.59-2.99-3.59-2.97,1.55-2.97,3.59Z"/>
        <path class="cls-2" d="M116.84,586.17c0-2.62,1.55-4.62,4.16-4.62s4.17,2.01,4.17,4.62-1.53,4.62-4.17,4.62-4.16-2.01-4.16-4.62ZM123.99,586.17c0-2.04-.99-3.59-2.99-3.59s-2.97,1.55-2.97,3.59.99,3.59,2.97,3.59,2.99-1.55,2.99-3.59Z"/>
        <path class="cls-2" d="M126.9,581.75h1.09v1.67c.71-1.38,1.85-1.77,2.96-1.77h.66v1.09h-.71c-1.53,0-2.86.82-2.86,3.08v4.78h-1.14v-8.84Z"/>
        <path class="cls-2" d="M135.13,579.03v2.72h2.46v1h-2.46v5.69c0,.73.22,1.14,1.02,1.14h1.45v1h-1.63c-1.55,0-1.97-.76-1.97-2.02v-5.81h-1.65v-1h1.65v-2.72h1.14Z"/>
        <path class="cls-2" d="M138.72,586.17c0-2.62,1.55-4.62,4.05-4.62s4.04,2.01,4.04,4.62v.39h-6.88c.12,1.84,1.09,3.2,2.84,3.2,1.34,0,2.31-.75,2.72-1.94h1.16c-.51,1.78-1.92,2.97-3.88,2.97-2.5,0-4.05-2.01-4.05-4.62ZM145.6,585.52c-.19-1.72-1.16-2.94-2.84-2.94s-2.63,1.22-2.82,2.94h5.66Z"/>
        <path class="cls-2" d="M147.95,587.7h1.16c.12,1.44.99,2.11,2.57,2.11,1.38,0,2.33-.51,2.33-1.55,0-.88-.34-1.29-2.43-1.63-2.63-.42-3.35-1.22-3.35-2.63,0-1.51,1.36-2.45,3.21-2.45,2.23,0,3.5,1.07,3.54,2.92h-1.14c-.05-1.41-.95-1.94-2.4-1.94-1.16,0-2.07.51-2.07,1.45s.51,1.29,2.52,1.63c2.58.42,3.28,1.17,3.28,2.58,0,1.73-1.56,2.6-3.48,2.6-2.18,0-3.62-1.05-3.72-3.09Z"/>
        <path class="cls-2" d="M159.83,586.17c0-2.62,1.55-4.62,4.04-4.62s4.05,2.01,4.05,4.62v.39h-6.88c.12,1.84,1.09,3.2,2.84,3.2,1.34,0,2.31-.75,2.72-1.94h1.16c-.51,1.78-1.92,2.97-3.88,2.97-2.5,0-4.04-2.01-4.04-4.62ZM166.71,585.52c-.19-1.72-1.16-2.94-2.84-2.94s-2.63,1.22-2.82,2.94h5.66Z"/>
        <path class="cls-2" d="M169.06,587.7h1.16c.12,1.44.99,2.11,2.57,2.11,1.38,0,2.33-.51,2.33-1.55,0-.88-.34-1.29-2.43-1.63-2.63-.42-3.35-1.22-3.35-2.63,0-1.51,1.36-2.45,3.21-2.45,2.23,0,3.5,1.07,3.54,2.92h-1.14c-.05-1.41-.95-1.94-2.4-1.94-1.16,0-2.07.51-2.07,1.45s.51,1.29,2.52,1.63c2.58.42,3.28,1.17,3.28,2.58,0,1.73-1.56,2.6-3.48,2.6-2.18,0-3.62-1.05-3.72-3.09Z"/>
        <path class="cls-2" d="M179.81,579.03v2.72h2.46v1h-2.46v5.69c0,.73.22,1.14,1.02,1.14h1.45v1h-1.63c-1.55,0-1.97-.76-1.97-2.02v-5.81h-1.65v-1h1.65v-2.72h1.14Z"/>
        <path class="cls-2" d="M183.78,581.75h1.09v1.67c.71-1.38,1.85-1.77,2.96-1.77h.66v1.09h-.71c-1.53,0-2.86.82-2.86,3.08v4.78h-1.14v-8.84Z"/>
        <path class="cls-2" d="M193.34,589.75c1.04,0,2.67-.73,2.67-3.06v-4.95h1.14v8.84h-1.09v-1.45c-.58.94-1.53,1.65-2.92,1.65-2.18,0-3.14-1.51-3.14-3.28v-5.76h1.1v5.64c0,1.48.77,2.36,2.24,2.36Z"/>
        <path class="cls-2" d="M198.91,586.17c0-2.62,1.53-4.62,4.05-4.62,2.07,0,3.4,1.29,3.71,3.14h-1.17c-.27-1.27-1.19-2.11-2.53-2.11-1.87,0-2.87,1.55-2.87,3.59s1,3.59,2.87,3.59c1.38,0,2.31-.88,2.55-2.19h1.17c-.27,1.9-1.72,3.23-3.72,3.23-2.52,0-4.05-2.01-4.05-4.62Z"/>
        <path class="cls-2" d="M210.3,579.03v2.72h2.46v1h-2.46v5.69c0,.73.22,1.14,1.02,1.14h1.44v1h-1.63c-1.55,0-1.97-.76-1.97-2.02v-5.81h-1.65v-1h1.65v-2.72h1.14Z"/>
        <path class="cls-2" d="M217.63,589.75c1.04,0,2.67-.73,2.67-3.06v-4.95h1.14v8.84h-1.09v-1.45c-.58.94-1.53,1.65-2.92,1.65-2.18,0-3.14-1.51-3.14-3.28v-5.76h1.1v5.64c0,1.48.77,2.36,2.24,2.36Z"/>
        <path class="cls-2" d="M223.55,581.75h1.09v1.67c.71-1.38,1.85-1.77,2.96-1.77h.66v1.09h-.71c-1.53,0-2.86.82-2.86,3.08v4.78h-1.14v-8.84Z"/>
        <path class="cls-2" d="M235.36,589.21c-.75,1.16-1.87,1.58-3.08,1.58-1.94,0-3.06-.99-3.06-2.57s1.11-2.29,3.18-2.72l2.91-.58v-.73c0-1.17-.77-1.65-2.14-1.65-1.22,0-2.45.44-2.48,1.92h-1.14c.05-2.09,1.75-2.92,3.62-2.92,2.19,0,3.25.97,3.25,2.53v6.51h-1.05v-1.38ZM235.31,586.97v-1.09l-2.75.6c-1.38.31-2.18.65-2.18,1.73,0,.92.61,1.58,1.96,1.58,1.53,0,2.97-.88,2.97-2.82Z"/>
        <path class="cls-2" d="M245.03,590.59v-1.58c-.61,1.11-1.67,1.79-3.11,1.79-2.62,0-4.05-2.01-4.05-4.62s1.43-4.62,4.05-4.62c1.41,0,2.43.65,3.06,1.7v-4.89h1.14v12.24h-1.09ZM245.02,586.17c0-2.04-.99-3.59-2.97-3.59s-2.99,1.55-2.99,3.59,1,3.59,2.99,3.59,2.97-1.55,2.97-3.59Z"/>
        <path class="cls-2" d="M247.84,586.17c0-2.62,1.55-4.62,4.17-4.62s4.16,2.01,4.16,4.62-1.53,4.62-4.16,4.62-4.17-2.01-4.17-4.62ZM254.99,586.17c0-2.04-.99-3.59-2.99-3.59s-2.97,1.55-2.97,3.59.99,3.59,2.97,3.59,2.99-1.55,2.99-3.59Z"/>
        <path class="cls-2" d="M257.31,587.7h1.16c.12,1.44.99,2.11,2.57,2.11,1.38,0,2.33-.51,2.33-1.55,0-.88-.34-1.29-2.43-1.63-2.63-.42-3.35-1.22-3.35-2.63,0-1.51,1.36-2.45,3.21-2.45,2.23,0,3.5,1.07,3.54,2.92h-1.14c-.05-1.41-.95-1.94-2.4-1.94-1.16,0-2.07.51-2.07,1.45s.51,1.29,2.52,1.63c2.58.42,3.28,1.17,3.28,2.58,0,1.73-1.56,2.6-3.48,2.6-2.18,0-3.62-1.05-3.72-3.09Z"/>
        <path class="cls-2" d="M270.67,581.75v1.58c.61-1.11,1.67-1.79,3.11-1.79,2.62,0,4.04,2.01,4.04,4.62s-1.43,4.62-4.04,4.62c-1.41,0-2.43-.65-3.06-1.7v4.9h-1.14v-12.24h1.09ZM270.69,586.17c0,2.04.99,3.59,2.97,3.59s2.99-1.55,2.99-3.59-1-3.59-2.99-3.59-2.97,1.55-2.97,3.59Z"/>
        <path class="cls-2" d="M279.15,586.17c0-2.62,1.55-4.62,4.17-4.62s4.16,2.01,4.16,4.62-1.53,4.62-4.16,4.62-4.17-2.01-4.17-4.62ZM286.31,586.17c0-2.04-.99-3.59-2.99-3.59s-2.97,1.55-2.97,3.59.99,3.59,2.97,3.59,2.99-1.55,2.99-3.59Z"/>
        <path class="cls-2" d="M289.22,581.75h1.09v1.67c.71-1.38,1.85-1.77,2.96-1.77h.66v1.09h-.71c-1.53,0-2.86.82-2.86,3.08v4.78h-1.14v-8.84Z"/>
        <path class="cls-2" d="M305.74,590.59v-1.58c-.61,1.11-1.67,1.79-3.11,1.79-2.62,0-4.05-2.01-4.05-4.62s1.43-4.62,4.05-4.62c1.41,0,2.43.65,3.06,1.7v-4.89h1.14v12.24h-1.09ZM305.72,586.17c0-2.04-.99-3.59-2.97-3.59s-2.99,1.55-2.99,3.59,1,3.59,2.99,3.59,2.97-1.55,2.97-3.59Z"/>
        <path class="cls-2" d="M308.92,581.75h1.12v8.84h-1.12v-8.84ZM310.72,578.14h1.5l-2.24,2.48h-1l1.75-2.48Z"/>
        <path class="cls-2" d="M317.74,589.21c-.75,1.16-1.87,1.58-3.08,1.58-1.94,0-3.06-.99-3.06-2.57s1.11-2.29,3.18-2.72l2.91-.58v-.73c0-1.17-.77-1.65-2.14-1.65-1.22,0-2.45.44-2.48,1.92h-1.14c.05-2.09,1.75-2.92,3.62-2.92,2.19,0,3.25.97,3.25,2.53v6.51h-1.05v-1.38ZM317.69,586.97v-1.09l-2.75.6c-1.38.31-2.18.65-2.18,1.73,0,.92.61,1.58,1.96,1.58,1.53,0,2.97-.88,2.97-2.82Z"/>
        <path class="cls-2" d="M320.41,588.63h1.34v1.96h-1.34v-1.96Z"/>
      </g>
      <g>
        <path class="cls-2" d="M68.58,591.99v-6.73c0-.65.52-1.12,1.12-1.12s1.13.47,1.13,1.12v6.74c0,1.83-1.48,3.37-3.32,3.36h-13.63c-1.75,0-3.25-1.51-3.25-3.26v-13.69c0-1.79,1.54-3.26,3.31-3.26h11.32c.62,0,1.07.52,1.09,1.08s-.42,1.15-1.05,1.15h-11.3c-.64,0-1.13.5-1.13,1.14v13.47c0,.64.49,1.13,1.13,1.13h13.41c.66,0,1.18-.45,1.18-1.13Z"/>
        <path class="cls-2" d="M56.55,584.92c-.47-.47-.42-1.19.03-1.61s1.12-.41,1.57.03l2.57,2.56,9.35-9.35c.44-.44,1.16-.35,1.54.03.44.45.45,1.15,0,1.6l-10.1,10.1c-.46.46-1.16.42-1.6-.02l-3.35-3.35Z"/>
      </g>
      <g>
        <path class="cls-2" d="M94.82,632.03h-5.95l-1.43,3.59h-1.26l5.01-12.24h1.29l5.01,12.24h-1.26l-1.43-3.59ZM94.38,630.94l-2.53-6.34-2.53,6.34h5.07Z"/>
        <path class="cls-2" d="M98.51,631.19c0-2.62,1.53-4.62,4.04-4.62,2.07,0,3.4,1.29,3.71,3.14h-1.17c-.27-1.27-1.19-2.11-2.53-2.11-1.87,0-2.87,1.55-2.87,3.59s1,3.59,2.87,3.59c1.38,0,2.31-.88,2.55-2.19h1.17c-.27,1.9-1.72,3.23-3.72,3.23-2.52,0-4.04-2.01-4.04-4.62Z"/>
        <path class="cls-2" d="M107.54,631.19c0-2.62,1.53-4.62,4.05-4.62,2.07,0,3.4,1.29,3.71,3.14h-1.17c-.27-1.27-1.19-2.11-2.53-2.11-1.87,0-2.87,1.55-2.87,3.59s1,3.59,2.87,3.59c1.38,0,2.31-.88,2.55-2.19h1.17c-.27,1.9-1.72,3.23-3.72,3.23-2.52,0-4.05-2.01-4.05-4.62Z"/>
        <path class="cls-2" d="M116.52,631.19c0-2.62,1.55-4.62,4.04-4.62s4.05,2.01,4.05,4.62v.39h-6.88c.12,1.84,1.09,3.2,2.84,3.2,1.34,0,2.31-.75,2.72-1.94h1.16c-.51,1.78-1.92,2.97-3.88,2.97-2.5,0-4.04-2.01-4.04-4.62ZM123.4,630.55c-.19-1.72-1.16-2.94-2.84-2.94s-2.63,1.22-2.82,2.94h5.66Z"/>
        <path class="cls-2" d="M125.75,632.72h1.16c.12,1.44.99,2.11,2.57,2.11,1.38,0,2.33-.51,2.33-1.55,0-.88-.34-1.29-2.43-1.63-2.63-.42-3.35-1.22-3.35-2.63,0-1.51,1.36-2.45,3.21-2.45,2.23,0,3.5,1.07,3.54,2.92h-1.14c-.05-1.41-.95-1.94-2.4-1.94-1.16,0-2.07.51-2.07,1.45s.51,1.29,2.52,1.63c2.58.42,3.28,1.17,3.28,2.58,0,1.73-1.56,2.6-3.48,2.6-2.18,0-3.62-1.05-3.72-3.09Z"/>
        <path class="cls-2" d="M134.08,631.19c0-2.62,1.55-4.62,4.17-4.62s4.16,2.01,4.16,4.62-1.53,4.62-4.16,4.62-4.17-2.01-4.17-4.62ZM141.23,631.19c0-2.04-.99-3.59-2.99-3.59s-2.97,1.55-2.97,3.59.99,3.59,2.97,3.59,2.99-1.55,2.99-3.59Z"/>
        <path class="cls-2" d="M153.3,634.24c-.75,1.16-1.87,1.58-3.08,1.58-1.94,0-3.06-.99-3.06-2.57s1.1-2.29,3.18-2.72l2.91-.58v-.73c0-1.17-.76-1.65-2.14-1.65-1.22,0-2.45.44-2.48,1.92h-1.14c.05-2.09,1.75-2.92,3.62-2.92,2.19,0,3.25.97,3.25,2.53v6.51h-1.05v-1.38ZM153.25,631.99v-1.09l-2.75.6c-1.38.31-2.18.65-2.18,1.73,0,.92.61,1.58,1.96,1.58,1.53,0,2.97-.88,2.97-2.82Z"/>
        <path class="cls-2" d="M159.76,623.38h1.14v4.78c.58-.92,1.51-1.58,2.87-1.58,2.18,0,3.14,1.51,3.14,3.28v5.76h-1.1v-5.64c0-1.48-.77-2.36-2.24-2.36-1.04,0-2.67.73-2.67,3.06v4.95h-1.14v-12.24Z"/>
        <path class="cls-2" d="M169.01,623.38h1.14v1.68h-1.14v-1.68ZM169.01,626.77h1.12v8.84h-1.12v-8.84Z"/>
        <path class="cls-2" d="M171.63,632.72h1.16c.12,1.44.99,2.11,2.57,2.11,1.38,0,2.33-.51,2.33-1.55,0-.88-.34-1.29-2.43-1.63-2.63-.42-3.35-1.22-3.35-2.63,0-1.51,1.36-2.45,3.21-2.45,2.23,0,3.5,1.07,3.54,2.92h-1.14c-.05-1.41-.95-1.94-2.4-1.94-1.16,0-2.07.51-2.07,1.45s.51,1.29,2.52,1.63c2.58.42,3.28,1.17,3.28,2.58,0,1.73-1.56,2.6-3.48,2.6-2.18,0-3.62-1.05-3.72-3.09Z"/>
        <path class="cls-2" d="M182.37,624.05v2.72h2.46v1h-2.46v5.69c0,.73.22,1.14,1.02,1.14h1.44v1h-1.63c-1.55,0-1.97-.76-1.97-2.02v-5.81h-1.65v-1h1.65v-2.72h1.14Z"/>
        <path class="cls-2" d="M185.96,631.19c0-2.62,1.55-4.62,4.17-4.62s4.16,2.01,4.16,4.62-1.53,4.62-4.16,4.62-4.17-2.01-4.17-4.62ZM193.12,631.19c0-2.04-.99-3.59-2.99-3.59s-2.97,1.55-2.97,3.59.99,3.59,2.97,3.59,2.99-1.55,2.99-3.59Z"/>
        <path class="cls-2" d="M196.02,626.77h1.09v1.67c.71-1.38,1.85-1.77,2.96-1.77h.66v1.09h-.71c-1.53,0-2.86.82-2.86,3.08v4.78h-1.14v-8.84Z"/>
        <path class="cls-2" d="M202.21,623.38h1.14v1.68h-1.14v-1.68ZM202.21,626.77h1.12v8.84h-1.12v-8.84Z"/>
        <path class="cls-2" d="M211.03,634.24c-.75,1.16-1.87,1.58-3.08,1.58-1.94,0-3.06-.99-3.06-2.57s1.11-2.29,3.18-2.72l2.91-.58v-.73c0-1.17-.77-1.65-2.14-1.65-1.22,0-2.45.44-2.48,1.92h-1.14c.05-2.09,1.75-2.92,3.62-2.92,2.19,0,3.25.97,3.25,2.53v6.51h-1.05v-1.38ZM210.98,631.99v-1.09l-2.75.6c-1.38.31-2.18.65-2.18,1.73,0,.92.61,1.58,1.96,1.58,1.53,0,2.97-.88,2.97-2.82Z"/>
        <path class="cls-2" d="M215.08,623.38v10.1c0,.73.22,1.14,1.02,1.14h1.12v1h-1.31c-1.55,0-1.97-.76-1.97-2.02v-10.22h1.14Z"/>
        <path class="cls-2" d="M221.95,631.19c0-2.62,1.53-4.62,4.05-4.62,2.07,0,3.4,1.29,3.71,3.14h-1.17c-.27-1.27-1.19-2.11-2.53-2.11-1.87,0-2.87,1.55-2.87,3.59s1,3.59,2.87,3.59c1.38,0,2.31-.88,2.55-2.19h1.17c-.27,1.9-1.72,3.23-3.72,3.23-2.52,0-4.05-2.01-4.05-4.62Z"/>
        <path class="cls-2" d="M230.92,631.19c0-2.62,1.55-4.62,4.16-4.62s4.17,2.01,4.17,4.62-1.53,4.62-4.17,4.62-4.16-2.01-4.16-4.62ZM238.08,631.19c0-2.04-.99-3.59-2.99-3.59s-2.97,1.55-2.97,3.59.99,3.59,2.97,3.59,2.99-1.55,2.99-3.59Z"/>
        <path class="cls-2" d="M250.27,627.61c-1.04,0-2.48.73-2.48,3.06v4.95h-1.14v-5.64c0-1.48-.82-2.36-2.04-2.36-1.04,0-2.48.73-2.48,3.06v4.95h-1.14v-8.84h1.09v1.41c.49-.92,1.34-1.61,2.74-1.61s2.31.78,2.72,1.87c.51-1.05,1.43-1.87,2.94-1.87,1.92,0,2.97,1.51,2.97,3.28v5.76h-1.14v-5.64c0-1.48-.82-2.36-2.04-2.36Z"/>
        <path class="cls-2" d="M256.64,626.77v1.58c.61-1.11,1.67-1.79,3.11-1.79,2.62,0,4.04,2.01,4.04,4.62s-1.43,4.62-4.04,4.62c-1.41,0-2.43-.65-3.06-1.7v4.9h-1.14v-12.24h1.09ZM256.66,631.19c0,2.04.99,3.59,2.97,3.59s2.99-1.55,2.99-3.59-1-3.59-2.99-3.59-2.97,1.55-2.97,3.59Z"/>
        <path class="cls-2" d="M266.66,623.38v10.1c0,.73.22,1.14,1.02,1.14h1.12v1h-1.31c-1.55,0-1.97-.76-1.97-2.02v-10.22h1.14Z"/>
        <path class="cls-2" d="M269.92,631.19c0-2.62,1.55-4.62,4.05-4.62s4.04,2.01,4.04,4.62v.39h-6.88c.12,1.84,1.09,3.2,2.84,3.2,1.34,0,2.31-.75,2.72-1.94h1.16c-.51,1.78-1.92,2.97-3.88,2.97-2.5,0-4.05-2.01-4.05-4.62ZM276.81,630.55c-.19-1.72-1.16-2.94-2.84-2.94s-2.63,1.22-2.82,2.94h5.66Z"/>
        <path class="cls-2" d="M281.77,624.05v2.72h2.46v1h-2.46v5.69c0,.73.22,1.14,1.02,1.14h1.44v1h-1.63c-1.55,0-1.97-.76-1.97-2.02v-5.81h-1.65v-1h1.65v-2.72h1.14Z"/>
        <path class="cls-2" d="M285.36,631.19c0-2.62,1.55-4.62,4.17-4.62s4.16,2.01,4.16,4.62-1.53,4.62-4.16,4.62-4.17-2.01-4.17-4.62ZM292.51,631.19c0-2.04-.99-3.59-2.99-3.59s-2.97,1.55-2.97,3.59.99,3.59,2.97,3.59,2.99-1.55,2.99-3.59Z"/>
        <path class="cls-2" d="M295.18,633.66h1.34v1.96h-1.34v-1.96Z"/>
      </g>
      <g>
        <path class="cls-2" d="M68.58,637.01v-6.73c0-.65.52-1.12,1.12-1.12s1.13.47,1.13,1.12v6.74c0,1.83-1.48,3.37-3.32,3.36h-13.63c-1.75,0-3.25-1.51-3.25-3.26v-13.69c0-1.79,1.54-3.26,3.31-3.26h11.32c.62,0,1.07.52,1.09,1.08s-.42,1.15-1.05,1.15h-11.3c-.64,0-1.13.5-1.13,1.14v13.47c0,.64.49,1.13,1.13,1.13h13.41c.66,0,1.18-.45,1.18-1.13Z"/>
        <path class="cls-2" d="M56.55,629.95c-.47-.47-.42-1.19.03-1.61s1.12-.41,1.57.03l2.57,2.56,9.35-9.35c.44-.44,1.16-.35,1.54.03.44.45.45,1.15,0,1.6l-10.1,10.1c-.46.46-1.16.42-1.6-.02l-3.35-3.35Z"/>
      </g>
      <g>
        <path class="cls-2" d="M86.46,676.58h1.22c.1,2.38,1.75,3.2,3.76,3.2s3.26-.88,3.26-2.43c0-1.21-.6-1.87-3.62-2.48-2.92-.58-4.2-1.46-4.2-3.54,0-1.89,1.72-3.13,4.11-3.13,3.2,0,4.61,1.73,4.66,3.96h-1.21c-.1-1.9-1.22-2.89-3.45-2.89-1.77,0-2.89.83-2.89,2.06s.46,1.89,3.45,2.48c3.59.73,4.37,1.82,4.37,3.54,0,2.09-1.75,3.5-4.49,3.5s-4.84-1.24-4.98-4.27Z"/>
        <path class="cls-2" d="M97.08,676.22c0-2.62,1.55-4.62,4.16-4.62s4.17,2.01,4.17,4.62-1.53,4.62-4.17,4.62-4.16-2.01-4.16-4.62ZM104.24,676.22c0-2.04-.99-3.59-2.99-3.59s-2.97,1.55-2.97,3.59.99,3.59,2.97,3.59,2.99-1.55,2.99-3.59Z"/>
        <path class="cls-2" d="M108.24,671.8v1.58c.61-1.11,1.67-1.79,3.11-1.79,2.62,0,4.04,2.01,4.04,4.62s-1.43,4.62-4.04,4.62c-1.41,0-2.43-.65-3.06-1.7v4.9h-1.14v-12.24h1.09ZM108.25,676.22c0,2.04.99,3.59,2.97,3.59s2.99-1.55,2.99-3.59-1-3.59-2.99-3.59-2.97,1.55-2.97,3.59Z"/>
        <path class="cls-2" d="M116.72,676.22c0-2.62,1.55-4.62,4.16-4.62s4.17,2.01,4.17,4.62-1.53,4.62-4.17,4.62-4.16-2.01-4.16-4.62ZM123.88,676.22c0-2.04-.99-3.59-2.99-3.59s-2.97,1.55-2.97,3.59.99,3.59,2.97,3.59,2.99-1.55,2.99-3.59Z"/>
        <path class="cls-2" d="M126.78,671.8h1.09v1.67c.71-1.38,1.85-1.77,2.96-1.77h.66v1.09h-.71c-1.53,0-2.86.82-2.86,3.08v4.78h-1.14v-8.84Z"/>
        <path class="cls-2" d="M135.01,669.08v2.72h2.46v1h-2.46v5.69c0,.73.22,1.14,1.02,1.14h1.45v1h-1.63c-1.55,0-1.97-.76-1.97-2.02v-5.81h-1.65v-1h1.65v-2.72h1.14Z"/>
        <path class="cls-2" d="M138.6,676.22c0-2.62,1.55-4.62,4.05-4.62s4.04,2.01,4.04,4.62v.39h-6.88c.12,1.84,1.09,3.2,2.84,3.2,1.34,0,2.31-.75,2.72-1.94h1.16c-.51,1.78-1.92,2.97-3.87,2.97-2.5,0-4.05-2.01-4.05-4.62ZM145.48,675.57c-.19-1.72-1.16-2.94-2.84-2.94s-2.63,1.22-2.82,2.94h5.66Z"/>
        <path class="cls-2" d="M153.06,671.8v1.58c.61-1.11,1.67-1.79,3.11-1.79,2.62,0,4.05,2.01,4.05,4.62s-1.43,4.62-4.05,4.62c-1.41,0-2.43-.65-3.06-1.7v4.9h-1.14v-12.24h1.09ZM153.08,676.22c0,2.04.99,3.59,2.97,3.59s2.99-1.55,2.99-3.59-1-3.59-2.99-3.59-2.97,1.55-2.97,3.59Z"/>
        <path class="cls-2" d="M161.94,671.8h1.09v1.67c.71-1.38,1.85-1.77,2.96-1.77h.66v1.09h-.71c-1.53,0-2.86.82-2.86,3.08v4.78h-1.14v-8.84Z"/>
        <path class="cls-2" d="M168.13,668.4h1.14v1.68h-1.14v-1.68ZM168.13,671.8h1.12v8.84h-1.12v-8.84Z"/>
        <path class="cls-2" d="M170.95,676.22c0-2.62,1.55-4.62,4.17-4.62s4.16,2.01,4.16,4.62-1.53,4.62-4.16,4.62-4.17-2.01-4.17-4.62ZM178.1,676.22c0-2.04-.99-3.59-2.99-3.59s-2.97,1.55-2.97,3.59.99,3.59,2.97,3.59,2.99-1.55,2.99-3.59Z"/>
        <path class="cls-2" d="M181.01,671.8h1.09v1.67c.71-1.38,1.85-1.77,2.96-1.77h.66v1.09h-.71c-1.53,0-2.86.82-2.86,3.08v4.78h-1.14v-8.84Z"/>
        <path class="cls-2" d="M187.2,668.4h1.14v1.68h-1.14v-1.68ZM187.2,671.8h1.12v8.84h-1.12v-8.84Z"/>
        <path class="cls-2" d="M192.44,669.08v2.72h2.46v1h-2.46v5.69c0,.73.22,1.14,1.02,1.14h1.45v1h-1.63c-1.55,0-1.97-.76-1.97-2.02v-5.81h-1.65v-1h1.65v-2.72h1.14Z"/>
        <path class="cls-2" d="M202.02,679.26c-.75,1.16-1.87,1.58-3.08,1.58-1.94,0-3.06-.99-3.06-2.57s1.1-2.29,3.18-2.72l2.91-.58v-.73c0-1.17-.76-1.65-2.14-1.65-1.22,0-2.45.44-2.48,1.92h-1.14c.05-2.09,1.75-2.92,3.62-2.92,2.19,0,3.25.97,3.25,2.53v6.51h-1.05v-1.38ZM201.97,677.02v-1.09l-2.75.6c-1.38.31-2.18.65-2.18,1.73,0,.92.61,1.58,1.96,1.58,1.53,0,2.97-.88,2.97-2.82Z"/>
        <path class="cls-2" d="M204.93,671.8h1.09v1.67c.71-1.38,1.85-1.77,2.96-1.77h.66v1.09h-.71c-1.53,0-2.86.82-2.86,3.08v4.78h-1.14v-8.84Z"/>
        <path class="cls-2" d="M211.12,668.4h1.14v1.68h-1.14v-1.68ZM211.12,671.8h1.12v8.84h-1.12v-8.84Z"/>
        <path class="cls-2" d="M213.94,676.22c0-2.62,1.55-4.62,4.16-4.62s4.17,2.01,4.17,4.62-1.53,4.62-4.17,4.62-4.16-2.01-4.16-4.62ZM221.1,676.22c0-2.04-.99-3.59-2.99-3.59s-2.97,1.55-2.97,3.59.99,3.59,2.97,3.59,2.99-1.55,2.99-3.59Z"/>
        <path class="cls-2" d="M223.77,678.68h1.34v1.96h-1.34v-1.96Z"/>
      </g>
      <g>
        <path class="cls-2" d="M68.58,682.04v-6.73c0-.65.52-1.12,1.12-1.12s1.13.47,1.13,1.12v6.74c0,1.83-1.48,3.37-3.32,3.36h-13.63c-1.75,0-3.25-1.51-3.25-3.26v-13.69c0-1.79,1.54-3.26,3.31-3.26h11.32c.62,0,1.07.52,1.09,1.08s-.42,1.15-1.05,1.15h-11.3c-.64,0-1.13.5-1.13,1.14v13.47c0,.64.49,1.13,1.13,1.13h13.41c.66,0,1.18-.45,1.18-1.13Z"/>
        <path class="cls-2" d="M56.55,674.97c-.47-.47-.42-1.19.03-1.61s1.12-.41,1.57.03l2.57,2.56,9.35-9.35c.44-.44,1.16-.35,1.54.03.44.45.45,1.15,0,1.6l-10.1,10.1c-.46.46-1.16.42-1.6-.02l-3.35-3.35Z"/>
      </g>
    </g>
  </g>
</svg>