<?xml version="1.0" encoding="UTF-8"?>
<svg id="Capa_2" data-name="Capa 2" xmlns="http://www.w3.org/2000/svg" viewBox="0 0 239.33 51.91">
  <defs>
    <style>
      .cls-1 {
        fill: #fff;
      }
    </style>
  </defs>
  <g id="Capa_1-2" data-name="Capa 1">
    <g>
      <path class="cls-1" d="M102.2,24.27c-.07,3.03-1.45,5.67-4.49,6.76-1.78.63-3.63.88-5.5.88l-14.05-.04c-6.4-.03-8.55-2.63-8.55-7.36h6.7c.04.75.47,1.1,1.41,1.1l15.12-.02c.71,0,1.29-.58,1.28-1.29h0c0-.71-.58-1.28-1.28-1.28l-12.88-.04c-2.07,0-4.05-.25-5.92-.98-3.1-1.21-4.7-3.85-4.55-7.14.25-5.66,4.83-7.42,9.81-7.39h14.75s6.95,7.01,6.95,7.01h-5.8c-.5-.51-.88-.43-1.63-.43h-15.54c-.75,0-1.36.62-1.36,1.37h0c0,.75.61,1.36,1.36,1.36h11.3c1.87.01,6.79-.08,8.28.87,2.82,1.8,4.69,3.37,4.62,6.63Z"/>
      <polygon class="cls-1" points="137.26 14.47 137.26 16.86 158.37 16.87 158.38 22.07 137.27 22.08 137.27 24.87 162.34 24.87 162.34 31.81 130.3 31.81 130.31 7.48 162.34 7.5 162.34 14.46 137.26 14.47"/>
      <path class="cls-1" d="M187.88,24.36c4.82-.85,6.96-3.89,6.94-8.6,0-.62-.05-1.22-.14-1.81-.51-3.13-2.86-5.58-5.96-6.26-.5-.11-1.02-.17-1.55-.17l-17.83-.02-6.98,6.98v10.41s0,6.94,0,6.94h6.96s.01-7.36.01-7.36h9.11s6.95,7.42,6.95,7.42h9.99s-7.49-7.52-7.49-7.52ZM186.01,17.46l-16.68.06v-3.1l16.63.04c.96,0,1.66.68,1.69,1.42.03.77-.52,1.59-1.64,1.6Z"/>
      <path class="cls-1" d="M63.56,24.55h-18.23l-.02,7.35-6.95-.02V7.54s25.13-.05,25.13-.05c2.52,0,4.72,1.56,6.08,3.39,1.24,2.07,1.42,4.2,1.2,6.56-.34,3.77-3.1,7.09-7.22,7.12ZM61.93,17.54c1.16,0,1.77-.74,1.75-1.61-.02-.74-.75-1.42-1.75-1.42l-16.6-.03.04,3.11,16.56-.05Z"/>
      <polygon class="cls-1" points="130.3 7.48 130.3 7.49 130.3 7.49 130.3 14.47 119.55 14.5 119.55 31.88 112.62 31.9 112.6 14.49 100.93 14.48 101 7.48 130.3 7.48"/>
      <path class="cls-1" d="M29.38,7.48h0v6.99l-10.75.02v17.38s-6.93.02-6.93.02l-.02-17.41H0s.04-3.72.04-3.72c.02-1.82,1.5-3.29,3.32-3.29h26.02Z"/>
      <polygon class="cls-1" points="36.32 7.48 36.32 31.9 29.38 31.9 29.38 14.47 29.38 14.47 36.32 7.48 36.32 7.48"/>
      <g>
        <path class="cls-1" d="M194.72,7.5h14.48l10.05,10.05-34.31,34.37,24.13-30.07s-14.45-14.35-14.35-14.35Z"/>
        <path class="cls-1" d="M233.57,31.88h-14.51l-5.88-5.88L239.33,0l-16.87,20.74s11.19,11.14,11.11,11.14Z"/>
      </g>
    </g>
  </g>
</svg>