<?xml version="1.0" encoding="UTF-8"?>
<svg id="Capa_2" data-name="Capa 2" xmlns="http://www.w3.org/2000/svg" viewBox="0 0 162.5 35.25">
  <defs>
    <style>
      .cls-1 {
        fill: #de0916;
      }

      .cls-2 {
        fill: #fff;
      }
    </style>
  </defs>
  <g id="Capa_1-2" data-name="Capa 1">
    <g>
      <path class="cls-2" d="M69.39,16.48c-.05,2.06-.99,3.85-3.05,4.59-1.21.43-2.47.6-3.73.6l-9.54-.03c-4.34-.02-5.8-1.78-5.8-5h4.55c.03.51.32.75.95.75h10.26c.48-.01.87-.41.87-.89h0c0-.48-.39-.87-.87-.87l-8.75-.03c-1.4,0-2.75-.17-4.02-.67-2.11-.82-3.19-2.61-3.09-4.84.17-3.84,3.28-5.04,6.66-5.02h10.01s4.72,4.76,4.72,4.76h-3.94c-.34-.34-.59-.29-1.11-.29h-10.55c-.51,0-.93.42-.92.93h0c0,.51.41.92.92.92h7.67c1.27,0,4.61-.06,5.62.59,1.91,1.22,3.18,2.29,3.13,4.5Z"/>
      <polygon class="cls-2" points="93.2 9.82 93.2 11.45 107.53 11.46 107.54 14.98 93.2 14.99 93.2 16.89 110.23 16.89 110.23 21.6 88.47 21.6 88.48 5.08 110.23 5.09 110.23 9.82 93.2 9.82"/>
      <path class="cls-2" d="M127.56,16.54c3.27-.58,4.72-2.64,4.71-5.84,0-.42-.03-.83-.1-1.23-.34-2.13-1.94-3.79-4.05-4.25-.34-.08-.69-.12-1.05-.12h-12.11s-4.74,4.73-4.74,4.73v7.07s0,4.71,0,4.71h4.72s0-5,0-5h6.18s4.72,5.04,4.72,5.04h6.78s-5.08-5.11-5.08-5.11ZM126.3,11.86l-11.33.04v-2.11l11.29.02c.65,0,1.13.46,1.15.96.02.52-.35,1.08-1.12,1.08Z"/>
      <path class="cls-2" d="M43.16,16.67h-12.37l-.02,4.99-4.72-.02V5.12s17.06-.04,17.06-.04c1.71,0,3.21,1.06,4.13,2.3.84,1.4.96,2.85.82,4.45-.23,2.56-2.11,4.81-4.9,4.84ZM42.05,11.91c.78,0,1.2-.5,1.19-1.09-.01-.5-.51-.96-1.19-.96l-11.27-.02.03,2.11,11.24-.03Z"/>
      <polygon class="cls-2" points="88.47 5.08 88.47 5.09 88.47 5.09 88.47 9.83 81.17 9.84 81.17 21.64 76.47 21.66 76.45 9.84 68.53 9.83 68.58 5.08 88.47 5.08"/>
      <path class="cls-2" d="M19.95,5.08h0v4.75l-7.3.02v11.8s-4.71.01-4.71.01v-11.82s-7.94,0-7.94,0l.03-2.52c.01-1.24,1.02-2.23,2.26-2.23h17.66Z"/>
      <polygon class="cls-2" points="24.66 5.08 24.66 21.66 19.95 21.66 19.95 9.83 19.95 9.83 24.66 5.08 24.66 5.08"/>
      <g>
        <path class="cls-1" d="M132.21,5.09h9.83l6.82,6.82-23.29,23.34,16.38-20.41s-9.81-9.74-9.74-9.74Z"/>
        <path class="cls-1" d="M158.59,21.64h-9.85l-3.99-3.99L162.5,0l-11.46,14.08s7.6,7.56,7.55,7.56Z"/>
      </g>
    </g>
  </g>
</svg>