<?xml version="1.0" encoding="UTF-8"?>
<svg id="Capa_2" data-name="Capa 2" xmlns="http://www.w3.org/2000/svg" viewBox="0 0 372.48 46.44">
  <defs>
    <style>
      .cls-1 {
        fill: #fff;
      }

      .cls-2 {
        fill: #c30215;
      }
    </style>
  </defs>
  <g id="Capa_1-2" data-name="Capa 1">
    <g>
      <rect class="cls-2" width="372.48" height="46.44" rx="9.28" ry="9.28"/>
      <g>
        <path class="cls-1" d="M91.47,28.41c-2.22,0-3.21-1.21-2.81-3.43l1.46-8.34h3.09l-1.36,7.77c-.19,1.03.17,1.45,1.19,1.45h7.7c1.03,0,1.4-.32,1.58-1.35l1.38-7.87h3.09l-1.53,8.68c-.4,2.24-1.43,3.09-3.65,3.09h-10.16Z"/>
        <path class="cls-1" d="M122.62,16.64h2.99l-2.09,11.77h-2.52l-9.97-8.64-1.53,8.64h-2.99l2.08-11.77h2.64l9.87,8.54,1.51-8.54Z"/>
        <path class="cls-1" d="M127.59,16.64h3.13l-2.09,11.77h-3.13l2.08-11.77Z"/>
        <path class="cls-1" d="M145.93,16.64c2.04,0,2.89,1.03,2.54,3.09l-.29,1.61c-.19,1.03-.5,1.75-.98,2.15-.49.4-1.24.61-2.27.61l-.67.1,3.04,4.2h-3.53l-2.89-4.1h-6.47l-.72,4.1h-3.09l2.08-11.77h13.25ZM145.33,20.02c.15-.89-.12-1.23-1.01-1.23h-8.93l-.61,3.43h9.05c.88,0,1.13-.25,1.31-1.13l.18-1.08Z"/>
        <path class="cls-1" d="M166.93,16.64h2.86l-2.08,11.77h-2.99l1.4-7.89-6.71,5.84h-1.72l-4.62-5.84-1.4,7.89h-2.99l2.08-11.77h2.5l5.58,7.03,8.09-7.03Z"/>
        <path class="cls-1" d="M186.38,19.02h-12.04l-.4,2.25h11.37l-.39,2.15h-11.37l-.46,2.59h12.21l-.42,2.39h-15.3l2.08-11.77h15.13l-.42,2.39Z"/>
        <path class="cls-1" d="M206.14,28.41l-1.04-2.27h-9.26l-1.87,2.27h-3.65l9.97-11.77h3.45l5.82,11.77h-3.41ZM197.75,23.78h6.26l-2.25-4.88-4,4.88Z"/>
        <path class="cls-1" d="M226.08,16.64h3.09l-2.09,11.77h-3.09l.86-4.84h-10.49l-.86,4.84h-3.09l2.08-11.77h3.09l-.77,4.37h10.49l.77-4.37Z"/>
        <path class="cls-1" d="M232.25,28.41c-2.22,0-3.23-1.21-2.82-3.43l.94-5.25c.4-2.24,1.41-3.09,3.63-3.09h10.66c2.22,0,3.23,1.21,2.83,3.43l-.94,5.25c-.4,2.24-1.41,3.09-3.63,3.09h-10.66ZM242.01,25.95c1.01,0,1.39-.34,1.58-1.34l.72-4.07c.19-1.01-.18-1.45-1.19-1.45h-8.21c-1.01,0-1.4.34-1.58,1.34l-.72,4.07c-.18,1.01.19,1.45,1.19,1.45h8.21Z"/>
        <path class="cls-1" d="M263.09,16.64c2.03,0,2.89,1.03,2.54,3.09l-.29,1.61c-.18,1.03-.5,1.75-.97,2.15-.49.4-1.24.61-2.27.61l-.67.1,3.04,4.2h-3.53l-2.89-4.1h-6.47l-.72,4.1h-3.09l2.08-11.77h13.25ZM262.48,20.02c.15-.89-.12-1.23-1.01-1.23h-8.93l-.61,3.43h9.05c.88,0,1.13-.25,1.31-1.13l.18-1.08Z"/>
        <path class="cls-1" d="M280.36,28.41l-1.04-2.27h-9.26l-1.87,2.27h-3.65l9.97-11.77h3.45l5.82,11.77h-3.41ZM271.97,23.78h6.26l-2.25-4.88-4,4.88Z"/>
      </g>
      <path class="cls-1" d="M347.61,21.7l10.36-10.31h-10.66l2.16-2.16h12.15v12.15l-2.16,2.16v-10.62l-10.31,10.31-1.53-1.53Z"/>
    </g>
  </g>
</svg>