<?xml version="1.0" encoding="UTF-8"?>
<svg id="Capa_2" data-name="Capa 2" xmlns="http://www.w3.org/2000/svg" viewBox="0 0 614.23 27.96">
  <defs>
    <style>
      .cls-1 {
        fill: #fff;
      }
    </style>
  </defs>
  <g id="Capa_1-2" data-name="Capa 1">
    <g>
      <path class="cls-1" d="M0,27.96L4.01,5.31h26.02c4.11,0,5.83,2.07,5.11,6.21l-.78,4.4c-.36,2.07-1,3.53-1.97,4.34-.97.81-2.49,1.23-4.56,1.23H8.67l-1.16,6.47H0ZM9.58,16.34h15.57c1.29,0,1.71-.39,1.94-1.72l.39-2.14c.23-1.33-.2-1.78-1.52-1.78h-15.41l-.97,5.63Z"/>
      <path class="cls-1" d="M41.17,27.96c-4.43,0-6.44-2.36-5.63-6.86l1.68-9.58c.81-4.5,2.88-6.21,7.31-6.21h20.78c4.43,0,6.44,2.36,5.63,6.86l-1.68,9.58c-.81,4.5-2.88,6.21-7.31,6.21h-20.78ZM59.69,22.04c1.55,0,2.1-.49,2.36-2.04l1.2-6.6c.26-1.55-.23-2.17-1.78-2.17h-14.66c-1.55,0-2.1.49-2.36,2.04l-1.2,6.6c-.26,1.55.23,2.17,1.78,2.17h14.66Z"/>
      <path class="cls-1" d="M79.6,21.78h21l-1.13,6.18h-28.48l4.01-22.65h7.51l-2.91,16.47Z"/>
      <path class="cls-1" d="M105.59,5.31h7.61l-4.01,22.65h-7.61l4.01-22.65ZM112.87,4.14h-6.54l4.5-4.14h8.16l-6.12,4.14Z"/>
      <path class="cls-1" d="M147.12,5.31l-1.1,6.18h-12.17l-2.91,16.47h-7.51l2.91-16.47h-12.17l1.1-6.18h31.85Z"/>
      <path class="cls-1" d="M149.23,5.31h7.61l-4.01,22.65h-7.61l4.01-22.65Z"/>
      <path class="cls-1" d="M162.66,27.96c-4.43,0-6.44-2.36-5.63-6.86l1.68-9.58c.81-4.5,2.88-6.21,7.31-6.21h19.87c4.43,0,6.44,2.36,5.63,6.86l-.42,2.56h-7.28l.29-1.46c.26-1.52-.23-2.14-1.78-2.14h-14.01c-1.55,0-2.1.49-2.4,2.01l-1.23,6.86c-.26,1.52.23,2.14,1.78,2.14h14.01c1.55,0,2.1-.49,2.39-2.01l.29-1.81h7.25l-.58,3.43c-.81,4.5-2.88,6.21-7.31,6.21h-19.87Z"/>
      <path class="cls-1" d="M217.65,27.96l-1.65-3.88h-15.92l-3.04,3.88h-8.9l18.71-22.65h8.45l10.68,22.65h-8.32ZM204.13,18.9h9.64l-3.4-7.96-6.25,7.96Z"/>
      <path class="cls-1" d="M236.95,27.96l4.01-22.65h24.98c2.59,0,4.53.78,5.83,2.3,1.29,1.55,1.71,3.62,1.23,6.25l-1.16,6.47c-.94,5.31-3.72,7.64-9,7.64h-25.89ZM245.53,22.04h16.05c1.78,0,2.62-.71,2.91-2.49l.97-5.6c.32-1.81-.42-2.72-2.23-2.72h-15.79l-1.91,10.81Z"/>
      <path class="cls-1" d="M306.15,10.81h-22.27l-.58,3.27h20.97l-.81,4.66h-21l-.65,3.72h22.59l-.97,5.5h-30.1l4.01-22.65h29.77l-.97,5.5Z"/>
      <path class="cls-1" d="M315.48,27.96l4.01-22.65h26.02c4.11,0,5.83,2.07,5.11,6.21l-.78,4.4c-.36,2.07-1,3.53-1.97,4.34-.97.81-2.49,1.23-4.56,1.23h-19.16l-1.17,6.47h-7.51ZM325.06,16.34h15.57c1.29,0,1.71-.39,1.94-1.72l.39-2.14c.23-1.33-.19-1.78-1.52-1.78h-15.4l-.97,5.63Z"/>
      <path class="cls-1" d="M380.09,5.31c4.11,0,5.83,2.07,5.11,6.21l-.52,3.07c-.36,2.07-1.04,3.53-2.01,4.34-.97.81-2.49,1.23-4.56,1.23l-.49.13,5.31,7.67h-8.51l-4.89-7.28h-10.65l-1.33,7.28h-7.51l4.01-22.65h26.02ZM377.6,12.23c.23-1.33-.19-1.78-1.52-1.78h-15.41l-.91,5.24h15.53c1.33,0,1.75-.39,1.97-1.72l.32-1.75Z"/>
      <path class="cls-1" d="M389.25,5.31h7.61l-4.01,22.65h-7.61l4.01-22.65Z"/>
      <path class="cls-1" d="M426.41,5.31h8.77l-19.06,22.65h-6.76l-11.07-22.65h8.22l7.22,15.57,12.69-15.57Z"/>
      <path class="cls-1" d="M452.02,27.96l-1.65-3.88h-15.92l-3.04,3.88h-8.9l18.71-22.65h8.45l10.68,22.65h-8.32ZM438.49,18.9h9.64l-3.4-7.96-6.25,7.96Z"/>
      <path class="cls-1" d="M466.65,27.96c-4.43,0-6.44-2.36-5.63-6.86l1.68-9.58c.81-4.5,2.88-6.21,7.31-6.21h19.87c4.43,0,6.44,2.36,5.63,6.86l-.42,2.56h-7.28l.29-1.46c.26-1.52-.23-2.14-1.78-2.14h-14.01c-1.55,0-2.1.49-2.4,2.01l-1.23,6.86c-.26,1.52.23,2.14,1.78,2.14h14.01c1.55,0,2.1-.49,2.39-2.01l.29-1.81h7.25l-.58,3.43c-.81,4.5-2.88,6.21-7.31,6.21h-19.87Z"/>
      <path class="cls-1" d="M499.67,5.31h7.61l-4.01,22.65h-7.61l4.01-22.65Z"/>
      <path class="cls-1" d="M506.5,27.96l4.01-22.65h24.98c2.59,0,4.53.78,5.83,2.3,1.29,1.55,1.71,3.62,1.23,6.25l-1.17,6.47c-.94,5.31-3.72,7.64-9,7.64h-25.89ZM515.08,22.04h16.05c1.78,0,2.62-.71,2.91-2.49l.97-5.6c.32-1.81-.42-2.72-2.23-2.72h-15.79l-1.91,10.81Z"/>
      <path class="cls-1" d="M568.39,27.96l-1.65-3.88h-15.92l-3.04,3.88h-8.9l18.71-22.65h8.45l10.68,22.65h-8.32ZM554.86,18.9h9.64l-3.4-7.96-6.25,7.96Z"/>
      <path class="cls-1" d="M577.98,27.96l4.01-22.65h24.98c2.59,0,4.53.78,5.83,2.3,1.29,1.55,1.71,3.62,1.23,6.25l-1.17,6.47c-.94,5.31-3.72,7.64-9,7.64h-25.89ZM586.55,22.04h16.05c1.78,0,2.62-.71,2.91-2.49l.97-5.6c.32-1.81-.42-2.72-2.23-2.72h-15.79l-1.91,10.81Z"/>
    </g>
  </g>
</svg>