<?xml version="1.0" encoding="UTF-8"?>
<svg id="Capa_2" data-name="Capa 2" xmlns="http://www.w3.org/2000/svg" viewBox="0 0 58.28 50.49">
  <defs>
    <style>
      .cls-1 {
        fill: #fff;
      }
    </style>
  </defs>
  <g id="Capa_1-2" data-name="Capa 1">
    <g>
      <path class="cls-1" d="M8.19,50.49c-.29,0-.58-.05-.86-.13-.29-.08-.56-.22-.79-.41-.25-.22-.44-.49-.57-.79-.16-.39-.24-.81-.22-1.24v-4.79c0-.34.07-.67.19-.98.22-.6.68-1.08,1.27-1.33.62-.25,1.31-.25,1.94,0,.29.13.55.31.76.54.22.24.39.52.51.82.13.33.19.69.19,1.05v.57c0,.07-.06.13-.13.13h-1.43c-.07,0-.13-.06-.13-.13v-.48c0-.25-.07-.5-.22-.7-.13-.19-.34-.29-.57-.29-.24-.03-.47.08-.6.29-.12.26-.17.54-.16.82v4.41c-.01.24.04.48.16.7.14.19.37.29.6.25h.29l.25-.16c.09-.08.15-.18.19-.29.05-.15.07-.31.06-.48v-.48c0-.07.06-.13.13-.13h1.4c.07,0,.13.06.13.13v.6c0,.65-.25,1.27-.7,1.74-.22.23-.48.41-.76.54-.29.13-.6.19-.92.19Z"/>
      <path class="cls-1" d="M14.09,50.49c-.3,0-.6-.05-.89-.16-.31-.11-.59-.29-.82-.51-.25-.23-.44-.51-.57-.82-.16-.37-.23-.77-.22-1.17v-4.57c0-.39.07-.78.22-1.14.13-.31.33-.59.57-.82.24-.22.52-.39.82-.51.58-.22,1.23-.22,1.81,0,.31.11.59.29.82.51.25.23.44.51.57.82.15.36.23.75.22,1.14v4.6c.01.4-.07.8-.22,1.17-.13.31-.33.59-.57.82-.24.22-.52.39-.82.51-.3.1-.61.14-.92.13ZM14.09,42.3c-.45-.02-.84.33-.87.78,0,.06,0,.11,0,.17v4.6c-.02.26.07.51.25.7.36.3.88.3,1.24,0,.18-.18.28-.44.25-.7v-4.6c.02-.26-.07-.51-.25-.7-.17-.15-.4-.23-.63-.22v-.03Z"/>
      <path class="cls-1" d="M22.72,50.42h-1.3c-.06,0-.11-.04-.13-.1l-1.84-4.79s-.1-.04-.13,0c-.01.01-.02.02-.02.04v4.7c0,.07-.06.13-.13.13h-1.43c-.07,0-.13-.06-.13-.13v-9.42c0-.07.06-.13.13-.13h1.33c.06,0,.11.04.13.1l1.81,4.79s.1.04.13,0c.01-.01.02-.02.02-.04v-4.73c0-.07.06-.13.13-.13h1.4c.07,0,.13.06.13.13v9.42c.02.07-.02.14-.09.16,0,0,0,0,0,0Z"/>
      <path class="cls-1" d="M30.68,50.42h-1.4c-.07,0-.13-.06-.13-.13v-4.7s-.07-.07-.12-.06c-.01,0-.03.01-.04.02l-1.08,3.36-.1.06h-.76l-.1-.06-1.05-3.36s-.1-.04-.13,0c-.01.01-.02.02-.02.04v4.66c0,.07-.06.13-.13.13h-1.4c-.07,0-.13-.06-.13-.13v-9.42c0-.07.06-.13.13-.13h1.33c.06,0,.11.04.13.1l1.68,4.54s.09.06.13.03c.01,0,.02-.02.03-.03l1.65-4.57c.01-.06.07-.1.13-.1h1.36c.07,0,.13.06.13.13v9.42c.04.06.02.14-.04.17-.02.01-.05.02-.08.02Z"/>
      <path class="cls-1" d="M36.42,50.42h-4.22c-.07,0-.13-.06-.13-.13v-9.45c0-.07.06-.13.13-.13h4.25c.07,0,.13.06.13.13v1.36c0,.07-.06.13-.13.13h-2.63c-.05,0-.1.04-.1.1h0v2.19c0,.05.04.1.1.1h2.25c.07,0,.13.06.13.13v1.36c0,.07-.06.13-.13.13h-2.25c-.05,0-.1.04-.1.1h0v2.19c0,.05.04.1.1.1h2.63c.07,0,.13.06.13.13v1.43c.02.07-.02.14-.08.16-.02,0-.05,0-.07,0Z"/>
      <path class="cls-1" d="M39.56,50.42h-1.94c-.07,0-.13-.06-.13-.13v-9.45c0-.07.06-.13.13-.13h2.06c.41-.01.82.07,1.21.22.32.14.6.34.82.6.37.46.6,1.03.63,1.62.06.89-.13,1.78-.86,2.32h-.03c.27.17.49.41.63.7.26.6.34,1.26.22,1.9-.05.57-.27,1.11-.63,1.55-.44.51-1.17.79-2.13.79ZM39.15,48.61c0,.05.04.1.1.1h.41c.22,0,.44-.04.63-.13.67-.35.7-1.55.19-2.06l-.1-.1c-.32-.22-.76-.16-1.14-.16-.05,0-.1.04-.1.1h0v2.25ZM39.15,44.65c0,.05.04.1.1.1h.44c.44,0,.73-.1.89-.32.33-.55.32-1.24-.03-1.78-.24-.24-.58-.36-.92-.32h-.41c-.05,0-.1.04-.1.1h0l.03,2.22Z"/>
      <path class="cls-1" d="M45.81,50.49c-.3,0-.6-.05-.89-.16-.31-.11-.59-.29-.82-.51-.25-.23-.44-.51-.57-.82-.16-.37-.23-.77-.22-1.17v-4.57c0-.39.07-.78.22-1.14.13-.31.33-.59.57-.82.24-.22.52-.39.82-.51.58-.22,1.23-.22,1.81,0,.31.11.59.29.82.51.25.23.44.51.57.82.15.36.23.75.22,1.14v4.6c.01.4-.07.8-.22,1.17-.13.31-.33.59-.57.82-.24.22-.52.39-.82.51-.3.1-.61.14-.92.13ZM45.81,42.3c-.45-.02-.84.33-.87.78,0,.06,0,.11,0,.17v4.6c-.02.26.07.51.25.7.36.3.88.3,1.24,0,.18-.18.28-.44.25-.7v-4.6c.02-.26-.07-.51-.25-.7-.17-.15-.4-.23-.63-.22v-.03Z"/>
      <path class="cls-1" d="M53.96,50.42h-4.25c-.07,0-.13-.06-.13-.13v-9.45c0-.07.06-.13.13-.13h1.4c.07,0,.13.06.13.13v7.77c0,.05.04.1.1.1h2.63c.07,0,.13.06.13.13v1.43c.02.07-.02.14-.09.15-.01,0-.02,0-.04,0Z"/>
      <rect class="cls-1" x="55.14" y="44.71" width="3.14" height="1.71" rx=".18" ry=".18"/>
      <rect class="cls-1" y="44.71" width="3.14" height="1.71" rx=".18" ry=".18"/>
      <path class="cls-1" d="M29.16,5.5c-1.93,0-3.86.22-5.74.67-1.82.43-3.58,1.09-5.23,1.97-.24.12-.41.36-.44.63-.06.54-.13,1.05-.16,1.55s-.06,1.05-.06,1.55c0,3.96,1.04,7.86,3.01,11.29,1.96,3.42,4.8,6.25,8.22,8.22.25.14.55.14.79,0,3.43-1.96,6.28-4.79,8.25-8.22,1.98-3.44,3.02-7.33,3.01-11.29,0-.51-.03-1.02-.06-1.55s-.1-1.05-.16-1.55h0c-.03-.27-.2-.51-.44-.63-1.65-.88-3.41-1.54-5.23-1.97-1.88-.44-3.81-.67-5.74-.67Z"/>
      <path class="cls-1" d="M15.2,21.04l-2.35,5.33h-.06c-1.26-2.53-1.91-5.32-1.9-8.15h0l4.06,2.09c.26.14.37.46.25.73ZM42.67,9.78c.03.6.06,1.17.06,1.74,0,2.19-.29,4.36-.86,6.47l5.04-3.81c-.42-1.87-1.14-3.66-2.13-5.3l-2.19.1c.03.29.06.54.1.82l-.03-.03ZM21.89,4.45l.7-3.24c-2.57.99-4.88,2.56-6.76,4.57l3.3-.41c.9-.36,1.82-.67,2.76-.92ZM39.12,5.37l3.3.41c-1.86-2-4.15-3.57-6.69-4.57l.67,3.24c.94.25,1.86.56,2.76.92h-.03ZM33.41,3.79l-1.36-3.55c-1.92-.31-3.88-.31-5.81,0l-1.36,3.58c2.83-.43,5.71-.43,8.53,0v-.03ZM15.55,11.53c0-.57.03-1.14.06-1.74s.06-.54.1-.79l-2.22-.1c-.99,1.65-1.7,3.45-2.13,5.33l5.04,3.81c-.57-2.12-.85-4.31-.86-6.5ZM47.4,18.19l-4.06,2.13c-.26.14-.37.46-.25.73l2.35,5.33h.06c1.26-2.53,1.91-5.32,1.9-8.15v-.03ZM18.88,24.09c-.35-.6-.63-1.21-.92-1.81l-3.01,7.42c1.69,2.1,3.83,3.8,6.25,4.98l4.22-3.17c-2.65-2.01-4.88-4.54-6.54-7.42ZM28.55,33.73l-3.14,2.38c2.46.51,5,.51,7.46,0l-3.14-2.38c-.34-.25-.8-.25-1.14,0h-.03ZM39.37,24.09c-1.66,2.89-3.88,5.41-6.54,7.42l4.19,3.2c2.42-1.18,4.56-2.88,6.25-4.98l-3.01-7.42c-.22.6-.51,1.21-.86,1.78h-.03Z"/>
      <path d="M35.56,16.03s.03.09,0,.13l-.22.29h-.13c-.45-.53-1.02-.95-1.65-1.24-.67-.3-1.39-.45-2.13-.44h-.06c-1.02.01-2.02.33-2.86.92-.77.51-1.37,1.24-1.71,2.09l-.1.06h0l-.06-.06-.13-.54s0-.09.03-.13c.14-.26.3-.5.48-.73.32-.44.7-.82,1.14-1.14.93-.65,2.04-1,3.17-1.02h.06c.81,0,1.61.17,2.35.51.69.3,1.3.75,1.81,1.3ZM35.79,14.98h0c-1.21-1.07-2.77-1.66-4.38-1.65h-.1c-1.12.01-2.22.31-3.2.86-.91.51-1.67,1.24-2.22,2.13,0,.02,0,.04,0,.06v.13l.29.16h.13c.5-.81,1.2-1.47,2.03-1.94.9-.51,1.92-.78,2.95-.79h.1c1.6-.01,3.15.61,4.28,1.74h.1s.07-.05.06-.1v-.48s.02-.09,0-.13h-.03ZM35.79,13.84c-1.28-.89-2.79-1.36-4.35-1.36h-.1c-1.33.02-2.63.38-3.78,1.05-1.06.62-1.93,1.51-2.54,2.57-.02.03-.02.07,0,.1l.1.06h.35l.13-.06c.56-.9,1.33-1.65,2.25-2.19,1.06-.62,2.26-.96,3.49-.98h.1c1.55,0,3.05.49,4.28,1.43h.1s.07-.05.06-.1v-.38c0-.06-.04-.1-.1-.13h0ZM31.44,11.62h-.13c-1.48.01-2.93.41-4.22,1.14-1.14.65-2.1,1.58-2.79,2.7-.04.05-.04.11,0,.16l.19.25h.16c.66-1.1,1.59-2,2.7-2.63,1.21-.69,2.57-1.07,3.97-1.08h.1c1.51-.02,2.99.39,4.28,1.17h.13l.25-.22s.04-.06.03-.1v-.06c-1.38-.88-2.99-1.34-4.63-1.33h-.03ZM36.33,12.07c-1.47-.86-3.15-1.31-4.85-1.3h-.13c-1.59.01-3.14.42-4.54,1.17-1.25.68-2.31,1.65-3.11,2.82-.03.05-.03.11,0,.16l.22.25h.16c.75-1.15,1.78-2.1,2.98-2.76,1.31-.71,2.76-1.09,4.25-1.11h.13c1.64,0,3.25.43,4.66,1.27h.1l.06-.06.1-.35s0-.07-.03-.1ZM31.28,10.45h.1s.02-.07,0-.1l-.13-.29c-.03-.06-.09-.1-.16-.1h0c-1.55.05-3.06.44-4.44,1.14-1.34.68-2.52,1.66-3.43,2.86-.04.04-.05.1-.03.16l.16.32.06.06h.1c1.8-2.51,4.68-4.02,7.77-4.06ZM33.5,10.64c.93.19,1.83.51,2.66.95h.1s.04-.06.03-.1l-.1-.41s-.05-.08-.1-.1c-.68-.33-1.39-.58-2.13-.76h-.13l-.38.25s-.04.06-.03.1l.06.06ZM26.4,10.8c.73-.37,1.49-.66,2.28-.86.8-.21,1.62-.32,2.44-.35l.1-.06s.02-.07,0-.1l-.19-.32c-.04-.05-.1-.08-.16-.06-.78.04-1.56.16-2.32.35-.84.21-1.64.52-2.41.92-1.46.75-2.73,1.83-3.71,3.14-.02.03-.02.07,0,.1l.06.06.32.13h.13c.92-1.23,2.1-2.24,3.46-2.95ZM25.19,10.48c1.23-.76,2.58-1.29,4-1.55l.06-.06s0-.07-.03-.1l-.32-.29h-.13c-1.37.29-2.68.82-3.87,1.55-1.12.68-2.12,1.55-2.95,2.57-.03.04-.04.08-.03.13l.06.44.06.06h.1c.83-1.11,1.86-2.06,3.05-2.79v.03ZM22.21,11.69h.1c1.52-1.58,3.42-2.72,5.52-3.33l.06-.06s0-.07-.03-.1l-.22-.25s-.1-.05-.16-.03c-2.02.61-3.86,1.7-5.36,3.17-.03.04-.04.08-.03.13l.06.41.06.06ZM22.49,9.59v.06l.29.22h.13c.99-.79,2.09-1.43,3.27-1.9.04-.01.07-.05.06-.1,0-.04-.02-.08-.06-.1l-.48-.16h-.13c-1.09.5-2.12,1.14-3.05,1.9l-.03.06ZM22.27,9.21h.1c.48-.37.97-.71,1.49-1.02.03-.02.04-.06.03-.1l-.06-.06-.41-.13h-.13l-1.08.76c-.05.04-.08.1-.06.16l.06.35.06.03ZM31.85,18.73h0c-.13-.1-.28-.15-.44-.16h0c-.39-.02-.71.28-.73.67,0,.01,0,.02,0,.03.02.18.09.35.22.48l1.11,1.02h.13l.32-.19v-.06s0-.07-.03-.1c-.44-.38-1.17-1.05-1.17-1.05l-.06-.13c.02-.09.1-.16.19-.16h.13l1.02.89h.1l.06-.06.13-.35s0-.07-.03-.1l-.92-.73ZM32.55,18.13c-.32-.28-.72-.44-1.14-.44h-.06c-.44,0-.86.17-1.17.48-.3.29-.48.69-.48,1.11,0,.34.13.66.35.92.58.7,1.29,1.28,2.09,1.71h.1s.04-.06.03-.1l-.13-.48v-.06c-.64-.36-1.21-.84-1.68-1.4-.14-.17-.22-.38-.22-.6,0-.28.11-.54.32-.73.22-.2.5-.31.79-.32h.06c.29,0,.58.12.79.32l.89.79h.13l.29-.22v-.06s-.01-.05-.03-.06l-.92-.86ZM33.15,17.46c-.15-.14-.32-.26-.51-.35-.38-.19-.81-.29-1.24-.29h-.03c-.68,0-1.34.26-1.84.73-.48.45-.74,1.09-.73,1.74.01.51.19,1,.51,1.4.5.64,1.1,1.2,1.78,1.65h.1l.38-.16.06-.06s0-.07-.03-.1c-.7-.44-1.33-1-1.84-1.65-.24-.31-.38-.69-.38-1.08,0-.52.21-1.02.6-1.36.4-.37.92-.57,1.46-.57h.03c.34,0,.68.07.98.22l.38.29.95.89h.1s.05-.03.06-.06v-.48s0-.09-.03-.13l-.76-.63ZM31.41,15.97h-.06c-.92,0-1.8.36-2.47.98-.65.61-1.02,1.46-1.02,2.35.01.68.25,1.34.67,1.87.55.71,1.2,1.33,1.94,1.84h.1l.06-.06.1-.35s0-.07-.03-.1c-.66-.46-1.25-1.02-1.74-1.65-.34-.45-.53-.99-.54-1.55,0-.75.3-1.46.86-1.97.57-.53,1.32-.82,2.09-.82h.06c.85,0,1.66.34,2.25.95h.16l.19-.29s0-.09-.03-.13c-.68-.68-1.6-1.07-2.57-1.08ZM31.41,15.11h-.06c-1.17,0-2.29.46-3.14,1.27-.83.77-1.29,1.85-1.27,2.98,0,.86.3,1.7.82,2.38.77.97,1.72,1.77,2.79,2.38h.13l.25-.25s.04-.06.03-.1v-.06c-1.05-.61-1.97-1.41-2.7-2.38-.46-.59-.72-1.31-.73-2.06,0-.97.39-1.91,1.11-2.57.75-.71,1.73-1.1,2.76-1.11h0c1.03,0,2.03.38,2.79,1.08h.13l.32-.19v-.06s0-.07-.03-.1c-.87-.81-2.02-1.25-3.2-1.24v.03ZM30.2,24.98h.13l.16-.29s.01-.1-.03-.13c-1.19-.68-2.22-1.6-3.05-2.7h-.1l-.06.06-.1.41s0,.09.03.13c.84,1.01,1.86,1.86,3.01,2.51ZM30.77,26.25h.03v-.48s-.02-.08-.06-.1c-1.13-.55-2.16-1.29-3.05-2.19h-.1s-.07.05-.06.1v.48s.02.1.06.13c.92.86,1.97,1.57,3.11,2.09l.06-.03ZM28.46,25.36l-.06.06-.06.35c-.01.06.01.12.06.16.61.42,1.26.8,1.94,1.11h.1v-.44s-.02-.08-.06-.1c-.63-.32-1.24-.69-1.81-1.11l-.1-.03ZM31.28,28.37h.06s.02-.07,0-.1l-.29-.48h-.06c-.89-.35-1.74-.8-2.54-1.33h-.1s-.04.06-.03.1v.41s.02.1.06.13c.89.56,1.83,1.02,2.82,1.36l.06-.1ZM29.12,27.8h-.1s-.04.06-.03.1l.16.44.1.1c.65.32,1.31.6,2,.82h.13l.44-.22s.06-.09.03-.13c0-.01-.02-.02-.03-.03-.94-.26-1.86-.61-2.73-1.05l.03-.03Z"/>
      <path class="cls-1" d="M34.14,21.23v1.24h-.29v-.92l-.22.1c-.06-.07-.1-.16-.1-.25l.38-.16h.22Z"/>
      <path class="cls-1" d="M35.25,21.81c0,.51-.29.7-.76.7-.02-.05-.04-.1-.03-.16,0-.03,0-.06,0-.1.29,0,.48-.03.51-.29-.06.06-.14.09-.22.1-.21.02-.39-.14-.41-.35,0-.02,0-.04,0-.07,0-.25.2-.44.44-.44h0c.32,0,.48.25.48.6ZM34.77,21.81l.22-.06c0-.19-.1-.32-.22-.32-.09-.02-.17.03-.19.12,0,.02,0,.05,0,.07-.04.08,0,.17.07.21.04.02.08.02.12,0v-.03Z"/>
      <path class="cls-1" d="M35.94,21.23v1.24h-.29v-.92l-.22.1c-.06-.07-.1-.16-.1-.25l.38-.16h.22Z"/>
      <path class="cls-1" d="M37.09,22.06c.02.23-.15.43-.37.45-.03,0-.07,0-.1,0-.24.02-.46-.16-.48-.41,0-.03,0-.07,0-.1,0-.42.31-.78.73-.82.05.08.07.16.06.25-.22,0-.41.12-.51.32l.22-.06c.18-.05.38.05.43.24.01.05.02.1.01.14ZM36.83,22.06c0-.09-.07-.16-.16-.16-.01,0-.02,0-.03,0l-.22.06h0c0,.16.1.25.19.25.08.04.17,0,.21-.08,0-.01.01-.03.01-.05v-.03Z"/>
    </g>
  </g>
</svg>