<?xml version="1.0" encoding="UTF-8"?>
<svg id="Capa_2" data-name="Capa 2" xmlns="http://www.w3.org/2000/svg" viewBox="0 0 33.92 33.92">
  <defs>
    <style>
      .cls-1 {
        fill: #de0916;
      }

      .cls-2 {
        fill: #fff;
      }
    </style>
  </defs>
  <g id="Capa_1-2" data-name="Capa 1">
    <g>
      <path class="cls-2" d="M0,25.04V8.87C0,3.99,3.99,0,8.87,0h16.17c4.88,0,8.87,3.99,8.87,8.87v16.17c0,4.88-3.99,8.87-8.87,8.87h-5.44l-2.85-.69-2.45.69h-5.44c-4.88,0-8.87-3.99-8.87-8.87Z"/>
      <path class="cls-1" d="M23.56,22.42l.75-4.9h-4.7v-3.18c0-1.34.66-2.65,2.76-2.65h2.14v-4.17s-1.94-.33-3.8-.33c-3.87,0-6.41,2.35-6.41,6.6v3.74h-4.31v4.9h4.31v11.5h5.3v-11.5h3.95Z"/>
    </g>
  </g>
</svg>