<?xml version="1.0" encoding="UTF-8"?>
<svg id="Capa_2" data-name="Capa 2" xmlns="http://www.w3.org/2000/svg" viewBox="0 0 49.16 49.16">
  <defs>
    <style>
      .cls-1 {
        fill: #de0916;
      }

      .cls-2 {
        fill: #fff;
      }
    </style>
  </defs>
  <g id="Capa_1-2" data-name="Capa 1">
    <rect class="cls-2" x="0" y="0" width="49.16" height="49.16" rx="7.65" ry="7.65" transform="translate(49.16 0) rotate(90)"/>
    <g>
      <path class="cls-1" d="M32.21,15.32c-.93,0-1.69.76-1.69,1.69s.76,1.69,1.69,1.69,1.69-.76,1.69-1.69-.76-1.69-1.69-1.69Z"/>
      <path class="cls-1" d="M24.7,17.48c-3.91,0-7.1,3.18-7.1,7.1s3.18,7.1,7.1,7.1,7.1-3.18,7.1-7.1-3.18-7.1-7.1-7.1ZM24.7,29.13c-2.51,0-4.55-2.04-4.55-4.55s2.04-4.55,4.55-4.55,4.55,2.04,4.55,4.55-2.04,4.55-4.55,4.55Z"/>
      <path class="cls-1" d="M30.33,38.99h-11.51c-4.77,0-8.66-3.88-8.66-8.66v-11.51c0-4.77,3.88-8.66,8.66-8.66h11.51c4.77,0,8.66,3.88,8.66,8.66v11.51c0,4.77-3.88,8.66-8.66,8.66ZM18.83,12.88c-3.28,0-5.95,2.67-5.95,5.95v11.51c0,3.28,2.67,5.95,5.95,5.95h11.51c3.28,0,5.95-2.67,5.95-5.95v-11.51c0-3.28-2.67-5.95-5.95-5.95h-11.51Z"/>
    </g>
  </g>
</svg>