<?xml version="1.0" encoding="UTF-8"?>
<svg id="Capa_2" data-name="Capa 2" xmlns="http://www.w3.org/2000/svg" viewBox="0 0 33.92 33.92">
  <defs>
    <style>
      .cls-1 {
        fill: #de0916;
      }

      .cls-2 {
        fill: #fff;
      }
    </style>
  </defs>
  <g id="Capa_1-2" data-name="Capa 1">
    <g>
      <rect class="cls-2" x="0" y="0" width="33.92" height="33.92" rx="7.65" ry="7.65" transform="translate(33.92 0) rotate(90)"/>
      <path class="cls-1" d="M25.75,15c-.17.02-.35.03-.52.03-1.91,0-3.69-.96-4.74-2.56v8.73c0,3.56-2.89,6.45-6.45,6.45s-6.45-2.89-6.45-6.45,2.89-6.45,6.45-6.45h0c.13,0,.27.01.4.02v3.18c-.13-.02-.26-.04-.4-.04-1.82,0-3.29,1.47-3.29,3.29s1.47,3.29,3.29,3.29,3.42-1.43,3.42-3.25l.03-14.82h3.04c.29,2.73,2.49,4.86,5.22,5.06v3.53"/>
    </g>
  </g>
</svg>