<?xml version="1.0" encoding="UTF-8"?>
<svg id="Capa_2" data-name="Capa 2" xmlns="http://www.w3.org/2000/svg" viewBox="0 0 420.13 16.05">
  <defs>
    <style>
      .cls-1 {
        fill: #fff;
      }
    </style>
  </defs>
  <g id="Capa_1-2" data-name="Capa 1">
    <g>
      <path class="cls-1" d="M0,6.32C0,2.91,2.02,0,5.93,0c2.91,0,4.81,1.87,5.22,4.37h-1.92c-.31-1.56-1.53-2.65-3.3-2.65C3.2,1.72,1.97,3.82,1.97,6.32s1.22,4.61,3.96,4.61c1.9,0,3.13-1.28,3.38-3.01h1.9c-.32,2.67-2.24,4.73-5.29,4.73-3.91,0-5.93-2.91-5.93-6.32Z"/>
      <path class="cls-1" d="M12.07,8.02c0-2.65,1.63-4.62,4.37-4.62s4.39,1.97,4.39,4.62-1.63,4.62-4.39,4.62-4.37-1.97-4.37-4.62ZM18.99,8.02c0-1.82-.82-3.09-2.55-3.09s-2.53,1.28-2.53,3.09.82,3.09,2.53,3.09,2.55-1.27,2.55-3.09Z"/>
      <path class="cls-1" d="M22.07.2h1.78v4.57c.61-.87,1.55-1.38,2.82-1.38,2.6,0,4.03,1.97,4.03,4.62s-1.43,4.62-4.03,4.62c-1.31,0-2.28-.56-2.89-1.46v1.26h-1.72V.2ZM28.87,8.02c0-1.82-.82-3.09-2.53-3.09s-2.53,1.28-2.53,3.09.82,3.09,2.53,3.09,2.53-1.27,2.53-3.09Z"/>
      <path class="cls-1" d="M31.55,8.02c0-2.65,1.63-4.62,4.25-4.62s4.25,1.94,4.25,4.71v.51h-6.68c.17,1.53,1,2.53,2.43,2.53,1.09,0,1.9-.51,2.28-1.41h1.79c-.56,1.75-2.04,2.91-4.06,2.91-2.62,0-4.25-1.97-4.25-4.62ZM38.2,7.21c-.22-1.39-1.05-2.31-2.4-2.31s-2.18.92-2.4,2.31h4.79Z"/>
      <path class="cls-1" d="M41.29,3.6h1.72v1.53c.65-1.24,1.65-1.63,2.74-1.63h.68v1.68h-.73c-1.5,0-2.62.63-2.62,2.75v4.5h-1.78V3.6Z"/>
      <path class="cls-1" d="M50.2.88v2.72h2.31v1.46h-2.31v5.05c0,.61.25.87.88.87h1.43v1.46h-1.84c-1.5,0-2.26-.56-2.26-2.12v-5.25h-1.58v-1.46h1.58V.88h1.79Z"/>
      <path class="cls-1" d="M57.24,11.07c.68,0,2.26-.39,2.26-2.57h.02V3.6h1.78v8.84h-1.72v-1.26c-.59.83-1.53,1.46-2.82,1.46-2.14,0-3.14-1.53-3.14-3.35V3.6h1.77v5.51c0,1.14.56,1.96,1.85,1.96Z"/>
      <path class="cls-1" d="M62.93,3.6h1.72v1.53c.65-1.24,1.65-1.63,2.74-1.63h.68v1.68h-.73c-1.5,0-2.62.63-2.62,2.75v4.5h-1.78V3.6Z"/>
      <path class="cls-1" d="M74.7,11.41c-.76.94-1.73,1.24-2.8,1.24-1.95,0-3.21-.93-3.21-2.63,0-1.56,1.16-2.36,3.28-2.75l2.67-.49v-.58c0-.94-.58-1.33-1.77-1.33-1.02,0-2.01.36-2.06,1.51h-1.77c.05-2.12,1.82-2.97,3.82-2.97,2.38,0,3.52,1,3.52,2.6v6.44h-1.68v-1.04ZM74.63,8.97v-.88l-2.36.49c-1.07.22-1.75.48-1.75,1.38,0,.75.51,1.26,1.65,1.26,1.21,0,2.46-.66,2.46-2.24Z"/>
      <path class="cls-1" d="M80.95,13.05h1.75c.17,1.12.99,1.55,2.19,1.55s2.52-.41,2.52-2.4v-1.05c-.61.87-1.56,1.38-2.84,1.38-2.6,0-4.03-1.94-4.03-4.56s1.43-4.57,4.03-4.57c1.33,0,2.29.56,2.91,1.48v-1.27h1.7v8.6c0,2.69-1.89,3.84-4.32,3.84s-3.74-1.14-3.91-2.99ZM87.45,7.97c0-1.8-.82-3.06-2.53-3.06s-2.53,1.26-2.53,3.06.82,3.06,2.53,3.06,2.53-1.27,2.53-3.06Z"/>
      <path class="cls-1" d="M92.6.2v9.91c0,.61.24.87.88.87h1.17v1.46h-1.58c-1.51,0-2.26-.56-2.26-2.12V.2h1.78Z"/>
      <path class="cls-1" d="M95.37,8.02c0-2.65,1.63-4.62,4.37-4.62s4.39,1.97,4.39,4.62-1.63,4.62-4.39,4.62-4.37-1.97-4.37-4.62ZM102.29,8.02c0-1.82-.82-3.09-2.55-3.09s-2.53,1.28-2.53,3.09.82,3.09,2.53,3.09,2.55-1.27,2.55-3.09Z"/>
      <path class="cls-1" d="M105.36.2h1.78v4.57c.61-.87,1.55-1.38,2.82-1.38,2.6,0,4.03,1.97,4.03,4.62s-1.43,4.62-4.03,4.62c-1.31,0-2.28-.56-2.89-1.46v1.26h-1.72V.2ZM112.16,8.02c0-1.82-.82-3.09-2.53-3.09s-2.53,1.28-2.53,3.09.82,3.09,2.53,3.09,2.53-1.27,2.53-3.09Z"/>
      <path class="cls-1" d="M120.77,11.41c-.76.94-1.73,1.24-2.8,1.24-1.95,0-3.21-.93-3.21-2.63,0-1.56,1.16-2.36,3.28-2.75l2.67-.49v-.58c0-.94-.58-1.33-1.77-1.33-1.02,0-2.01.36-2.06,1.51h-1.77c.05-2.12,1.82-2.97,3.82-2.97,2.38,0,3.52,1,3.52,2.6v6.44h-1.68v-1.04ZM120.7,8.97v-.88l-2.36.49c-1.07.22-1.75.48-1.75,1.38,0,.75.51,1.26,1.65,1.26,1.21,0,2.46-.66,2.46-2.24Z"/>
      <path class="cls-1" d="M125.63.2v9.91c0,.61.24.87.88.87h1.17v1.46h-1.58c-1.51,0-2.26-.56-2.26-2.12V.2h1.78Z"/>
      <path class="cls-1" d="M128.57,3.94h2.06v2.38h-2.06v-2.38ZM128.57,10.06h2.06v2.38h-2.06v-2.38Z"/>
      <path class="cls-1" d="M137.14.88v2.72h2.52v.87h-2.52v5.85c0,.78.2,1.26,1.07,1.26h1.44v.87h-1.58c-1.56,0-1.92-.82-1.92-2.04v-5.93h-1.67v-.87h1.67V.88h.99Z"/>
      <path class="cls-1" d="M140.43,8.02c0-2.6,1.5-4.62,4.11-4.62s4.1,2.02,4.1,4.62-1.48,4.62-4.1,4.62-4.11-2.02-4.11-4.62ZM147.62,8.02c0-2.09-1.02-3.72-3.08-3.72s-3.09,1.63-3.09,3.72,1.04,3.72,3.09,3.72,3.08-1.63,3.08-3.72Z"/>
      <path class="cls-1" d="M150.04,3.6h.95v1.78c.7-1.48,1.89-1.89,3.03-1.89h.68v.95h-.75c-1.53,0-2.91.9-2.92,3.2v4.79h-.99V3.6Z"/>
      <path class="cls-1" d="M159.59,4.3c-1.26,0-2.77.95-2.77,3.2v4.95h-.99V3.6h.95v1.55c.56-1,1.53-1.75,2.97-1.75,2.12,0,3.14,1.43,3.14,3.3v5.75h-.97v-5.64c0-1.6-.82-2.5-2.35-2.5Z"/>
      <path class="cls-1" d="M164.3,8.02c0-2.6,1.5-4.62,4.01-4.62s3.99,2.02,3.99,4.62v.32h-6.99c.12,1.94,1.14,3.4,2.99,3.4,1.41,0,2.43-.85,2.84-2.12h1c-.51,1.8-1.87,3.03-3.84,3.03-2.52,0-4.01-2.02-4.01-4.62ZM171.25,7.45c-.17-1.8-1.17-3.15-2.94-3.15s-2.79,1.34-2.96,3.15h5.9Z"/>
      <path class="cls-1" d="M173.33,8.02c0-2.6,1.5-4.62,4.11-4.62s4.1,2.02,4.1,4.62-1.48,4.62-4.1,4.62-4.11-2.02-4.11-4.62ZM180.52,8.02c0-2.09-1.02-3.72-3.08-3.72s-3.09,1.63-3.09,3.72,1.04,3.72,3.09,3.72,3.08-1.63,3.08-3.72Z"/>
      <path class="cls-1" d="M182.37,9.55h1c.1,1.5,1.04,2.23,2.69,2.23,1.43,0,2.46-.53,2.46-1.67,0-.92-.37-1.36-2.53-1.7-2.62-.42-3.35-1.19-3.35-2.6,0-1.5,1.34-2.41,3.2-2.41,2.23,0,3.43,1.09,3.48,2.92h-.99c-.07-1.45-.95-2.07-2.5-2.07-1.24,0-2.21.54-2.21,1.55s.54,1.38,2.63,1.72c2.57.42,3.25,1.17,3.25,2.55,0,1.75-1.58,2.58-3.45,2.58-2.19,0-3.59-1.11-3.69-3.09Z"/>
      <path class="cls-1" d="M193.69,8.02c0-2.6,1.5-4.62,4.11-4.62s4.1,2.02,4.1,4.62-1.48,4.62-4.1,4.62-4.11-2.02-4.11-4.62ZM200.88,8.02c0-2.09-1.02-3.72-3.08-3.72s-3.09,1.63-3.09,3.72,1.04,3.72,3.09,3.72,3.08-1.63,3.08-3.72Z"/>
      <path class="cls-1" d="M206.1.2h1.58v.87h-1.44c-.87,0-1.07.48-1.07,1.26v1.28h2.52v.87h-2.52v7.97h-.99v-7.97h-1.67v-.87h1.67v-1.36c0-1.22.36-2.04,1.92-2.04Z"/>
      <path class="cls-1" d="M208.82.2h.99v1.67h-.99V.2ZM208.82,3.6h.99v8.84h-.99V3.6Z"/>
      <path class="cls-1" d="M211.22,8.02c0-2.6,1.5-4.62,4.03-4.62,2.02,0,3.33,1.27,3.64,3.11h-1c-.29-1.31-1.24-2.21-2.63-2.21-1.97,0-3.01,1.63-3.01,3.72s1.04,3.72,3.01,3.72c1.43,0,2.4-.95,2.65-2.33h1.02c-.29,1.89-1.7,3.23-3.67,3.23-2.53,0-4.03-2.02-4.03-4.62Z"/>
      <path class="cls-1" d="M220.16.2h.99v1.67h-.99V.2ZM220.16,3.6h.99v8.84h-.99V3.6Z"/>
      <path class="cls-1" d="M228.56,10.93c-.73,1.22-1.9,1.72-3.2,1.72-1.92,0-3.01-1-3.01-2.55s1.07-2.26,3.2-2.7l2.97-.61v-.75c0-1.24-.8-1.75-2.26-1.75-1.29,0-2.55.48-2.58,2.04h-.99c.03-2.06,1.7-2.92,3.57-2.92,2.16,0,3.21.97,3.21,2.53v6.51h-.92v-1.51ZM228.53,8.75v-1.16l-2.84.63c-1.51.34-2.31.71-2.31,1.85,0,.97.63,1.68,2.04,1.68,1.63,0,3.11-.95,3.11-3.01Z"/>
      <path class="cls-1" d="M231.96.2v10.11c0,.78.2,1.26,1.07,1.26h1.1v.87h-1.24c-1.56,0-1.92-.82-1.92-2.04V.2h.99Z"/>
      <path class="cls-1" d="M234.92,8.02c0-2.6,1.5-4.62,4.01-4.62s3.99,2.02,3.99,4.62v.32h-6.99c.12,1.94,1.14,3.4,2.99,3.4,1.41,0,2.43-.85,2.84-2.12h1c-.51,1.8-1.87,3.03-3.84,3.03-2.52,0-4.01-2.02-4.01-4.62ZM241.87,7.45c-.17-1.8-1.17-3.15-2.94-3.15s-2.79,1.34-2.96,3.15h5.9Z"/>
      <path class="cls-1" d="M243.76,9.55h1c.1,1.5,1.04,2.23,2.69,2.23,1.43,0,2.46-.53,2.46-1.67,0-.92-.37-1.36-2.53-1.7-2.62-.42-3.35-1.19-3.35-2.6,0-1.5,1.34-2.41,3.2-2.41,2.23,0,3.43,1.09,3.48,2.92h-.99c-.07-1.45-.95-2.07-2.5-2.07-1.24,0-2.21.54-2.21,1.55s.54,1.38,2.63,1.72c2.57.42,3.25,1.17,3.25,2.55,0,1.75-1.58,2.58-3.45,2.58-2.19,0-3.59-1.11-3.69-3.09Z"/>
      <path class="cls-1" d="M254.89,14.98h1.26c.9,0,1.12-.41,1.43-1.21l.51-1.34-3.45-8.82h1.07l2.89,7.65,2.91-7.65h1.05l-4.06,10.42c-.41,1.04-.75,1.82-2.02,1.82h-1.58v-.87Z"/>
      <path class="cls-1" d="M266.52,8.02c0-2.6,1.5-4.62,4.03-4.62,2.02,0,3.33,1.27,3.64,3.11h-1c-.29-1.31-1.24-2.21-2.63-2.21-1.97,0-3.01,1.63-3.01,3.72s1.04,3.72,3.01,3.72c1.43,0,2.4-.95,2.65-2.33h1.02c-.29,1.89-1.7,3.23-3.67,3.23-2.53,0-4.03-2.02-4.03-4.62Z"/>
      <path class="cls-1" d="M281.14,10.93c-.73,1.22-1.9,1.72-3.2,1.72-1.92,0-3.01-1-3.01-2.55s1.07-2.26,3.2-2.7l2.97-.61v-.75c0-1.24-.8-1.75-2.26-1.75-1.29,0-2.55.48-2.58,2.04h-.99c.03-2.06,1.7-2.92,3.57-2.92,2.16,0,3.21.97,3.21,2.53v6.51h-.92v-1.51ZM281.11,8.75v-1.16l-2.84.63c-1.51.34-2.31.71-2.31,1.85,0,.97.63,1.68,2.04,1.68,1.63,0,3.11-.95,3.11-3.01Z"/>
      <path class="cls-1" d="M283.56,3.6h.95v1.78c.7-1.48,1.89-1.89,3.03-1.89h.68v.95h-.75c-1.53,0-2.91.9-2.92,3.2v4.79h-.99V3.6Z"/>
      <path class="cls-1" d="M291.22.88v2.72h2.52v.87h-2.52v5.85c0,.78.2,1.26,1.07,1.26h1.44v.87h-1.58c-1.56,0-1.92-.82-1.92-2.04v-5.93h-1.67v-.87h1.67V.88h.99Z"/>
      <path class="cls-1" d="M294.52,8.02c0-2.6,1.5-4.62,4.01-4.62s3.99,2.02,3.99,4.62v.32h-6.99c.12,1.94,1.14,3.4,2.99,3.4,1.41,0,2.43-.85,2.84-2.12h1c-.51,1.8-1.87,3.03-3.84,3.03-2.52,0-4.01-2.02-4.01-4.62ZM301.47,7.45c-.17-1.8-1.17-3.15-2.94-3.15s-2.79,1.34-2.96,3.15h5.9Z"/>
      <path class="cls-1" d="M304.91.2v10.11c0,.78.2,1.26,1.07,1.26h1.1v.87h-1.24c-1.56,0-1.92-.82-1.92-2.04V.2h.99Z"/>
      <path class="cls-1" d="M307.86,8.02c0-2.6,1.5-4.62,4.01-4.62s3.99,2.02,3.99,4.62v.32h-6.99c.12,1.94,1.14,3.4,2.99,3.4,1.41,0,2.43-.85,2.84-2.12h1c-.51,1.8-1.87,3.03-3.84,3.03-2.52,0-4.01-2.02-4.01-4.62ZM314.82,7.45c-.17-1.8-1.17-3.15-2.94-3.15s-2.79,1.34-2.96,3.15h5.9Z"/>
      <path class="cls-1" d="M317.26,3.6h.95v1.78c.7-1.48,1.89-1.89,3.03-1.89h.68v.95h-.75c-1.53,0-2.91.9-2.92,3.2v4.79h-.99V3.6Z"/>
      <path class="cls-1" d="M328.72,10.93c-.73,1.22-1.9,1.72-3.2,1.72-1.92,0-3.01-1-3.01-2.55s1.07-2.26,3.2-2.7l2.97-.61v-.75c0-1.24-.8-1.75-2.26-1.75-1.29,0-2.55.48-2.58,2.04h-.99c.03-2.06,1.7-2.92,3.57-2.92,2.16,0,3.21.97,3.21,2.53v6.51h-.92v-1.51ZM328.69,8.75v-1.16l-2.84.63c-1.51.34-2.31.71-2.31,1.85,0,.97.63,1.68,2.04,1.68,1.63,0,3.11-.95,3.11-3.01Z"/>
      <path class="cls-1" d="M330.58,9.55h1c.1,1.5,1.04,2.23,2.69,2.23,1.43,0,2.46-.53,2.46-1.67,0-.92-.37-1.36-2.53-1.7-2.62-.42-3.35-1.19-3.35-2.6,0-1.5,1.34-2.41,3.2-2.41,2.23,0,3.43,1.09,3.48,2.92h-.99c-.07-1.45-.95-2.07-2.5-2.07-1.24,0-2.21.54-2.21,1.55s.54,1.38,2.63,1.72c2.57.42,3.25,1.17,3.25,2.55,0,1.75-1.58,2.58-3.45,2.58-2.19,0-3.59-1.11-3.69-3.09Z"/>
      <path class="cls-1" d="M343.22,3.6v1.68c.61-1.16,1.68-1.89,3.16-1.89,2.62,0,4.01,2.02,4.01,4.62s-1.39,4.62-4.01,4.62c-1.44,0-2.52-.71-3.13-1.84v5.03h-.99V3.6h.95ZM343.22,8.02c0,2.09,1.04,3.72,3.08,3.72s3.08-1.63,3.08-3.72-1.02-3.72-3.08-3.72-3.08,1.63-3.08,3.72Z"/>
      <path class="cls-1" d="M351.79,3.6h.95v1.78c.7-1.48,1.89-1.89,3.03-1.89h.68v.95h-.75c-1.53,0-2.91.9-2.92,3.2v4.79h-.99V3.6Z"/>
      <path class="cls-1" d="M357.57.2h.99v1.67h-.99V.2ZM357.57,3.6h.99v8.84h-.99V3.6Z"/>
      <path class="cls-1" d="M364.06,4.3c-1.26,0-2.77.95-2.77,3.2v4.95h-.99V3.6h.95v1.55c.56-1,1.53-1.75,2.97-1.75,2.12,0,3.14,1.43,3.14,3.3v5.75h-.97v-5.64c0-1.6-.82-2.5-2.35-2.5Z"/>
      <path class="cls-1" d="M368.81,8.02c0-2.6,1.5-4.62,4.03-4.62,2.02,0,3.33,1.27,3.64,3.11h-1c-.29-1.31-1.24-2.21-2.63-2.21-1.97,0-3.01,1.63-3.01,3.72s1.04,3.72,3.01,3.72c1.43,0,2.4-.95,2.65-2.33h1.02c-.29,1.89-1.7,3.23-3.67,3.23-2.53,0-4.03-2.02-4.03-4.62Z"/>
      <path class="cls-1" d="M377.75.2h.99v1.67h-.99V.2ZM377.75,3.6h.99v8.84h-.99V3.6Z"/>
      <path class="cls-1" d="M381.44,3.6v1.68c.61-1.16,1.68-1.89,3.16-1.89,2.62,0,4.01,2.02,4.01,4.62s-1.39,4.62-4.01,4.62c-1.44,0-2.52-.71-3.13-1.84v5.03h-.99V3.6h.95ZM381.44,8.02c0,2.09,1.04,3.72,3.08,3.72s3.08-1.63,3.08-3.72-1.02-3.72-3.08-3.72-3.08,1.63-3.08,3.72Z"/>
      <path class="cls-1" d="M395.67,10.93c-.73,1.22-1.9,1.72-3.2,1.72-1.92,0-3.01-1-3.01-2.55s1.07-2.26,3.2-2.7l2.97-.61v-.75c0-1.24-.8-1.75-2.26-1.75-1.29,0-2.55.48-2.58,2.04h-.99c.03-2.06,1.7-2.92,3.57-2.92,2.16,0,3.21.97,3.21,2.53v6.51h-.92v-1.51ZM395.63,8.75v-1.16l-2.84.63c-1.51.34-2.31.71-2.31,1.85,0,.97.63,1.68,2.04,1.68,1.63,0,3.11-.95,3.11-3.01Z"/>
      <path class="cls-1" d="M399.07.2v10.11c0,.78.2,1.26,1.07,1.26h1.1v.87h-1.24c-1.56,0-1.92-.82-1.92-2.04V.2h.99Z"/>
      <path class="cls-1" d="M402.03,8.02c0-2.6,1.5-4.62,4.01-4.62s3.99,2.02,3.99,4.62v.32h-6.99c.12,1.94,1.14,3.4,2.99,3.4,1.41,0,2.43-.85,2.84-2.12h1c-.51,1.8-1.87,3.03-3.84,3.03-2.52,0-4.01-2.02-4.01-4.62ZM408.98,7.45c-.17-1.8-1.17-3.15-2.94-3.15s-2.79,1.34-2.96,3.15h5.9Z"/>
      <path class="cls-1" d="M410.87,9.55h1c.1,1.5,1.04,2.23,2.69,2.23,1.43,0,2.46-.53,2.46-1.67,0-.92-.37-1.36-2.53-1.7-2.62-.42-3.35-1.19-3.35-2.6,0-1.5,1.34-2.41,3.2-2.41,2.23,0,3.43,1.09,3.48,2.92h-.99c-.07-1.45-.95-2.07-2.5-2.07-1.24,0-2.21.54-2.21,1.55s.54,1.38,2.63,1.72c2.57.42,3.25,1.17,3.25,2.55,0,1.75-1.58,2.58-3.45,2.58-2.19,0-3.59-1.11-3.69-3.09Z"/>
      <path class="cls-1" d="M418.97,10.57h1.16v1.87h-1.16v-1.87Z"/>
    </g>
  </g>
</svg>