<?xml version="1.0" encoding="UTF-8"?>
<svg id="Capa_2" data-name="Capa 2" xmlns="http://www.w3.org/2000/svg" viewBox="0 0 106.27 17.21">
  <defs>
    <style>
      .cls-1 {
        fill: #fff;
        fill-rule: evenodd;
      }
    </style>
  </defs>
  <g id="Capa_1-2" data-name="Capa 1">
    <g id="Symbols">
      <g id="Logo_UEFA.com" data-name="Logo/UEFA.com">
        <path id="Combined-Shape" class="cls-1" d="M59.74,16.78v-2.13h1.69v2.13h-1.69ZM4.36,12.55c.68.7,1.74,1.08,2.88,1.08,1.14,0,2.2-.38,2.88-1.08.83-.84,1.09-1.69,1.09-3.47V0h3.28v9.93c0,2.08-.61,3.68-1.87,4.91-1.41,1.39-3.15,2.03-5.38,2.04-2.23,0-3.96-.65-5.38-2.04C.61,13.62,0,12.01,0,9.93V0h3.27v9.08c0,1.78.26,2.62,1.09,3.47ZM28.86,3.09h-8.29v3.78h7.59v3.04h-7.59v1.59c0,1.76.61,2.19,2.19,2.19h6.1v3.09h-6.29c-2.91,0-5.28-1.31-5.28-4.93V1.23c0-.78.52-1.23,1.23-1.23h10.34v3.09ZM34.4,9.91v6.87s-2.04,0-2.04,0c-.72,0-1.23-.45-1.23-1.23V4.93c0-3.62,2.36-4.93,5.28-4.93h6.29v3.09h-6.1c-1.58,0-2.19.43-2.19,2.19v1.59s7.59,0,7.59,0v3.04h-7.59ZM49.59,0c.96,0,1.28.51,1.49,1.09l6.15,15.69h-3.51s-1.21-3.09-1.21-3.09h-4l1.09-3.09h1.7l-2.15-5.49-4.13,11.67h-3.28s5.56-15.69,5.56-15.69c.21-.58.53-1.09,1.49-1.09h.81ZM72.24,8.28c-.41-1.86-1.55-3-3.53-3-2.93,0-4.38,2.66-4.38,5.33s1.45,5.33,4.38,5.33c1.89,0,3.44-1.48,3.63-3.56h1.53c-.41,3-2.37,4.84-5.16,4.84-3.82,0-5.91-3.03-5.91-6.61s2.08-6.61,5.91-6.61c2.66,0,4.72,1.43,5.06,4.28h-1.53ZM87.18,10.6c0,3.58-2.08,6.61-5.91,6.61s-5.91-3.03-5.91-6.61,2.08-6.61,5.91-6.61,5.91,3.03,5.91,6.61ZM76.89,10.6c0,2.66,1.45,5.33,4.38,5.33s4.38-2.66,4.38-5.33-1.45-5.33-4.38-5.33-4.38,2.66-4.38,5.33ZM89.01,4.36h1.4v2.11h.07c.8-1.5,2.11-2.47,4.09-2.47,1.65,0,3.12.8,3.58,2.45.75-1.65,2.32-2.45,3.97-2.45,2.74,0,4.14,1.43,4.14,4.38v8.47h-1.52v-8.4c0-2.06-.77-3.17-2.95-3.17-2.64,0-3.39,2.18-3.39,4.5v7.07h-1.53v-8.47c.02-1.69-.68-3.1-2.61-3.1-2.64,0-3.7,1.98-3.73,4.6v6.97h-1.53V4.36Z"/>
      </g>
    </g>
  </g>
</svg>