<?xml version="1.0" encoding="UTF-8"?>
<svg id="Capa_2" data-name="Capa 2" xmlns="http://www.w3.org/2000/svg" viewBox="0 0 49.47 17.14">
  <defs>
    <style>
      .cls-1 {
        fill: #fff;
      }
    </style>
  </defs>
  <g id="Capa_1-2" data-name="Capa 1">
    <g id="_d20a0aff" data-name="#d20a0aff">
      <path class="cls-1" d="M3.99,0h5.87c-1.17,4.19-2.33,8.39-3.49,12.59-.05.15-.05.32.04.46.15.22.43.31.69.33.31,0,.61,0,.92,0,.33,0,.67.01.99-.11.22-.09.35-.3.41-.52,1.18-4.25,2.36-8.5,3.54-12.75h5.84c-1.24,4.46-2.48,8.93-3.72,13.39-.13.47-.26.95-.4,1.42-.18.57-.47,1.13-.94,1.52-.35.3-.78.46-1.22.57-.62.15-1.26.2-1.89.24H3.06c-.75-.05-1.51-.22-2.13-.65-.41-.28-.74-.68-.87-1.16-.07-.21-.05-.43-.05-.64,0-.25.09-.5.15-.74C1.44,9.3,2.73,4.65,4.02,0h-.03Z"/>
      <path class="cls-1" d="M21.57,0h12.62c-.35,1.25-.7,2.51-1.05,3.77-4.21,0-8.41,0-12.62,0,.35-1.26.69-2.51,1.05-3.77Z"/>
      <path class="cls-1" d="M39.89,0h9.57c-.14.57-.31,1.13-.46,1.7-.19.69-.38,1.38-.57,2.07-2.07,0-4.14,0-6.21,0-.3,0-.62,0-.9.12-.23.1-.35.34-.41.57-.76,2.73-1.51,5.45-2.27,8.18-.05.17,0,.36.12.49.19.19.46.25.72.25,2.26,0,4.51,0,6.77,0-.35,1.26-.7,2.51-1.05,3.77h-9.59c-.72-.05-1.45-.2-2.06-.6-.4-.26-.74-.63-.9-1.08-.15-.39-.14-.82-.02-1.21,1.08-3.91,2.17-7.81,3.25-11.72.16-.57.41-1.14.83-1.57.28-.29.64-.49,1.01-.62.7-.24,1.44-.29,2.17-.34Z"/>
      <path class="cls-1" d="M19.8,6.37c4.21,0,8.42,0,12.62,0-.35,1.26-.7,2.52-1.05,3.78-2.26,0-4.52,0-6.78,0-.65,2.33-1.29,4.67-1.94,7h.04s-5.88,0-5.88,0c1-3.59,1.99-7.18,2.99-10.78Z"/>
    </g>
  </g>
</svg>